Sudo.glyphspackage
{
color = 0;
glyphname = parenright;
kernLeft = parenright;
layers = (
{
hints = (
{
horizontal = 1;
origin = (0,7);
type = TTSnap;
},
{
horizontal = 1;
origin = (0,13);
type = TTSnap;
},
{
options = 8;
origin = (0,10);
type = TTSnap;
},
{
options = 4;
origin = (0,10);
target = (0,3);
type = TTStem;
}
);
layerId = "95FB0C11-C828-4064-8966-34220AA4D426";
shapes = (
{
closed = 1;
nodes = (
(97,684,l),
(180,585,o),
(220,458,o),
(220,320,cs),
(220,182,o),
(180,56,o),
(97,-43,c),
(146,-84,l),
(238,26,o),
(294,159,o),
(294,320,cs),
(294,481,o),
(239,613,o),
(147,723,c)
);
}
);
width = 448;
},
{
layerId = "92967D72-867E-4A8B-929F-F44D834DD4C9";
shapes = (
{
closed = 1;
nodes = (
(76,684,l),
(159,585,o),
(199,458,o),
(199,320,cs),
(199,182,o),
(159,56,o),
(76,-43,c),
(165,-84,l),
(257,26,o),
(313,159,o),
(313,320,cs),
(313,481,o),
(258,613,o),
(166,723,c)
);
}
);
width = 448;
},
{
layerId = "7DDCEF54-C770-4FAD-B154-EE8058BAA7E5";
shapes = (
{
closed = 1;
nodes = (
(108,692,l),
(191,591,o),
(233,461,o),
(233,320,cs),
(233,179,o),
(191,49,o),
(108,-52,c),
(140,-77,l),
(231,31,o),
(283,162,o),
(283,320,cs),
(283,478,o),
(231,609,o),
(140,717,c)
);
}
);
width = 448;
},
{
layerId = "C21910D5-47BB-472B-A83D-89B2B42B8F2A";
shapes = (
{
closed = 1;
nodes = (
(202,693,l),
(266,592,o),
(281,463,o),
(253,324,cs),
(224,181,o),
(155,50,o),
(52,-51,c),
(81,-78,l),
(193,30,o),
(270,160,o),
(301,316,cs),
(333,476,o),
(307,608,o),
(237,716,c)
);
}
);
width = 448;
},
{
layerId = "BA106321-29DE-4FD0-898D-B7B08A4D4215";
shapes = (
{
closed = 1;
nodes = (
(190,686,l),
(254,587,o),
(267,461,o),
(240,326,cs),
(212,185,o),
(145,58,o),
(42,-41,c),
(86,-86,l),
(200,24,o),
(280,156,o),
(312,314,cs),
(345,478,o),
(315,611,o),
(245,721,c)
);
}
);
width = 448;
},
{
layerId = "EBAB10B0-9FDE-44C7-9B16-DD2313400F4E";
shapes = (
{
closed = 1;
nodes = (
(170,687,l),
(234,588,o),
(247,462,o),
(220,329,cs),
(191,186,o),
(124,59,o),
(21,-40,c),
(105,-87,l),
(219,23,o),
(299,155,o),
(330,311,cs),
(364,477,o),
(333,610,o),
(263,720,c)
);
}
);
width = 448;
}
);
unicode = 41;
}
{
glyphname = zero;
layers = (
{
background = {
hints = (
{
horizontal = 1;
options = 4;
place = (0,56);
target = (1,11);
type = TTStem;
},
{
horizontal = 1;
options = 4;
place = (0,520);
target = (1,5);
type = TTStem;
},
{
options = 4;
place = (0,114);
target = (1,2);
type = TTStem;
},
{
options = 4;
place = (0,334);
target = (1,8);
type = TTStem;
},
{
options = 8;
place = (0,0);
type = TTSnap;
},
{
options = 8;
place = (0,0);
type = TTSnap;
},
{
horizontal = 1;
options = 4;
other1 = (1,11,2,1);
place = (0,520);
target = (1,5);
type = TTInterpolate;
},
{
horizontal = 1;
options = 4;
other1 = (1,11,2,3);
place = (0,520);
target = (1,5);
type = TTInterpolate;
},
{
horizontal = 1;
options = 4;
other1 = (1,5,2,3);
place = (0,520);
target = (1,5);
type = TTInterpolate;
},
{
horizontal = 1;
options = 4;
other1 = (1,5,2,1);
place = (0,520);
target = (1,5);
type = TTInterpolate;
},
{
options = 4;
other1 = (1,11,2,3);
place = (0,334);
target = (1,8);
type = TTInterpolate;
},
{
options = 4;
other1 = (1,5,2,1);
place = (0,334);
target = (1,8);
type = TTInterpolate;
}
);
shapes = (
{
closed = 1;
nodes = (
(350,-10,o),
(408,112,o),
(408,287,cs),
(408,469,o),
(350,586,o),
(224,586,cs),
(101,586,o),
(40,469,o),
(40,287,cs),
(40,112,o),
(101,-10,o),
(224,-10,cs)
);
},
{
closed = 1;
nodes = (
(146,56,o),
(114,128,o),
(114,287,cs),
(114,448,o),
(146,520,o),
(224,520,cs),
(302,520,o),
(334,448,o),
(334,287,cs),
(334,128,o),
(302,56,o),
(224,56,cs)
);
},
{
closed = 1;
nodes = (
(367,192,l),
(88,471,l),
(88,384,l),
(367,106,l)
);
}
);
};
hints = (
{
horizontal = 1;
options = 4;
origin = (0,11);
target = (1,9);
type = TTStem;
},
{
horizontal = 1;
options = 4;
origin = (0,5);
target = (2,2);
type = TTStem;
},
{
options = 4;
origin = (0,8);
target = (1,2);
type = TTStem;
},
{
options = 4;
origin = (0,2);
target = (2,5);
type = TTStem;
},
{
options = 8;
origin = (0,8);
type = TTSnap;
},
{
options = 8;
origin = (0,2);
type = TTSnap;
},
{
horizontal = 1;
options = 4;
origin = (1,9);
other1 = (2,8);
target = (2,2);
type = TTInterpolate;
},
{
horizontal = 1;
options = 4;
origin = (1,9);
other1 = (1,6);
target = (2,2);
type = TTInterpolate;
},
{
horizontal = 1;
options = 4;
origin = (1,9);
other1 = (1,5);
target = (2,2);
type = TTInterpolate;
},
{
horizontal = 1;
options = 4;
origin = (1,9);
other1 = (2,9);
target = (2,2);
type = TTInterpolate;
},
{
options = 4;
origin = (1,2);
other1 = (1,6);
target = (2,5);
type = TTInterpolate;
},
{
options = 4;
origin = (1,2);
other1 = (2,9);
target = (2,5);
type = TTInterpolate;
}
);
layerId = "95FB0C11-C828-4064-8966-34220AA4D426";
shapes = (
{
closed = 1;
nodes = (
(350,-10,o),
(408,112,o),
(408,287,cs),
(408,469,o),
(350,586,o),
(224,586,cs),
(101,586,o),
(40,469,o),
(40,287,cs),
(40,112,o),
(101,-10,o),
(224,-10,cs)
);
},
{
closed = 1;
nodes = (
(146,56,o),
(114,128,o),
(114,287,cs),
(114,312,o),
(115,336,o),
(116,356,c),
(322,151,l),
(306,86,o),
(275,56,o),
(224,56,cs)
);
},
{
closed = 1;
nodes = (
(144,491,o),
(175,520,o),
(224,520,cs),
(302,520,o),
(334,448,o),
(334,287,cs),
(334,265,o),
(333,244,o),
(332,227,c),
(128,431,l)
);
}
);
width = 448;
},
{
background = {
shapes = (
{
closed = 1;
nodes = (
(357,-10,o),
(418,112,o),
(418,287,cs),
(418,469,o),
(357,586,o),
(224,586,cs),
(95,586,o),
(30,469,o),
(30,287,cs),
(30,112,o),
(95,-10,o),
(224,-10,cs)
);
},
{
closed = 1;
nodes = (
(167,72,o),
(146,139,o),
(146,287,cs),
(146,437,o),
(167,504,o),
(224,504,cs),
(281,504,o),
(302,437,o),
(302,287,cs),
(302,139,o),
(281,72,o),
(224,72,cs)
);
},
{
closed = 1;
nodes = (
(367,203,l),
(88,482,l),
(88,373,l),
(367,95,l)
);
}
);
};
layerId = "92967D72-867E-4A8B-929F-F44D834DD4C9";
shapes = (
{
closed = 1;
nodes = (
(357,-10,o),
(418,112,o),
(418,287,cs),
(418,469,o),
(357,586,o),
(224,586,cs),
(95,586,o),
(30,469,o),
(30,287,cs),
(30,112,o),
(95,-10,o),
(224,-10,cs)
);
},
{
closed = 1;
nodes = (
(167,72,o),
(146,139,o),
(146,287,cs),
(146,297,o),
(146,307,o),
(146,315,c),
(295,167,l),
(284,101,o),
(262,72,o),
(224,72,cs)
);
},
{
closed = 1;
nodes = (
(165,475,o),
(187,504,o),
(224,504,cs),
(281,504,o),
(302,437,o),
(302,287,cs),
(302,281,o),
(302,273,o),
(302,268,c),
(155,415,l)
);
}
);
width = 448;
},
{
background = {
shapes = (
{
closed = 1;
nodes = (
(346,-10,o),
(402,112,o),
(402,287,cs),
(402,469,o),
(346,586,o),
(224,586,cs),
(105,586,o),
(46,469,o),
(46,287,cs),
(46,112,o),
(105,-10,o),
(224,-10,cs)
);
},
{
closed = 1;
nodes = (
(135,32,o),
(98,122,o),
(98,287,cs),
(98,454,o),
(135,544,o),
(224,544,cs),
(313,544,o),
(350,454,o),
(350,287,cs),
(350,122,o),
(313,32,o),
(224,32,cs)
);
},
{
closed = 1;
nodes = (
(367,177,l),
(88,456,l),
(88,399,l),
(367,121,l)
);
}
);
};
layerId = "7DDCEF54-C770-4FAD-B154-EE8058BAA7E5";
shapes = (
{
closed = 1;
nodes = (
(346,-10,o),
(402,112,o),
(402,287,cs),
(402,469,o),
(346,586,o),
(224,586,cs),
(105,586,o),
(46,469,o),
(46,287,cs),
(46,112,o),
(105,-10,o),
(224,-10,cs)
);
},
{
closed = 1;
nodes = (
(135,32,o),
(98,122,o),
(98,287,cs),
(98,323,o),
(100,356,o),
(103,384,c),
(338,150,l),
(321,74,o),
(284,32,o),
(224,32,cs)
);
},
{
closed = 1;
nodes = (
(130,506,o),
(166,544,o),
(224,544,cs),
(313,544,o),
(350,454,o),
(350,287,cs),
(350,255,o),
(349,225,o),
(346,198,c),
(112,432,l)
);
}
);
width = 448;
},
{
background = {
shapes = (
{
closed = 1;
nodes = (
(306,-10,o),
(385,109,o),
(419,281,cs),
(456,466,o),
(420,586,o),
(291,586,cs),
(171,586,o),
(90,472,o),
(54,293,cs),
(18,115,o),
(57,-10,o),
(182,-10,cs)
);
},
{
closed = 1;
nodes = (
(110,56,o),
(94,125,o),
(125,281,cs),
(158,445,o),
(208,520,o),
(288,520,cs),
(364,520,o),
(379,451,o),
(348,293,cs),
(315,131,o),
(266,56,o),
(185,56,cs)
);
},
{
closed = 1;
nodes = (
(361,187,l),
(137,466,l),
(120,389,l),
(343,111,l)
);
}
);
};
color = 0;
layerId = "BA106321-29DE-4FD0-898D-B7B08A4D4215";
shapes = (
{
closed = 1;
nodes = (
(306,-10,o),
(385,109,o),
(419,281,cs),
(456,466,o),
(420,586,o),
(291,586,cs),
(171,586,o),
(90,472,o),
(54,293,cs),
(18,115,o),
(57,-10,o),
(182,-10,cs)
);
},
{
closed = 1;
nodes = (
(110,56,o),
(94,125,o),
(125,281,cs),
(131,311,o),
(137,335,o),
(144,359,c),
(307,156,l),
(277,88,o),
(238,56,o),
(185,56,cs)
);
},
{
closed = 1;
nodes = (
(199,490,o),
(237,520,o),
(288,520,cs),
(364,520,o),
(379,451,o),
(348,293,cs),
(343,268,o),
(337,245,o),
(331,224,c),
(169,426,l)
);
}
);
width = 448;
},
{
background = {
shapes = (
{
closed = 1;
nodes = (
(313,-10,o),
(395,108,o),
(429,278,cs),
(466,465,o),
(426,586,o),
(290,586,cs),
(164,586,o),
(80,473,o),
(44,296,cs),
(8,116,o),
(51,-10,o),
(184,-10,cs)
);
},
{
closed = 1;
nodes = (
(133,72,o),
(128,135,o),
(157,278,cs),
(188,433,o),
(226,504,o),
(286,504,cs),
(340,504,o),
(345,441,o),
(316,296,cs),
(286,143,o),
(247,72,o),
(187,72,cs)
);
},
{
closed = 1;
nodes = (
(363,197,l),
(140,476,l),
(118,379,l),
(341,101,l)
);
}
);
};
layerId = "EBAB10B0-9FDE-44C7-9B16-DD2313400F4E";
shapes = (
{
closed = 1;
nodes = (
(313,-10,o),
(395,108,o),
(429,278,cs),
(466,465,o),
(426,586,o),
(290,586,cs),
(164,586,o),
(80,473,o),
(44,296,cs),
(8,116,o),
(51,-10,o),
(184,-10,cs)
);
},
{
closed = 1;
nodes = (
(133,72,o),
(128,135,o),
(157,278,cs),
(160,293,o),
(163,306,o),
(166,319,c),
(284,173,l),
(259,105,o),
(228,72,o),
(187,72,cs)
);
},
{
closed = 1;
nodes = (
(217,473,o),
(247,504,o),
(286,504,cs),
(340,504,o),
(345,441,o),
(316,296,cs),
(314,286,o),
(311,274,o),
(309,264,c),
(193,410,l)
);
}
);
width = 448;
},
{
background = {
shapes = (
{
closed = 1;
nodes = (
(301,-10,o),
(379,110,o),
(414,283,cs),
(451,467,o),
(417,586,o),
(293,586,cs),
(176,586,o),
(95,471,o),
(59,291,cs),
(24,114,o),
(60,-10,o),
(181,-10,cs)
);
},
{
closed = 1;
nodes = (
(95,32,o),
(77,120,o),
(110,283,cs),
(144,452,o),
(201,544,o),
(291,544,cs),
(379,544,o),
(396,456,o),
(363,291,cs),
(330,124,o),
(273,32,o),
(182,32,cs)
);
},
{
closed = 1;
nodes = (
(358,174,l),
(134,453,l),
(123,402,l),
(346,124,l)
);
}
);
};
layerId = "C21910D5-47BB-472B-A83D-89B2B42B8F2A";
shapes = (
{
closed = 1;
nodes = (
(301,-10,o),
(379,110,o),
(414,283,cs),
(451,467,o),
(417,586,o),
(293,586,cs),
(176,586,o),
(95,471,o),
(59,291,cs),
(24,114,o),
(60,-10,o),
(181,-10,cs)
);
},
{
closed = 1;
nodes = (
(95,32,o),
(77,120,o),
(110,283,cs),
(118,322,o),
(127,356,o),
(137,385,c),
(323,153,l),
(289,73,o),
(243,32,o),
(182,32,cs)
);
},
{
closed = 1;
nodes = (
(187,505,o),
(232,544,o),
(291,544,cs),
(379,544,o),
(396,456,o),
(363,291,cs),
(356,256,o),
(348,225,o),
(339,197,c),
(153,429,l)
);
}
);
width = 448;
}
);
unicode = 48;
}
{
glyphname = less;
layers = (
{
hints = (
{
horizontal = 1;
origin = (0,3);
type = TTSnap;
},
{
horizontal = 1;
origin = (0,1);
type = TTSnap;
}
);
layerId = "95FB0C11-C828-4064-8966-34220AA4D426";
shapes = (
{
closed = 1;
nodes = (
(339,481,l),
(289,525,l),
(44,288,l),
(289,51,l),
(339,95,l),
(139,288,l)
);
}
);
width = 448;
},
{
layerId = "92967D72-867E-4A8B-929F-F44D834DD4C9";
shapes = (
{
closed = 1;
nodes = (
(364,468,l),
(284,538,l),
(26,288,l),
(284,38,l),
(364,108,l),
(177,288,l)
);
}
);
width = 448;
},
{
layerId = "7DDCEF54-C770-4FAD-B154-EE8058BAA7E5";
shapes = (
{
closed = 1;
nodes = (
(324,489,l),
(292,517,l),
(55,288,l),
(292,59,l),
(324,87,l),
(116,288,l)
);
}
);
width = 448;
},
{
layerId = "C21910D5-47BB-472B-A83D-89B2B42B8F2A";
shapes = (
{
closed = 1;
nodes = (
(377,489,l),
(349,517,l),
(68,288,l),
(260,59,l),
(297,87,l),
(129,288,l)
);
}
);
width = 448;
},
{
layerId = "BA106321-29DE-4FD0-898D-B7B08A4D4215";
shapes = (
{
closed = 1;
nodes = (
(390,481,l),
(347,525,l),
(57,288,l),
(256,51,l),
(313,95,l),
(152,288,l)
);
}
);
width = 448;
},
{
layerId = "EBAB10B0-9FDE-44C7-9B16-DD2313400F4E";
shapes = (
{
closed = 1;
nodes = (
(413,468,l),
(345,538,l),
(39,288,l),
(249,38,l),
(341,108,l),
(190,288,l)
);
}
);
width = 448;
}
);
unicode = 60;
}
{
glyphname = question;
layers = (
{
hints = (
{
horizontal = 1;
origin = (1,11);
stem = -1;
target = (1,5);
type = TTStem;
},
{
horizontal = 1;
options = 4;
origin = (0,5);
target = (0,6);
type = TTStem;
},
{
horizontal = 1;
origin = (1,5);
target = (0,13);
type = TTShift;
},
{
horizontal = 1;
options = 4;
origin = (1,11);
other1 = (0,2,0);
target = (0,6);
type = TTInterpolate;
},
{
horizontal = 1;
options = 4;
origin = (1,5);
other1 = (0,12,0);
target = (0,5);
type = TTInterpolate;
}
);
layerId = "95FB0C11-C828-4064-8966-34220AA4D426";
shapes = (
{
closed = 1;
nodes = (
(256,370,o),
(388,367,o),
(388,494,cs),
(388,585,o),
(320,638,o),
(96,645,c),
(93,581,l),
(301,571,o),
(316,525,o),
(316,488,cs),
(316,393,o),
(189,392,o),
(185,195,c),
(255,192,l)
);
},
{
closed = 1;
nodes = (
(259,-10,o),
(288,12,o),
(288,54,cs),
(288,95,o),
(259,118,o),
(224,118,cs),
(189,118,o),
(160,95,o),
(160,54,cs),
(160,12,o),
(189,-10,o),
(224,-10,cs)
);
}
);
width = 448;
},
{
layerId = "92967D72-867E-4A8B-929F-F44D834DD4C9";
shapes = (
{
closed = 1;
nodes = (
(274,352,o),
(398,352,o),
(398,485,cs),
(398,583,o),
(325,645,o),
(86,645,c),
(81,565,l),
(269,553,o),
(282,514,o),
(282,481,cs),
(282,401,o),
(157,384,o),
(167,195,c),
(273,192,l)
);
},
{
closed = 1;
nodes = (
(270,-10,o),
(308,15,o),
(308,64,cs),
(308,111,o),
(270,138,o),
(224,138,cs),
(178,138,o),
(140,111,o),
(140,64,cs),
(140,15,o),
(178,-10,o),
(224,-10,cs)
);
}
);
width = 448;
},
{
layerId = "7DDCEF54-C770-4FAD-B154-EE8058BAA7E5";
shapes = (
{
closed = 1;
nodes = (
(248,375,o),
(377,367,o),
(377,493,cs),
(377,585,o),
(315,638,o),
(107,645,c),
(104,603,l),
(311,592,o),
(327,535,o),
(327,491,cs),
(327,393,o),
(203,387,o),
(199,195,c),
(247,193,l)
);
},
{
closed = 1;
nodes = (
(252,-10,o),
(276,8,o),
(276,42,cs),
(276,75,o),
(252,94,o),
(224,94,cs),
(196,94,o),
(172,75,o),
(172,42,cs),
(172,8,o),
(196,-10,o),
(224,-10,cs)
);
}
);
width = 448;
},
{
background = {
shapes = (
{
closed = 1;
nodes = (
(207,-10,o),
(232,6,o),
(239,38,cs),
(247,73,o),
(224,94,o),
(195,94,cs),
(168,94,o),
(142,77,o),
(136,46,cs),
(129,10,o),
(151,-10,o),
(181,-10,cs)
);
}
);
};
layerId = "C21910D5-47BB-472B-A83D-89B2B42B8F2A";
shapes = (
{
closed = 1;
nodes = (
(278,373,o),
(405,366,o),
(430,489,cs),
(449,583,o),
(396,638,o),
(189,645,c),
(182,603,l),
(386,592,o),
(389,537,o),
(381,495,cs),
(361,393,o),
(236,387,o),
(194,192,c),
(240,192,l)
);
},
{
closed = 1;
nodes = (
(216,-10,o),
(240,8,o),
(240,42,cs),
(240,75,o),
(216,94,o),
(188,94,cs),
(160,94,o),
(136,75,o),
(136,42,cs),
(136,8,o),
(160,-10,o),
(188,-10,cs)
);
}
);
width = 448;
},
{
background = {
shapes = (
{
closed = 1;
nodes = (
(215,-10,o),
(245,9,o),
(253,48,cs),
(262,92,o),
(235,118,o),
(198,118,cs),
(165,118,o),
(135,98,o),
(127,60,cs),
(118,15,o),
(145,-10,o),
(182,-10,cs)
);
}
);
};
color = 0;
layerId = "BA106321-29DE-4FD0-898D-B7B08A4D4215";
shapes = (
{
closed = 1;
nodes = (
(285,368,o),
(416,365,o),
(441,488,cs),
(460,582,o),
(400,638,o),
(178,645,c),
(167,581,l),
(373,571,o),
(377,528,o),
(370,494,cs),
(350,394,o),
(222,393,o),
(178,192,c),
(248,192,l)
);
},
{
closed = 1;
nodes = (
(225,-10,o),
(254,12,o),
(254,54,cs),
(254,95,o),
(225,118,o),
(190,118,cs),
(155,118,o),
(126,95,o),
(126,54,cs),
(126,12,o),
(155,-10,o),
(190,-10,cs)
);
}
);
width = 448;
},
{
background = {
shapes = (
{
closed = 1;
nodes = (
(226,-10,o),
(265,11,o),
(274,55,cs),
(285,107,o),
(250,138,o),
(200,138,cs),
(158,138,o),
(119,115,o),
(110,73,cs),
(99,19,o),
(134,-10,o),
(184,-10,cs)
);
}
);
};
layerId = "EBAB10B0-9FDE-44C7-9B16-DD2313400F4E";
shapes = (
{
closed = 1;
nodes = (
(300,349,o),
(423,350,o),
(448,476,cs),
(468,579,o),
(406,645,o),
(167,645,c),
(152,565,l),
(338,553,o),
(340,518,o),
(335,490,cs),
(318,403,o),
(189,386,o),
(161,192,c),
(267,192,l)
);
},
{
closed = 1;
nodes = (
(237,-10,o),
(275,15,o),
(275,64,cs),
(275,111,o),
(237,138,o),
(191,138,cs),
(145,138,o),
(107,111,o),
(107,64,cs),
(107,15,o),
(145,-10,o),
(191,-10,cs)
);
}
);
width = 448;
}
);
unicode = 63;
}
{
glyphname = G;
kernLeft = O;
kernRight = G;
layers = (
{
anchors = (
{
name = "#center";
pos = (320,160);
},
{
name = bottom;
pos = (224,0);
},
{
name = top;
pos = (244,640);
}
);
background = {
anchors = (
{
name = bottom;
pos = (224,0);
},
{
name = top;
pos = (244,640);
}
);
hints = (
{
horizontal = 1;
options = 4;
origin = (0,25);
target = (0,6);
type = TTStem;
},
{
horizontal = 1;
options = 4;
origin = (0,19);
target = (0,12);
type = TTStem;
},
{
horizontal = 1;
origin = (0,25);
other1 = (1,1);
target = (0,19);
type = TTInterpolate;
},
{
horizontal = 1;
options = 4;
origin = (1,1);
target = (1,4);
type = TTStem;
},
{
options = 4;
origin = (0,22);
target = (0,9);
type = TTStem;
},
{
options = 4;
origin = (1,1);
target = (1,4);
type = TTStem;
},
{
options = 8;
origin = (1,3);
type = TTSnap;
},
{
options = 4;
origin = (1,1);
target = (0,16);
type = TTShift;
},
{
options = 8;
origin = (0,22);
type = TTSnap;
},
{
options = 8;
origin = (1,1);
type = TTSnap;
}
);
shapes = (
{
closed = 1;
nodes = (
(301,-9,o),
(350,-4,o),
(388,7,c),
(371,67,l),
(333,58,o),
(296,55,o),
(274,55,cs),
(143,55,o),
(132,131,o),
(132,319,cs),
(132,507,o),
(143,583,o),
(274,583,cs),
(296,583,o),
(333,580,o),
(371,571,c),
(385,632,l),
(347,642,o),
(301,647,o),
(268,647,cs),
(112,647,o),
(54,560,o),
(54,319,cs),
(54,78,o),
(112,-9,o),
(268,-9,cs)
);
},
{
closed = 1;
nodes = (
(388,7,l),
(388,320,l),
(226,320,l),
(226,256,l),
(316,256,l),
(316,7,l)
);
}
);
};
hints = (
{
horizontal = 1;
options = 4;
origin = (0,29);
target = (0,10);
type = TTStem;
},
{
horizontal = 1;
options = 4;
origin = (0,23);
target = (0,16);
type = TTStem;
},
{
horizontal = 1;
origin = (0,29);
other1 = (0,3);
target = (0,23);
type = TTInterpolate;
},
{
horizontal = 1;
options = 4;
origin = (0,3);
target = (0,6);
type = TTStem;
},
{
options = 4;
origin = (0,26);
target = (0,13);
type = TTStem;
},
{
options = 4;
origin = (0,3);
target = (0,6);
type = TTStem;
},
{
options = 8;
origin = (0,5);
type = TTSnap;
},
{
options = 4;
origin = (0,3);
target = (0,20);
type = TTShift;
},
{
options = 8;
origin = (0,26);
type = TTSnap;
},
{
options = 8;
origin = (0,3);
type = TTSnap;
}
);
layerId = "95FB0C11-C828-4064-8966-34220AA4D426";
shapes = (
{
closed = 1;
nodes = (
(301,-9,o),
(350,-4,o),
(388,7,c),
(388,320,l),
(226,320,l),
(226,256,l),
(316,256,l),
(316,58,l),
(301,56,o),
(288,55,o),
(274,55,cs),
(143,55,o),
(132,131,o),
(132,319,cs),
(132,507,o),
(143,583,o),
(274,583,cs),
(296,583,o),
(333,580,o),
(371,571,c),
(385,632,l),
(347,642,o),
(301,647,o),
(268,647,cs),
(112,647,o),
(54,560,o),
(54,319,cs),
(54,78,o),
(112,-9,o),
(268,-9,cs)
);
}
);
width = 448;
},
{
anchors = (
{
name = "#center";
pos = (320,160);
},
{
name = bottom;
pos = (224,0);
},
{
name = top;
pos = (244,640);
}
);
background = {
anchors = (
{
name = bottom;
pos = (224,0);
},
{
name = top;
pos = (244,640);
}
);
shapes = (
{
closed = 1;
nodes = (
(307,-9,o),
(359,-4,o),
(398,7,c),
(381,83,l),
(346,77,o),
(309,71,o),
(275,71,cs),
(172,71,o),
(162,142,o),
(162,319,cs),
(162,496,o),
(172,567,o),
(292,567,cs),
(312,567,o),
(346,564,o),
(381,555,c),
(395,629,l),
(355,641,o),
(306,647,o),
(271,647,cs),
(106,647,o),
(44,560,o),
(44,319,cs),
(44,78,o),
(106,-9,o),
(272,-9,cs)
);
},
{
closed = 1;
nodes = (
(398,7,l),
(398,328,l),
(211,328,l),
(211,248,l),
(286,248,l),
(286,7,l)
);
}
);
};
layerId = "92967D72-867E-4A8B-929F-F44D834DD4C9";
shapes = (
{
closed = 1;
nodes = (
(307,-9,o),
(359,-4,o),
(398,7,c),
(398,328,l),
(211,328,l),
(211,248,l),
(286,248,l),
(286,71,l),
(283,71,o),
(278,71,o),
(275,71,cs),
(172,71,o),
(162,142,o),
(162,319,cs),
(162,496,o),
(172,567,o),
(292,567,cs),
(312,567,o),
(346,564,o),
(381,555,c),
(395,629,l),
(355,641,o),
(306,647,o),
(271,647,cs),
(106,647,o),
(44,560,o),
(44,319,cs),
(44,78,o),
(106,-9,o),
(272,-9,cs)
);
}
);
width = 448;
},
{
anchors = (
{
name = "#center";
pos = (320,160);
},
{
name = bottom;
pos = (224,0);
},
{
name = top;
pos = (244,640);
}
);
background = {
anchors = (
{
name = bottom;
pos = (224,0);
},
{
name = top;
pos = (244,640);
}
);
shapes = (
{
closed = 1;
nodes = (
(297,-9,o),
(345,-3,o),
(382,7,c),
(364,44,l),
(329,38,o),
(297,35,o),
(271,35,cs),
(144,35,o),
(114,117,o),
(114,319,cs),
(114,521,o),
(141,603,o),
(269,603,cs),
(299,603,o),
(333,600,o),
(368,594,c),
(374,634,l),
(343,642,o),
(300,647,o),
(266,647,cs),
(116,647,o),
(60,560,o),
(60,319,cs),
(60,78,o),
(116,-9,o),
(266,-9,cs)
);
},
{
closed = 1;
nodes = (
(382,7,l),
(382,310,l),
(235,310,l),
(235,266,l),
(334,266,l),
(334,7,l)
);
}
);
};
layerId = "7DDCEF54-C770-4FAD-B154-EE8058BAA7E5";
shapes = (
{
closed = 1;
nodes = (
(297,-9,o),
(345,-3,o),
(382,7,c),
(382,310,l),
(235,310,l),
(235,266,l),
(334,266,l),
(334,39,l),
(313,36,o),
(292,35,o),
(271,35,cs),
(144,35,o),
(114,117,o),
(114,319,cs),
(114,521,o),
(141,603,o),
(269,603,cs),
(299,603,o),
(333,600,o),
(368,594,c),
(374,634,l),
(343,642,o),
(300,647,o),
(266,647,cs),
(116,647,o),
(60,560,o),
(60,319,cs),
(60,78,o),
(116,-9,o),
(266,-9,cs)
);
}
);
width = 448;
},
{
anchors = (
{
name = "#center";
pos = (307,160);
},
{
name = bottom;
pos = (179,0);
},
{
name = top;
pos = (327,640);
}
);
background = {
anchors = (
{
name = bottom;
pos = (179,0);
},
{
name = top;
pos = (327,640);
}
);
shapes = (
{
closed = 1;
nodes = (
(252,-9,o),
(300,-3,o),
(339,7,c),
(326,44,l),
(290,38,o),
(257,35,o),
(230,35,cs),
(104,35,o),
(92,115,o),
(132,315,cs),
(173,519,o),
(219,603,o),
(348,603,cs),
(377,603,o),
(410,600,o),
(444,594,c),
(454,634,l),
(425,642,o),
(383,647,o),
(347,647,cs),
(199,647,o),
(128,562,o),
(80,323,cs),
(31,80,o),
(71,-9,o),
(223,-9,cs)
);
},
{
closed = 1;
nodes = (
(339,7,l),
(399,310,l),
(252,310,l),
(243,266,l),
(342,266,l),
(291,7,l)
);
}
);
};
layerId = "C21910D5-47BB-472B-A83D-89B2B42B8F2A";
shapes = (
{
closed = 1;
nodes = (
(252,-9,o),
(300,-3,o),
(339,7,c),
(399,310,l),
(252,310,l),
(243,266,l),
(342,266,l),
(297,40,l),
(276,37,o),
(251,35,o),
(230,35,cs),
(104,35,o),
(92,115,o),
(132,315,cs),
(173,519,o),
(219,603,o),
(348,603,cs),
(377,603,o),
(410,600,o),
(444,594,c),
(454,634,l),
(425,642,o),
(383,647,o),
(347,647,cs),
(199,647,o),
(128,562,o),
(80,323,cs),
(31,80,o),
(71,-9,o),
(223,-9,cs)
);
}
);
width = 448;
},
{
anchors = (
{
name = "#center";
pos = (307,160);
},
{
name = bottom;
pos = (179,0);
},
{
name = top;
pos = (327,640);
}
);
background = {
anchors = (
{
name = bottom;
pos = (179,0);
},
{
name = top;
pos = (327,640);
}
);
shapes = (
{
closed = 1;
nodes = (
(256,-9,o),
(306,-5,o),
(345,7,c),
(337,68,l),
(297,59,o),
(260,55,o),
(235,55,cs),
(107,55,o),
(113,128,o),
(150,313,cs),
(188,504,o),
(217,583,o),
(351,583,cs),
(370,583,o),
(407,581,o),
(443,572,c),
(464,631,l),
(428,641,o),
(383,647,o),
(348,647,cs),
(194,647,o),
(122,563,o),
(74,325,cs),
(25,81,o),
(68,-9,o),
(226,-9,cs)
);
},
{
closed = 1;
nodes = (
(345,7,l),
(407,320,l),
(245,320,l),
(232,256,l),
(322,256,l),
(273,7,l)
);
}
);
};
layerId = "BA106321-29DE-4FD0-898D-B7B08A4D4215";
shapes = (
{
closed = 1;
nodes = (
(256,-9,o),
(306,-5,o),
(345,7,c),
(407,320,l),
(245,320,l),
(232,256,l),
(322,256,l),
(283,58,l),
(265,56,o),
(248,55,o),
(235,55,cs),
(107,55,o),
(113,128,o),
(150,313,cs),
(188,504,o),
(217,583,o),
(351,583,cs),
(370,583,o),
(407,581,o),
(443,572,c),
(464,631,l),
(428,641,o),
(383,647,o),
(348,647,cs),
(194,647,o),
(122,563,o),
(74,325,cs),
(25,81,o),
(68,-9,o),
(226,-9,cs)
);
}
);
width = 448;
},
{
anchors = (
{
name = "#center";
pos = (307,160);
},
{
name = bottom;
pos = (179,0);
},
{
name = top;
pos = (327,640);
}
);
background = {
anchors = (
{
name = bottom;
pos = (179,0);
},
{
name = top;
pos = (327,640);
}
);
shapes = (
{
closed = 1;
nodes = (
(263,-9,o),
(315,-5,o),
(355,7,c),
(349,84,l),
(314,77,o),
(275,71,o),
(238,71,cs),
(138,71,o),
(145,138,o),
(179,310,cs),
(216,492,o),
(244,567,o),
(367,567,cs),
(384,567,o),
(417,565,o),
(450,556,c),
(473,628,l),
(435,640,o),
(387,647,o),
(349,647,cs),
(187,647,o),
(112,564,o),
(65,328,cs),
(16,82,o),
(63,-9,o),
(232,-9,cs)
);
},
{
closed = 1;
nodes = (
(355,7,l),
(419,328,l),
(232,328,l),
(216,248,l),
(291,248,l),
(243,7,l)
);
}
);
};
layerId = "EBAB10B0-9FDE-44C7-9B16-DD2313400F4E";
shapes = (
{
closed = 1;
nodes = (
(263,-9,o),
(315,-5,o),
(355,7,c),
(419,328,l),
(232,328,l),
(216,248,l),
(291,248,l),
(256,71,l),
(250,71,o),
(244,71,o),
(238,71,cs),
(138,71,o),
(145,138,o),
(179,310,cs),
(216,492,o),
(244,567,o),
(367,567,cs),
(384,567,o),
(417,565,o),
(450,556,c),
(473,628,l),
(435,640,o),
(387,647,o),
(349,647,cs),
(187,647,o),
(112,564,o),
(65,328,cs),
(16,82,o),
(63,-9,o),
(232,-9,cs)
);
}
);
width = 448;
}
);
unicode = 71;
}
{
glyphname = Q;
kernLeft = O;
kernRight = Q;
layers = (
{
anchors = (
{
name = bottom;
pos = (224,-192);
},
{
name = top;
pos = (224,640);
}
);
background = {
shapes = (
{
closed = 1;
nodes = (
(415,-78,l),
(329,-72,o),
(291,-60,o),
(281,0,c),
(206,0,l),
(222,-101,o),
(305,-137,o),
(405,-145,c)
);
},
{
closed = 1;
nodes = (
(353,-10,o),
(411,102,o),
(411,319,cs),
(411,541,o),
(353,650,o),
(224,650,cs),
(98,650,o),
(37,541,o),
(37,319,cs),
(37,102,o),
(98,-10,o),
(224,-10,cs)
);
},
{
closed = 1;
nodes = (
(143,56,o),
(113,128,o),
(113,319,cs),
(113,512,o),
(143,584,o),
(224,584,cs),
(305,584,o),
(335,512,o),
(335,319,cs),
(335,128,o),
(305,56,o),
(224,56,cs)
);
}
);
};
hints = (
{
horizontal = 1;
options = 4;
origin = (0,15);
target = (1,11);
type = TTStem;
},
{
horizontal = 1;
options = 4;
origin = (0,9);
target = (1,5);
type = TTStem;
},
{
horizontal = 1;
origin = (0,18);
type = TTSnap;
},
{
horizontal = 1;
options = 4;
origin = (0,18);
target = (0,0);
type = TTStem;
},
{
options = 4;
origin = (0,12);
target = (1,2);
type = TTStem;
},
{
options = 4;
origin = (0,6);
target = (1,8);
type = TTStem;
},
{
options = 8;
origin = (0,12);
type = TTSnap;
},
{
options = 8;
origin = (0,6);
type = TTSnap;
},
{
options = 4;
origin = (0,6);
target = (0,0);
type = TTShift;
},
{
horizontal = 1;
options = 4;
origin = (0,15);
other1 = (0,3);
target = (0,9);
type = TTInterpolate;
},
{
origin = (0,12);
other1 = (0,15);
target = (0,6);
type = TTInterpolate;
},
{
options = 4;
origin = (0,15);
target = (0,3);
type = TTStem;
}
);
layerId = "95FB0C11-C828-4064-8966-34220AA4D426";
shapes = (
{
closed = 1;
nodes = (
(415,-78,l),
(329,-72,o),
(291,-59,o),
(281,-1,c),
(370,29,o),
(411,137,o),
(411,319,cs),
(411,541,o),
(353,650,o),
(224,650,cs),
(98,650,o),
(37,541,o),
(37,319,cs),
(37,112,o),
(94,0,o),
(208,-9,c),
(227,-102,o),
(307,-137,o),
(405,-145,c)
);
},
{
closed = 1;
nodes = (
(143,56,o),
(113,128,o),
(113,319,cs),
(113,512,o),
(143,584,o),
(224,584,cs),
(305,584,o),
(335,512,o),
(335,319,cs),
(335,128,o),
(305,56,o),
(224,56,cs)
);
}
);
width = 448;
},
{
anchors = (
{
name = bottom;
pos = (224,-192);
},
{
name = top;
pos = (224,640);
}
);
background = {
shapes = (
{
closed = 1;
nodes = (
(421,-60,l),
(334,-58,o),
(286,-41,o),
(278,20,c),
(185,20,l),
(203,-95,o),
(275,-147,o),
(412,-152,c)
);
},
{
closed = 1;
nodes = (
(360,-10,o),
(421,102,o),
(421,319,cs),
(421,541,o),
(360,650,o),
(224,650,cs),
(92,650,o),
(27,541,o),
(27,319,cs),
(27,102,o),
(92,-10,o),
(224,-10,cs)
);
},
{
closed = 1;
nodes = (
(165,72,o),
(143,140,o),
(143,319,cs),
(143,500,o),
(165,568,o),
(224,568,cs),
(283,568,o),
(305,500,o),
(305,319,cs),
(305,140,o),
(283,72,o),
(224,72,cs)
);
}
);
};
layerId = "92967D72-867E-4A8B-929F-F44D834DD4C9";
shapes = (
{
closed = 1;
nodes = (
(421,-60,l),
(344,-58,o),
(299,-46,o),
(283,-2,c),
(378,28,o),
(421,136,o),
(421,319,cs),
(421,541,o),
(360,650,o),
(224,650,cs),
(92,650,o),
(27,541,o),
(27,319,cs),
(27,121,o),
(81,11,o),
(191,-7,c),
(216,-104,o),
(286,-147,o),
(412,-152,c)
);
},
{
closed = 1;
nodes = (
(165,72,o),
(143,140,o),
(143,319,cs),
(143,500,o),
(165,568,o),
(224,568,cs),
(283,568,o),
(305,500,o),
(305,319,cs),
(305,140,o),
(283,72,o),
(224,72,cs)
);
}
);
width = 448;
},
{
anchors = (
{
name = bottom;
pos = (224,-192);
},
{
name = top;
pos = (224,640);
}
);
background = {
shapes = (
{
closed = 1;
nodes = (
(403,-82,l),
(311,-81,o),
(275,-63,o),
(265,0,c),
(220,0,l),
(233,-90,o),
(286,-128,o),
(401,-128,c)
);
},
{
closed = 1;
nodes = (
(349,-10,o),
(405,102,o),
(405,319,cs),
(405,541,o),
(349,650,o),
(224,650,cs),
(102,650,o),
(43,541,o),
(43,319,cs),
(43,102,o),
(102,-10,o),
(224,-10,cs)
);
},
{
closed = 1;
nodes = (
(132,34,o),
(95,121,o),
(95,319,cs),
(95,519,o),
(132,606,o),
(224,606,cs),
(316,606,o),
(353,519,o),
(353,319,cs),
(353,121,o),
(316,34,o),
(224,34,cs)
);
}
);
};
layerId = "7DDCEF54-C770-4FAD-B154-EE8058BAA7E5";
shapes = (
{
closed = 1;
nodes = (
(403,-82,l),
(313,-81,o),
(277,-63,o),
(266,-5,c),
(361,18,o),
(405,128,o),
(405,319,cs),
(405,541,o),
(349,650,o),
(224,650,cs),
(102,650,o),
(43,541,o),
(43,319,cs),
(43,103,o),
(102,-9,o),
(222,-10,c),
(237,-92,o),
(290,-128,o),
(401,-128,c)
);
},
{
closed = 1;
nodes = (
(132,34,o),
(95,121,o),
(95,319,cs),
(95,519,o),
(132,606,o),
(224,606,cs),
(316,606,o),
(353,519,o),
(353,319,cs),
(353,121,o),
(316,34,o),
(224,34,cs)
);
}
);
width = 448;
},
{
anchors = (
{
name = bottom;
pos = (140,-192);
},
{
name = top;
pos = (307,640);
}
);
background = {
shapes = (
{
closed = 1;
nodes = (
(342,-82,l),
(250,-81,o),
(219,-65,o),
(222,-2,c),
(178,2,l),
(173,-88,o),
(219,-128,o),
(334,-128,c)
);
},
{
closed = 1;
nodes = (
(304,-10,o),
(380,100,o),
(423,315,cs),
(468,539,o),
(432,650,o),
(306,650,cs),
(185,650,o),
(107,543,o),
(63,323,cs),
(19,104,o),
(57,-10,o),
(181,-10,cs)
);
},
{
closed = 1;
nodes = (
(92,34,o),
(74,119,o),
(113,315,cs),
(154,517,o),
(210,606,o),
(304,606,cs),
(394,606,o),
(412,521,o),
(373,323,cs),
(333,123,o),
(276,34,o),
(183,34,cs)
);
}
);
};
layerId = "C21910D5-47BB-472B-A83D-89B2B42B8F2A";
shapes = (
{
closed = 1;
nodes = (
(342,-82,l),
(251,-81,o),
(220,-66,o),
(222,-6,c),
(322,17,o),
(385,125,o),
(423,315,cs),
(468,539,o),
(432,650,o),
(306,650,cs),
(185,650,o),
(107,543,o),
(63,323,cs),
(19,105,o),
(57,-8,o),
(178,-10,c),
(177,-92,o),
(224,-128,o),
(334,-128,c)
);
},
{
closed = 1;
nodes = (
(92,34,o),
(74,119,o),
(113,315,cs),
(154,517,o),
(210,606,o),
(304,606,cs),
(394,606,o),
(412,521,o),
(373,323,cs),
(333,123,o),
(276,34,o),
(183,34,cs)
);
}
);
width = 448;
},
{
anchors = (
{
name = bottom;
pos = (140,-192);
},
{
name = top;
pos = (307,640);
}
);
background = {
shapes = (
{
closed = 1;
nodes = (
(352,-78,l),
(267,-72,o),
(233,-63,o),
(235,-3,c),
(162,3,l),
(158,-98,o),
(235,-137,o),
(334,-145,c)
);
},
{
closed = 1;
nodes = (
(309,-10,o),
(386,99,o),
(429,313,cs),
(474,538,o),
(436,650,o),
(304,650,cs),
(181,650,o),
(101,544,o),
(57,325,cs),
(13,105,o),
(54,-10,o),
(182,-10,cs)
);
},
{
closed = 1;
nodes = (
(107,56,o),
(93,125,o),
(131,313,cs),
(170,509,o),
(218,584,o),
(301,584,cs),
(380,584,o),
(393,515,o),
(355,325,cs),
(316,131,o),
(269,56,o),
(185,56,cs)
);
}
);
};
layerId = "BA106321-29DE-4FD0-898D-B7B08A4D4215";
shapes = (
{
closed = 1;
nodes = (
(352,-78,l),
(267,-72,o),
(233,-63,o),
(235,-3,c),
(330,24,o),
(392,130,o),
(429,313,cs),
(474,538,o),
(436,650,o),
(304,650,cs),
(181,650,o),
(101,544,o),
(57,325,cs),
(15,116,o),
(49,3,o),
(162,-9,c),
(164,-100,o),
(238,-137,o),
(334,-145,c)
);
},
{
closed = 1;
nodes = (
(107,56,o),
(93,125,o),
(131,313,cs),
(170,509,o),
(218,584,o),
(301,584,cs),
(380,584,o),
(393,515,o),
(355,325,cs),
(316,131,o),
(269,56,o),
(185,56,cs)
);
}
);
width = 448;
},
{
anchors = (
{
name = bottom;
pos = (140,-192);
},
{
name = top;
pos = (307,640);
}
);
background = {
shapes = (
{
closed = 1;
nodes = (
(361,-60,l),
(274,-58,o),
(232,-45,o),
(236,16,c),
(146,24,l),
(141,-91,o),
(204,-147,o),
(340,-152,c)
);
},
{
closed = 1;
nodes = (
(316,-10,o),
(396,98,o),
(438,310,cs),
(484,537,o),
(442,650,o),
(303,650,cs),
(174,650,o),
(91,545,o),
(48,328,cs),
(3,106,o),
(48,-10,o),
(184,-10,cs)
);
},
{
closed = 1;
nodes = (
(131,72,o),
(125,136,o),
(160,310,cs),
(197,496,o),
(237,568,o),
(299,568,cs),
(355,568,o),
(361,504,o),
(326,328,cs),
(289,144,o),
(249,72,o),
(187,72,cs)
);
}
);
};
layerId = "EBAB10B0-9FDE-44C7-9B16-DD2313400F4E";
shapes = (
{
closed = 1;
nodes = (
(361,-60,l),
(283,-58,o),
(243,-48,o),
(237,-4,c),
(338,22,o),
(402,128,o),
(438,310,cs),
(484,537,o),
(442,650,o),
(303,650,cs),
(174,650,o),
(91,545,o),
(48,328,cs),
(7,127,o),
(39,14,o),
(146,-7,c),
(153,-101,o),
(216,-147,o),
(340,-152,c)
);
},
{
closed = 1;
nodes = (
(131,72,o),
(125,136,o),
(160,310,cs),
(197,496,o),
(237,568,o),
(299,568,cs),
(355,568,o),
(361,504,o),
(326,328,cs),
(289,144,o),
(249,72,o),
(187,72,cs)
);
}
);
width = 448;
},
{
anchors = (
{
name = bottom;
pos = (224,0);
},
{
name = top;
pos = (224,640);
}
);
associatedMasterId = "95FB0C11-C828-4064-8966-34220AA4D426";
attr = {
coordinates = (
400,
-64,
0
);
};
background = {
shapes = (
{
closed = 1;
nodes = (
(415,-14,l),
(335,-13,o),
(304,-10,o),
(296,13,c),
(211,0,l),
(243,-70,o),
(302,-79,o),
(412,-81,c)
);
},
{
closed = 1;
nodes = (
(353,-10,o),
(411,102,o),
(411,319,cs),
(411,541,o),
(353,650,o),
(224,650,cs),
(98,650,o),
(37,541,o),
(37,319,cs),
(37,102,o),
(98,-10,o),
(224,-10,cs)
);
},
{
closed = 1;
nodes = (
(143,56,o),
(113,128,o),
(113,319,cs),
(113,512,o),
(143,584,o),
(224,584,cs),
(305,584,o),
(335,512,o),
(335,319,cs),
(335,128,o),
(305,56,o),
(224,56,cs)
);
}
);
};
layerId = "BDA2CBE2-3E64-406D-81E8-E5B2DE51A401";
name = "{400, 0, -64}";
shapes = (
{
closed = 1;
nodes = (
(415,-14,l),
(343,-13,o),
(311,-11,o),
(299,6,c),
(375,44,o),
(411,150,o),
(411,319,cs),
(411,541,o),
(353,650,o),
(224,650,cs),
(98,650,o),
(37,541,o),
(37,319,cs),
(37,107,o),
(95,-5,o),
(216,-10,c),
(249,-71,o),
(307,-79,o),
(412,-81,c)
);
},
{
closed = 1;
nodes = (
(143,56,o),
(113,128,o),
(113,319,cs),
(113,512,o),
(143,584,o),
(224,584,cs),
(305,584,o),
(335,512,o),
(335,319,cs),
(335,128,o),
(305,56,o),
(224,56,cs)
);
}
);
visible = 1;
width = 448;
},
{
anchors = (
{
name = bottom;
pos = (179,0);
},
{
name = top;
pos = (307,640);
}
);
associatedMasterId = "BA106321-29DE-4FD0-898D-B7B08A4D4215";
attr = {
coordinates = (
400,
-64,
1
);
};
background = {
shapes = (
{
closed = 1;
nodes = (
(365,-14,l),
(285,-13,o),
(256,-13,o),
(252,10,c),
(168,3,l),
(186,-67,o),
(244,-79,o),
(354,-81,c)
);
},
{
closed = 1;
nodes = (
(309,-10,o),
(386,99,o),
(429,313,cs),
(474,538,o),
(436,650,o),
(304,650,cs),
(181,650,o),
(101,544,o),
(57,325,cs),
(13,105,o),
(54,-10,o),
(182,-10,cs)
);
},
{
closed = 1;
nodes = (
(107,56,o),
(93,125,o),
(131,313,cs),
(170,509,o),
(218,584,o),
(301,584,cs),
(380,584,o),
(393,515,o),
(355,325,cs),
(316,131,o),
(269,56,o),
(185,56,cs)
);
}
);
};
layerId = "86B221DC-84BE-45AD-B1F2-DEF057376BF0";
name = "{400, 1, -64}";
shapes = (
{
closed = 1;
nodes = (
(365,-14,l),
(292,-13,o),
(262,-12,o),
(254,4,c),
(338,39,o),
(395,144,o),
(429,313,cs),
(474,538,o),
(436,650,o),
(304,650,cs),
(181,650,o),
(101,544,o),
(57,325,cs),
(14,110,o),
(51,-4,o),
(172,-10,c),
(194,-69,o),
(250,-79,o),
(354,-81,c)
);
},
{
closed = 1;
nodes = (
(107,56,o),
(93,125,o),
(131,313,cs),
(170,509,o),
(218,584,o),
(301,584,cs),
(380,584,o),
(393,515,o),
(355,325,cs),
(316,131,o),
(269,56,o),
(185,56,cs)
);
}
);
width = 448;
},
{
anchors = (
{
name = bottom;
pos = (224,-192);
},
{
name = top;
pos = (224,640);
}
);
associatedMasterId = "92967D72-867E-4A8B-929F-F44D834DD4C9";
attr = {
coordinates = (
700,
-64,
0
);
};
background = {
shapes = (
{
closed = 1;
nodes = (
(421,4,l),
(334,4,o),
(286,8,o),
(278,20,c),
(185,20,l),
(203,-52,o),
(275,-85,o),
(412,-88,c)
);
},
{
closed = 1;
nodes = (
(360,-10,o),
(421,102,o),
(421,319,cs),
(421,541,o),
(360,650,o),
(224,650,cs),
(92,650,o),
(27,541,o),
(27,319,cs),
(27,102,o),
(92,-10,o),
(224,-10,cs)
);
},
{
closed = 1;
nodes = (
(165,72,o),
(143,140,o),
(143,319,cs),
(143,500,o),
(165,568,o),
(224,568,cs),
(283,568,o),
(305,500,o),
(305,319,cs),
(305,140,o),
(283,72,o),
(224,72,cs)
);
}
);
};
layerId = "E3A55F72-A43E-4AE8-9B38-608E8BCE09BF";
name = "5. Mar 25 at 18:56";
shapes = (
{
closed = 1;
nodes = (
(417,4,l),
(368,4,o),
(332,5,o),
(309,9,c),
(385,49,o),
(421,154,o),
(421,319,cs),
(421,541,o),
(360,650,o),
(224,650,cs),
(92,650,o),
(27,541,o),
(27,319,cs),
(27,118,o),
(84,7,o),
(196,-8,c),
(225,-61,o),
(294,-85,o),
(412,-88,c)
);
},
{
closed = 1;
nodes = (
(165,72,o),
(143,140,o),
(143,319,cs),
(143,500,o),
(165,568,o),
(224,568,cs),
(283,568,o),
(305,500,o),
(305,319,cs),
(305,140,o),
(283,72,o),
(224,72,cs)
);
}
);
width = 448;
},
{
anchors = (
{
name = bottom;
pos = (224,-192);
},
{
name = top;
pos = (224,640);
}
);
associatedMasterId = "7DDCEF54-C770-4FAD-B154-EE8058BAA7E5";
attr = {
coordinates = (
200,
-64,
0
);
};
background = {
shapes = (
{
closed = 1;
nodes = (
(403,-18,l),
(313,-18,o),
(278,-14,o),
(268,0,c),
(220,0,l),
(233,-45,o),
(286,-64,o),
(401,-64,c)
);
},
{
closed = 1;
nodes = (
(349,-10,o),
(405,102,o),
(405,319,cs),
(405,541,o),
(349,650,o),
(224,650,cs),
(102,650,o),
(43,541,o),
(43,319,cs),
(43,102,o),
(102,-10,o),
(224,-10,cs)
);
},
{
closed = 1;
nodes = (
(132,34,o),
(95,121,o),
(95,319,cs),
(95,519,o),
(132,606,o),
(224,606,cs),
(316,606,o),
(353,519,o),
(353,319,cs),
(353,121,o),
(316,34,o),
(224,34,cs)
);
}
);
};
layerId = "661ACE4D-2A77-46C8-AD13-58496C398981";
name = "5. Mar 25 at 18:57";
shapes = (
{
closed = 1;
nodes = (
(401,-18,l),
(321,-18,o),
(284,-14,o),
(272,-4,c),
(363,22,o),
(405,132,o),
(405,319,cs),
(405,541,o),
(349,650,o),
(224,650,cs),
(102,650,o),
(43,541,o),
(43,319,cs),
(43,102,o),
(103,-10,o),
(224,-10,c),
(242,-48,o),
(295,-64,o),
(401,-64,c)
);
},
{
closed = 1;
nodes = (
(132,34,o),
(95,121,o),
(95,319,cs),
(95,519,o),
(132,606,o),
(224,606,cs),
(316,606,o),
(353,519,o),
(353,319,cs),
(353,121,o),
(316,34,o),
(224,34,cs)
);
}
);
width = 448;
},
{
anchors = (
{
name = bottom;
pos = (140,-192);
},
{
name = top;
pos = (307,640);
}
);
associatedMasterId = "C21910D5-47BB-472B-A83D-89B2B42B8F2A";
attr = {
coordinates = (
200,
-64,
1
);
};
background = {
shapes = (
{
closed = 1;
nodes = (
(353,-18,l),
(263,-18,o),
(229,-16,o),
(222,-2,c),
(176,2,l),
(180,-43,o),
(230,-64,o),
(345,-64,c)
);
},
{
closed = 1;
nodes = (
(304,-10,o),
(380,100,o),
(423,315,cs),
(468,539,o),
(432,650,o),
(306,650,cs),
(185,650,o),
(107,543,o),
(63,323,cs),
(19,104,o),
(57,-10,o),
(181,-10,cs)
);
},
{
closed = 1;
nodes = (
(92,34,o),
(74,119,o),
(113,315,cs),
(154,517,o),
(210,606,o),
(304,606,cs),
(394,606,o),
(412,521,o),
(373,323,cs),
(333,123,o),
(276,34,o),
(183,34,cs)
);
}
);
};
layerId = "C8B6C619-69CC-4F1F-9AB6-E89C063C73BE";
name = "5. Mar 25 at 18:59";
shapes = (
{
closed = 1;
nodes = (
(353,-18,l),
(270,-18,o),
(235,-17,o),
(224,-5,c),
(323,19,o),
(385,126,o),
(423,315,cs),
(468,539,o),
(432,650,o),
(306,650,cs),
(185,650,o),
(107,543,o),
(63,323,cs),
(19,105,o),
(56,-8,o),
(178,-10,c),
(190,-48,o),
(241,-64,o),
(345,-64,c)
);
},
{
closed = 1;
nodes = (
(92,34,o),
(74,119,o),
(113,315,cs),
(154,517,o),
(210,606,o),
(304,606,cs),
(394,606,o),
(412,521,o),
(373,323,cs),
(333,123,o),
(276,34,o),
(183,34,cs)
);
}
);
width = 448;
},
{
anchors = (
{
name = bottom;
pos = (140,-192);
},
{
name = top;
pos = (307,640);
}
);
associatedMasterId = "EBAB10B0-9FDE-44C7-9B16-DD2313400F4E";
attr = {
coordinates = (
700,
-64,
1
);
};
background = {
shapes = (
{
closed = 1;
nodes = (
(374,4,l),
(287,4,o),
(240,4,o),
(235,16,c),
(146,24,l),
(149,-48,o),
(216,-85,o),
(353,-88,c)
);
},
{
closed = 1;
nodes = (
(316,-10,o),
(396,98,o),
(438,310,cs),
(484,537,o),
(442,650,o),
(303,650,cs),
(174,650,o),
(91,545,o),
(48,328,cs),
(3,106,o),
(48,-10,o),
(184,-10,cs)
);
},
{
closed = 1;
nodes = (
(131,72,o),
(125,136,o),
(160,310,cs),
(197,496,o),
(237,568,o),
(299,568,cs),
(355,568,o),
(361,504,o),
(326,328,cs),
(289,144,o),
(249,72,o),
(187,72,cs)
);
}
);
};
layerId = "5BEE23C8-5075-4722-AA6F-F2917948C3B5";
name = "5. Mar 25 at 18:59";
shapes = (
{
closed = 1;
nodes = (
(374,4,l),
(325,4,o),
(287,4,o),
(265,6,c),
(349,43,o),
(405,145,o),
(438,310,cs),
(484,537,o),
(442,650,o),
(303,650,cs),
(174,650,o),
(91,545,o),
(48,328,cs),
(7,125,o),
(40,10,o),
(152,-8,c),
(172,-60,o),
(237,-85,o),
(353,-88,c)
);
},
{
closed = 1;
nodes = (
(131,72,o),
(125,136,o),
(160,310,cs),
(197,496,o),
(237,568,o),
(299,568,cs),
(355,568,o),
(361,504,o),
(326,328,cs),
(289,144,o),
(249,72,o),
(187,72,cs)
);
}
);
width = 448;
}
);
unicode = 81;
}
{
glyphname = Y;
kernLeft = Y;
kernRight = Y;
layers = (
{
anchors = (
{
name = bottom;
pos = (224,0);
},
{
name = top;
pos = (224,640);
}
);
background = {
anchors = (
{
name = bottom;
pos = (224,0);
},
{
name = top;
pos = (224,640);
}
);
hints = (
{
horizontal = 1;
origin = (1,3);
type = TTSnap;
},
{
horizontal = 1;
options = 4;
origin = (0,4);
target = (2,3);
type = TTShift;
},
{
horizontal = 1;
options = 8;
origin = (1,3);
other1 = (1,2);
target = (0,4);
type = TTInterpolate;
},
{
horizontal = 1;
options = 4;
origin = (1,2);
target = (0,7,2,3);
type = TTShift;
},
{
options = 8;
origin = (2,4);
type = TTSnap;
},
{
options = 8;
origin = (0,3);
type = TTSnap;
},
{
options = 4;
origin = (2,4);
target = (2,3);
type = TTStem;
},
{
options = 4;
origin = (0,3);
target = (0,4);
type = TTStem;
},
{
options = 8;
origin = (1,3);
type = TTSnap;
},
{
options = 4;
origin = (1,3);
target = (1,0);
type = TTStem;
},
{
options = 4;
origin = (1,3);
other1 = (0,7,2,3);
target = (1,0);
type = TTInterpolate;
}
);
shapes = (
{
closed = 1;
nodes = (
(260,202,l),
(342,312,o),
(391,449,o),
(412,640,c),
(340,640,l),
(318,456,o),
(282,348,o),
(192,202,c)
);
},
{
closed = 1;
nodes = (
(260,0,l),
(260,202,l),
(188,202,l),
(188,0,l)
);
},
{
closed = 1;
nodes = (
(256,202,l),
(166,348,o),
(130,456,o),
(108,640,c),
(36,640,l),
(57,449,o),
(106,312,o),
(188,202,c)
);
}
);
};
hints = (
{
horizontal = 1;
origin = (0,16);
type = TTSnap;
},
{
horizontal = 1;
options = 4;
origin = (0,5);
target = (0,11);
type = TTShift;
},
{
horizontal = 1;
options = 8;
origin = (0,16);
other1 = (0,15);
target = (0,5);
type = TTInterpolate;
},
{
horizontal = 1;
options = 4;
origin = (0,15);
target = (0,8);
type = TTShift;
},
{
options = 8;
origin = (0,12);
type = TTSnap;
},
{
options = 8;
origin = (0,4);
type = TTSnap;
},
{
options = 4;
origin = (0,12);
target = (0,11);
type = TTStem;
},
{
options = 4;
origin = (0,4);
target = (0,5);
type = TTStem;
},
{
options = 8;
origin = (0,16);
type = TTSnap;
},
{
options = 4;
origin = (0,16);
target = (0,0);
type = TTStem;
},
{
options = 4;
origin = (0,16);
other1 = (0,8);
target = (0,0);
type = TTInterpolate;
}
);
layerId = "95FB0C11-C828-4064-8966-34220AA4D426";
shapes = (
{
closed = 1;
nodes = (
(260,0,l),
(260,202,l),
(342,312,o),
(391,449,o),
(412,640,c),
(340,640,l),
(321,480,o),
(293,376,o),
(226,256,c),
(159,376,o),
(127,480,o),
(108,640,c),
(36,640,l),
(57,449,o),
(106,312,o),
(188,202,c),
(188,0,l)
);
}
);
width = 448;
},
{
anchors = (
{
name = bottom;
pos = (224,0);
},
{
name = top;
pos = (224,640);
}
);
background = {
anchors = (
{
name = bottom;
pos = (224,0);
},
{
name = top;
pos = (224,640);
}
);
shapes = (
{
closed = 1;
nodes = (
(280,202,l),
(357,312,o),
(402,449,o),
(422,640,c),
(310,640,l),
(301,449,o),
(271,358,o),
(185,202,c)
);
},
{
closed = 1;
nodes = (
(280,0,l),
(280,202,l),
(168,202,l),
(168,0,l)
);
},
{
closed = 1;
nodes = (
(263,202,l),
(177,358,o),
(147,449,o),
(138,640,c),
(26,640,l),
(46,449,o),
(91,312,o),
(168,202,c)
);
}
);
};
layerId = "92967D72-867E-4A8B-929F-F44D834DD4C9";
shapes = (
{
closed = 1;
nodes = (
(280,0,l),
(280,202,l),
(357,312,o),
(402,449,o),
(422,640,c),
(310,640,l),
(303,482,o),
(282,392,o),
(226,276,c),
(170,392,o),
(147,482,o),
(138,640,c),
(26,640,l),
(46,449,o),
(91,312,o),
(168,202,c),
(168,0,l)
);
}
);
width = 448;
},
{
anchors = (
{
name = bottom;
pos = (224,0);
},
{
name = top;
pos = (224,640);
}
);
background = {
anchors = (
{
name = bottom;
pos = (224,0);
},
{
name = top;
pos = (224,640);
}
);
shapes = (
{
closed = 1;
nodes = (
(248,202,l),
(333,312,o),
(384,449,o),
(406,640,c),
(358,640,l),
(335,458,o),
(292,335,o),
(205,202,c)
);
},
{
closed = 1;
nodes = (
(248,0,l),
(248,202,l),
(200,202,l),
(200,0,l)
);
},
{
closed = 1;
nodes = (
(243,202,l),
(156,335,o),
(113,458,o),
(90,640,c),
(42,640,l),
(64,449,o),
(115,312,o),
(200,202,c)
);
}
);
};
layerId = "7DDCEF54-C770-4FAD-B154-EE8058BAA7E5";
shapes = (
{
closed = 1;
nodes = (
(248,0,l),
(248,202,l),
(333,312,o),
(384,449,o),
(406,640,c),
(358,640,l),
(337,473,o),
(300,355,o),
(225,232,c),
(150,355,o),
(111,473,o),
(90,640,c),
(42,640,l),
(64,449,o),
(115,312,o),
(200,202,c),
(200,0,l)
);
}
);
width = 448;
},
{
anchors = (
{
name = bottom;
pos = (179,0);
},
{
name = top;
pos = (307,640);
}
);
background = {
anchors = (
{
name = bottom;
pos = (179,0);
},
{
name = top;
pos = (307,640);
}
);
shapes = (
{
closed = 1;
nodes = (
(244,202,l),
(351,312,o),
(430,448,o),
(490,640,c),
(440,640,l),
(380,458,o),
(313,335,o),
(198,202,c)
);
},
{
closed = 1;
nodes = (
(203,0,l),
(244,202,l),
(196,202,l),
(155,0,l)
);
},
{
closed = 1;
nodes = (
(237,200,l),
(177,334,o),
(159,457,o),
(173,640,c),
(126,640,l),
(110,449,o),
(134,312,o),
(196,202,c)
);
}
);
};
layerId = "C21910D5-47BB-472B-A83D-89B2B42B8F2A";
shapes = (
{
closed = 1;
nodes = (
(203,0,l),
(244,202,l),
(351,312,o),
(430,448,o),
(490,640,c),
(440,640,l),
(385,473,o),
(324,354,o),
(224,232,c),
(175,354,o),
(160,471,o),
(173,640,c),
(126,640,l),
(110,449,o),
(134,312,o),
(196,202,c),
(155,0,l)
);
}
);
width = 448;
},
{
anchors = (
{
name = bottom;
pos = (179,0);
},
{
name = top;
pos = (307,640);
}
);
background = {
anchors = (
{
name = bottom;
pos = (179,0);
},
{
name = top;
pos = (307,640);
}
);
shapes = (
{
closed = 1;
nodes = (
(256,202,l),
(361,312,o),
(437,449,o),
(496,640,c),
(422,640,l),
(364,456,o),
(304,348,o),
(186,202,c)
);
},
{
closed = 1;
nodes = (
(215,0,l),
(256,202,l),
(184,202,l),
(143,0,l)
);
},
{
closed = 1;
nodes = (
(250,200,l),
(189,347,o),
(176,455,o),
(190,640,c),
(120,640,l),
(104,449,o),
(126,312,o),
(184,202,c)
);
}
);
};
layerId = "BA106321-29DE-4FD0-898D-B7B08A4D4215";
shapes = (
{
closed = 1;
nodes = (
(215,0,l),
(256,202,l),
(361,312,o),
(437,449,o),
(496,640,c),
(422,640,l),
(371,479,o),
(321,377,o),
(230,256,c),
(188,376,o),
(178,480,o),
(190,640,c),
(120,640,l),
(104,449,o),
(126,312,o),
(184,202,c),
(143,0,l)
);
}
);
width = 448;
},
{
anchors = (
{
name = bottom;
pos = (179,0);
},
{
name = top;
pos = (307,640);
}
);
background = {
anchors = (
{
name = bottom;
pos = (179,0);
},
{
name = top;
pos = (307,640);
}
);
shapes = (
{
closed = 1;
nodes = (
(276,202,l),
(376,312,o),
(447,449,o),
(506,640,c),
(393,640,l),
(345,449,o),
(294,358,o),
(177,202,c)
);
},
{
closed = 1;
nodes = (
(235,0,l),
(276,202,l),
(164,202,l),
(123,0,l)
);
},
{
closed = 1;
nodes = (
(256,198,l),
(204,355,o),
(193,447,o),
(221,640,c),
(110,640,l),
(93,449,o),
(111,312,o),
(164,202,c)
);
}
);
};
layerId = "EBAB10B0-9FDE-44C7-9B16-DD2313400F4E";
shapes = (
{
closed = 1;
nodes = (
(235,0,l),
(276,202,l),
(376,312,o),
(447,449,o),
(506,640,c),
(393,640,l),
(353,481,o),
(312,392,o),
(234,278,c),
(202,391,o),
(198,481,o),
(221,640,c),
(110,640,l),
(93,449,o),
(111,312,o),
(164,202,c),
(123,0,l)
);
}
);
width = 448;
}
);
unicode = 89;
}
{
glyphname = Z;
kernLeft = Z;
kernRight = Z;
layers = (
{
anchors = (
{
name = "#center";
pos = (224,320);
},
{
name = bottom;
pos = (224,0);
},
{
name = top;
pos = (224,640);
}
);
background = {
anchors = (
{
name = bottom;
pos = (224,0);
},
{
name = center;
pos = (224,320);
},
{
name = top;
pos = (224,640);
}
);
hints = (
{
options = 8;
origin = (0,11);
type = TTSnap;
},
{
options = 8;
origin = (0,0);
type = TTSnap;
},
{
options = 4;
origin = (0,0);
target = (0,5);
type = TTShift;
},
{
options = 4;
origin = (0,11);
target = (0,6);
type = TTShift;
},
{
horizontal = 1;
options = 4;
origin = (0,6);
target = (0,7);
type = TTStem;
},
{
horizontal = 1;
options = 4;
origin = (0,0);
target = (0,1);
type = TTStem;
},
{
horizontal = 1;
options = 4;
origin = (0,1);
other1 = (0,10);
target = (0,0);
type = TTInterpolate;
},
{
horizontal = 1;
options = 4;
origin = (0,6);
other1 = (0,4);
target = (0,7);
type = TTInterpolate;
},
{
horizontal = 1;
options = 4;
origin = (0,4);
target = (0,9);
type = TTShift;
},
{
horizontal = 1;
options = 4;
origin = (0,10);
target = (0,3);
type = TTShift;
}
);
shapes = (
{
closed = 1;
nodes = (
(388,0,l),
(388,64,l),
(91,64,l),
(133,52,l),
(388,588,l),
(388,640,l),
(67,640,l),
(67,576,l),
(352,576,l),
(310,588,l),
(55,52,l),
(55,0,l)
);
}
);
};
hints = (
{
options = 8;
origin = (0,9);
type = TTSnap;
},
{
options = 8;
origin = (0,0);
type = TTSnap;
},
{
options = 4;
origin = (0,0);
target = (0,4);
type = TTShift;
},
{
options = 4;
origin = (0,9);
target = (0,5);
type = TTShift;
},
{
horizontal = 1;
options = 4;
origin = (0,5);
target = (0,6);
type = TTStem;
},
{
horizontal = 1;
options = 4;
origin = (0,0);
target = (0,1);
type = TTStem;
},
{
horizontal = 1;
options = 4;
origin = (0,1);
other1 = (0,8);
target = (0,0);
type = TTInterpolate;
},
{
horizontal = 1;
options = 4;
origin = (0,5);
other1 = (0,3);
target = (0,6);
type = TTInterpolate;
},
{
horizontal = 1;
options = 4;
origin = (0,3);
target = (0,3);
type = TTShift;
},
{
horizontal = 1;
options = 4;
origin = (0,8);
target = (0,8);
type = TTShift;
}
);
layerId = "95FB0C11-C828-4064-8966-34220AA4D426";
shapes = (
{
closed = 1;
nodes = (
(388,0,l),
(388,64,l),
(139,64,l),
(388,588,l),
(388,640,l),
(67,640,l),
(67,576,l),
(304,576,l),
(55,52,l),
(55,0,l)
);
}
);
width = 448;
},
{
anchors = (
{
name = "#center";
pos = (224,320);
},
{
name = bottom;
pos = (224,0);
},
{
name = top;
pos = (224,640);
}
);
background = {
anchors = (
{
name = bottom;
pos = (224,0);
},
{
name = center;
pos = (224,320);
},
{
name = top;
pos = (224,640);
}
);
shapes = (
{
closed = 1;
nodes = (
(398,0,l),
(398,80,l),
(91,80,l),
(163,60,l),
(398,580,l),
(398,640,l),
(57,640,l),
(57,560,l),
(352,560,l),
(280,580,l),
(45,60,l),
(45,0,l)
);
}
);
};
layerId = "92967D72-867E-4A8B-929F-F44D834DD4C9";
shapes = (
{
closed = 1;
nodes = (
(398,0,l),
(398,80,l),
(172,80,l),
(398,580,l),
(398,640,l),
(57,640,l),
(57,560,l),
(271,560,l),
(45,60,l),
(45,0,l)
);
}
);
width = 448;
},
{
anchors = (
{
name = "#center";
pos = (224,320);
},
{
name = bottom;
pos = (224,0);
},
{
name = top;
pos = (224,640);
}
);
background = {
anchors = (
{
name = bottom;
pos = (224,0);
},
{
name = center;
pos = (224,320);
},
{
name = top;
pos = (224,640);
}
);
shapes = (
{
closed = 1;
nodes = (
(382,0,l),
(382,44,l),
(91,44,l),
(114,37,l),
(382,603,l),
(382,640,l),
(73,640,l),
(73,596,l),
(352,596,l),
(329,603,l),
(61,37,l),
(61,0,l)
);
}
);
};
layerId = "7DDCEF54-C770-4FAD-B154-EE8058BAA7E5";
shapes = (
{
closed = 1;
nodes = (
(382,0,l),
(382,44,l),
(117,44,l),
(382,603,l),
(382,640,l),
(73,640,l),
(73,596,l),
(326,596,l),
(61,37,l),
(61,0,l)
);
}
);
width = 448;
},
{
anchors = (
{
name = "#center";
pos = (243,320);
},
{
name = bottom;
pos = (179,0);
},
{
name = top;
pos = (307,640);
}
);
background = {
anchors = (
{
name = bottom;
pos = (179,0);
},
{
name = center;
pos = (243,320);
},
{
name = top;
pos = (307,640);
}
);
shapes = (
{
closed = 1;
nodes = (
(337,0,l),
(346,44,l),
(55,44,l),
(80,37,l),
(458,603,l),
(465,640,l),
(156,640,l),
(147,596,l),
(426,596,l),
(401,603,l),
(23,37,l),
(16,0,l)
);
}
);
};
layerId = "C21910D5-47BB-472B-A83D-89B2B42B8F2A";
shapes = (
{
closed = 1;
nodes = (
(337,0,l),
(346,44,l),
(85,44,l),
(458,603,l),
(465,640,l),
(156,640,l),
(147,596,l),
(396,596,l),
(23,37,l),
(16,0,l)
);
}
);
width = 448;
},
{
anchors = (
{
name = "#center";
pos = (243,320);
},
{
name = bottom;
pos = (179,0);
},
{
name = top;
pos = (307,640);
}
);
background = {
anchors = (
{
name = bottom;
pos = (179,0);
},
{
name = center;
pos = (243,320);
},
{
name = top;
pos = (307,640);
}
);
shapes = (
{
closed = 1;
nodes = (
(343,0,l),
(356,64,l),
(59,64,l),
(103,52,l),
(462,588,l),
(471,640,l),
(150,640,l),
(137,576,l),
(423,576,l),
(379,588,l),
(20,52,l),
(10,0,l)
);
}
);
};
layerId = "BA106321-29DE-4FD0-898D-B7B08A4D4215";
shapes = (
{
closed = 1;
nodes = (
(343,0,l),
(356,64,l),
(111,64,l),
(462,588,l),
(471,640,l),
(150,640,l),
(137,576,l),
(371,576,l),
(20,52,l),
(10,0,l)
);
}
);
width = 448;
},
{
anchors = (
{
name = "#center";
pos = (243,320);
},
{
name = bottom;
pos = (179,0);
},
{
name = top;
pos = (307,640);
}
);
background = {
anchors = (
{
name = bottom;
pos = (179,0);
},
{
name = center;
pos = (243,320);
},
{
name = top;
pos = (307,640);
}
);
shapes = (
{
closed = 1;
nodes = (
(353,0,l),
(369,80,l),
(62,80,l),
(138,60,l),
(470,580,l),
(481,640,l),
(140,640,l),
(124,560,l),
(420,560,l),
(343,580,l),
(11,60,l),
(0,0,l)
);
}
);
};
layerId = "EBAB10B0-9FDE-44C7-9B16-DD2313400F4E";
shapes = (
{
closed = 1;
nodes = (
(353,0,l),
(369,80,l),
(151,80,l),
(470,580,l),
(481,640,l),
(140,640,l),
(124,560,l),
(330,560,l),
(11,60,l),
(0,0,l)
);
}
);
width = 448;
}
);
unicode = 90;
}
{
glyphname = grave;
layers = (
{
hints = (
{
horizontal = 1;
origin = (0,0);
type = TTSnap;
},
{
horizontal = 1;
origin = (0,2);
type = TTSnap;
}
);
layerId = "95FB0C11-C828-4064-8966-34220AA4D426";
shapes = (
{
closed = 1;
nodes = (
(234,640,l),
(135,640,l),
(226,384,l),
(298,384,l)
);
}
);
width = 448;
},
{
layerId = "92967D72-867E-4A8B-929F-F44D834DD4C9";
shapes = (
{
closed = 1;
nodes = (
(253,640,l),
(116,640,l),
(208,384,l),
(318,384,l)
);
}
);
width = 448;
},
{
layerId = "7DDCEF54-C770-4FAD-B154-EE8058BAA7E5";
shapes = (
{
closed = 1;
nodes = (
(224,640,l),
(145,640,l),
(236,384,l),
(288,384,l)
);
}
);
width = 448;
},
{
layerId = "C21910D5-47BB-472B-A83D-89B2B42B8F2A";
shapes = (
{
closed = 1;
nodes = (
(307,640,l),
(229,640,l),
(269,384,l),
(320,384,l)
);
}
);
width = 448;
},
{
layerId = "BA106321-29DE-4FD0-898D-B7B08A4D4215";
shapes = (
{
closed = 1;
nodes = (
(317,640,l),
(219,640,l),
(259,384,l),
(329,384,l)
);
}
);
width = 448;
},
{
layerId = "EBAB10B0-9FDE-44C7-9B16-DD2313400F4E";
shapes = (
{
closed = 1;
nodes = (
(335,640,l),
(200,640,l),
(241,384,l),
(349,384,l)
);
}
);
width = 448;
}
);
unicode = 96;
}
{
color = 0;
glyphname = g;
kernLeft = g;
kernRight = g;
layers = (
{
anchors = (
{
name = "#center";
pos = (320,224);
},
{
name = bottom;
pos = (224,-192);
},
{
name = top;
pos = (224,448);
}
);
background = {
anchors = (
{
name = "#center";
pos = (320,224);
},
{
name = bottom;
pos = (224,-192);
},
{
name = top;
pos = (224,448);
}
);
hints = (
{
horizontal = 1;
place = (0,0);
type = TTSnap;
},
{
horizontal = 1;
options = 4;
place = (0,-132);
target = (0,11);
type = TTStem;
},
{
options = 8;
place = (0,0);
type = TTSnap;
},
{
options = 4;
place = (0,316);
target = (0,8,1,21);
type = TTStem;
},
{
options = 4;
place = (0,316);
target = (0,8,1,8);
type = TTShift;
},
{
horizontal = 1;
options = 4;
place = (0,392);
target = (1,18);
type = TTStem;
},
{
horizontal = 1;
options = 4;
place = (0,56);
target = (1,12);
type = TTStem;
},
{
horizontal = 1;
place = (0,0);
stem = -1;
type = TTSnap;
},
{
options = 8;
place = (0,0);
type = TTSnap;
},
{
options = 4;
place = (0,124);
target = (1,15);
type = TTStem;
},
{
place = (0,102);
target = (0,15);
type = TTShift;
},
{
options = 4;
place = (0,324);
target = (0,6,1,25);
type = TTShift;
}
);
shapes = (
{
closed = 1;
nodes = (
(319,-196,o),
(388,-154,o),
(388,-36,cs),
(388,384,l),
(390,448,l),
(329,448,l),
(320,383,l),
(316,367,l),
(316,-49,ls),
(316,-105,o),
(298,-132,o),
(222,-132,cs),
(189,-132,o),
(151,-131,o),
(112,-123,c),
(102,-181,l),
(142,-191,o),
(183,-196,o),
(223,-196,cs)
);
},
{
closed = 1;
nodes = (
(108,456,o),
(46,370,o),
(46,224,cs),
(46,79,o),
(108,-8,o),
(212,-8,cs),
(274,-8,o),
(329,20,o),
(358,88,c),
(323,109,l),
(300,70,o),
(263,56,o),
(221,56,cs),
(149,56,o),
(124,99,o),
(124,224,cs),
(124,347,o),
(150,392,o),
(221,392,cs),
(262,392,o),
(299,378,o),
(322,341,c),
(357,364,l),
(327,429,o),
(274,456,o),
(213,456,cs)
);
}
);
};
hints = (
{
horizontal = 1;
origin = (0,4);
type = TTSnap;
},
{
horizontal = 1;
options = 4;
origin = (0,29);
target = (0,22);
type = TTStem;
},
{
options = 8;
origin = (0,3);
type = TTSnap;
},
{
options = 4;
origin = (0,3);
target = (1,8);
type = TTStem;
},
{
options = 4;
origin = (1,8);
target = (0,18);
type = TTShift;
},
{
horizontal = 1;
options = 4;
origin = (0,9);
target = (1,5);
type = TTStem;
},
{
horizontal = 1;
options = 4;
origin = (0,15);
target = (1,12);
type = TTStem;
},
{
horizontal = 1;
origin = (0,15);
stem = -1;
type = TTSnap;
},
{
options = 8;
origin = (0,12);
type = TTSnap;
},
{
options = 4;
origin = (0,12);
target = (1,2);
type = TTStem;
},
{
origin = (0,12);
target = (0,26);
type = TTShift;
},
{
options = 4;
origin = (1,8);
target = (0,6);
type = TTShift;
}
);
layerId = "95FB0C11-C828-4064-8966-34220AA4D426";
shapes = (
{
closed = 1;
nodes = (
(319,-196,o),
(388,-154,o),
(388,-36,cs),
(388,384,l),
(390,448,l),
(329,448,l),
(324,413,l),
(295,442,o),
(256,456,o),
(213,456,cs),
(108,456,o),
(46,370,o),
(46,224,cs),
(46,79,o),
(108,-8,o),
(212,-8,cs),
(251,-8,o),
(287,3,o),
(316,28,c),
(316,-49,ls),
(316,-105,o),
(298,-132,o),
(222,-132,cs),
(189,-132,o),
(151,-131,o),
(112,-123,c),
(102,-181,l),
(142,-191,o),
(183,-196,o),
(223,-196,cs)
);
},
{
closed = 1;
nodes = (
(149,56,o),
(124,99,o),
(124,224,cs),
(124,347,o),
(150,392,o),
(221,392,cs),
(259,392,o),
(293,380,o),
(316,350,c),
(316,98,l),
(293,67,o),
(259,56,o),
(221,56,cs)
);
}
);
width = 448;
},
{
anchors = (
{
name = "#center";
pos = (320,224);
},
{
name = bottom;
pos = (224,-192);
},
{
name = top;
pos = (224,448);
}
);
background = {
anchors = (
{
name = "#center";
pos = (320,224);
},
{
name = bottom;
pos = (224,-192);
},
{
name = top;
pos = (224,448);
}
);
shapes = (
{
closed = 1;
nodes = (
(324,-196,o),
(397,-154,o),
(397,-36,cs),
(397,384,l),
(399,448,l),
(311,448,l),
(295,356,l),
(285,356,l),
(285,-49,ls),
(285,-94,o),
(269,-116,o),
(199,-116,cs),
(171,-116,o),
(128,-111,o),
(89,-105,c),
(78,-179,l),
(123,-189,o),
(179,-196,o),
(219,-196,cs)
);
},
{
closed = 1;
nodes = (
(93,456,o),
(34,373,o),
(34,224,cs),
(34,75,o),
(92,-8,o),
(198,-8,cs),
(260,-8,o),
(306,20,o),
(335,88,c),
(289,112,l),
(271,84,o),
(247,74,o),
(218,74,cs),
(170,74,o),
(152,117,o),
(152,224,cs),
(152,336,o),
(169,374,o),
(218,374,cs),
(247,374,o),
(270,364,o),
(288,336,c),
(338,364,l),
(308,429,o),
(260,456,o),
(199,456,cs)
);
}
);
};
layerId = "92967D72-867E-4A8B-929F-F44D834DD4C9";
shapes = (
{
closed = 1;
nodes = (
(324,-196,o),
(397,-154,o),
(397,-36,cs),
(397,384,l),
(399,448,l),
(311,448,l),
(305,414,l),
(277,443,o),
(241,456,o),
(199,456,cs),
(93,456,o),
(34,373,o),
(34,224,cs),
(34,75,o),
(92,-8,o),
(198,-8,cs),
(232,-8,o),
(260,0,o),
(285,19,c),
(285,-49,ls),
(285,-94,o),
(269,-116,o),
(199,-116,cs),
(171,-116,o),
(128,-111,o),
(89,-105,c),
(78,-179,l),
(123,-189,o),
(179,-196,o),
(219,-196,cs)
);
},
{
closed = 1;
nodes = (
(170,74,o),
(152,117,o),
(152,224,cs),
(152,336,o),
(169,374,o),
(218,374,cs),
(245,374,o),
(268,364,o),
(285,340,c),
(285,106,l),
(268,83,o),
(245,74,o),
(218,74,cs)
);
}
);
width = 448;
},
{
anchors = (
{
name = "#center";
pos = (320,224);
},
{
name = bottom;
pos = (224,-192);
},
{
name = top;
pos = (224,448);
}
);
background = {
anchors = (
{
name = "#center";
pos = (320,224);
},
{
name = bottom;
pos = (224,-192);
},
{
name = top;
pos = (224,448);
}
);
shapes = (
{
closed = 1;
nodes = (
(323,-196,o),
(382,-151,o),
(382,-49,cs),
(382,384,l),
(384,448,l),
(339,448,l),
(334,399,l),
(334,374,l),
(334,-46,ls),
(334,-123,o),
(305,-154,o),
(220,-154,cs),
(189,-154,o),
(153,-149,o),
(120,-142,c),
(116,-182,l),
(153,-192,o),
(185,-196,o),
(225,-196,cs)
);
},
{
closed = 1;
nodes = (
(113,456,o),
(54,373,o),
(54,224,cs),
(54,76,o),
(114,-8,o),
(220,-8,cs),
(284,-8,o),
(322,20,o),
(361,60,c),
(342,83,l),
(308,53,o),
(273,34,o),
(222,34,cs),
(143,34,o),
(106,95,o),
(106,224,cs),
(106,357,o),
(141,414,o),
(221,414,cs),
(272,414,o),
(308,395,o),
(342,365,c),
(361,388,l),
(322,428,o),
(283,456,o),
(219,456,cs)
);
}
);
};
layerId = "7DDCEF54-C770-4FAD-B154-EE8058BAA7E5";
shapes = (
{
closed = 1;
nodes = (
(323,-196,o),
(382,-151,o),
(382,-49,cs),
(382,384,l),
(384,448,l),
(339,448,l),
(335,412,l),
(303,439,o),
(269,456,o),
(219,456,cs),
(113,456,o),
(54,373,o),
(54,224,cs),
(54,76,o),
(114,-8,o),
(220,-8,cs),
(269,-8,o),
(303,9,o),
(334,35,c),
(334,-46,ls),
(334,-123,o),
(305,-154,o),
(220,-154,cs),
(189,-154,o),
(153,-149,o),
(120,-142,c),
(116,-182,l),
(153,-192,o),
(185,-196,o),
(225,-196,cs)
);
},
{
closed = 1;
nodes = (
(143,34,o),
(106,95,o),
(106,224,cs),
(106,357,o),
(141,414,o),
(221,414,cs),
(268,414,o),
(302,398,o),
(334,372,c),
(334,76,l),
(302,50,o),
(269,34,o),
(222,34,cs)
);
}
);
width = 448;
},
{
anchors = (
{
name = "#center";
pos = (320,224);
},
{
name = bottom;
pos = (141,-192);
},
{
name = top;
pos = (269,448);
}
);
background = {
shapes = (
{
closed = 1;
nodes = (
(241,-196,o),
(307,-153,o),
(327,-51,cs),
(414,384,l),
(429,448,l),
(385,448,l),
(370,399,l),
(364,374,l),
(280,-46,ls),
(265,-123,o),
(229,-154,o),
(141,-154,cs),
(112,-154,o),
(77,-149,o),
(45,-142,c),
(36,-182,l),
(72,-192,o),
(103,-196,o),
(144,-196,cs)
);
},
{
closed = 1;
nodes = (
(157,456,o),
(84,376,o),
(55,230,cs),
(24,76,o),
(68,-8,o),
(173,-8,cs),
(239,-8,o),
(282,19,o),
(329,59,c),
(313,84,l),
(273,54,o),
(233,34,o),
(182,34,cs),
(105,34,o),
(79,90,o),
(105,218,cs),
(132,355,o),
(184,414,o),
(263,414,cs),
(312,414,o),
(344,396,o),
(372,366,c),
(392,387,l),
(361,427,o),
(328,456,o),
(261,456,cs)
);
}
);
};
layerId = "C21910D5-47BB-472B-A83D-89B2B42B8F2A";
shapes = (
{
closed = 1;
nodes = (
(241,-196,o),
(307,-153,o),
(327,-51,cs),
(414,384,l),
(429,448,l),
(385,448,l),
(373,409,l),
(346,438,o),
(315,456,o),
(261,456,cs),
(157,456,o),
(84,376,o),
(55,230,cs),
(24,76,o),
(68,-8,o),
(173,-8,cs),
(223,-8,o),
(261,8,o),
(296,33,c),
(280,-46,ls),
(265,-123,o),
(229,-154,o),
(141,-154,cs),
(112,-154,o),
(77,-149,o),
(45,-142,c),
(36,-182,l),
(72,-192,o),
(103,-196,o),
(144,-196,cs)
);
},
{
closed = 1;
nodes = (
(105,34,o),
(79,90,o),
(105,218,cs),
(132,355,o),
(184,414,o),
(263,414,cs),
(307,414,o),
(338,399,o),
(364,374,c),
(305,78,l),
(267,51,o),
(230,34,o),
(182,34,cs)
);
}
);
width = 448;
},
{
anchors = (
{
name = "#center";
pos = (320,224);
},
{
name = bottom;
pos = (141,-192);
},
{
name = top;
pos = (269,448);
}
);
background = {
shapes = (
{
closed = 1;
nodes = (
(238,-196,o),
(311,-157,o),
(335,-39,cs),
(420,384,l),
(435,448,l),
(373,448,l),
(351,383,l),
(344,367,l),
(262,-46,ls),
(251,-102,o),
(224,-132,o),
(146,-132,cs),
(115,-132,o),
(77,-132,o),
(40,-124,c),
(23,-180,l),
(62,-190,o),
(102,-196,o),
(144,-196,cs)
);
},
{
closed = 1;
nodes = (
(150,456,o),
(78,377,o),
(49,235,cs),
(19,84,o),
(71,-8,o),
(174,-8,cs),
(230,-8,o),
(289,17,o),
(331,85,c),
(299,111,l),
(268,72,o),
(227,56,o),
(191,56,cs),
(123,56,o),
(99,100,o),
(122,218,cs),
(148,348,o),
(184,392,o),
(261,392,cs),
(298,392,o),
(332,380,o),
(347,343,c),
(383,361,l),
(366,426,o),
(318,456,o),
(257,456,cs)
);
}
);
};
layerId = "BA106321-29DE-4FD0-898D-B7B08A4D4215";
shapes = (
{
closed = 1;
nodes = (
(238,-196,o),
(311,-157,o),
(335,-39,cs),
(420,384,l),
(435,448,l),
(373,448,l),
(360,410,l),
(336,442,o),
(300,456,o),
(257,456,cs),
(150,456,o),
(78,377,o),
(49,235,cs),
(19,84,o),
(71,-8,o),
(174,-8,cs),
(208,-8,o),
(243,1,o),
(276,25,c),
(262,-46,ls),
(251,-102,o),
(224,-132,o),
(146,-132,cs),
(115,-132,o),
(77,-132,o),
(40,-124,c),
(23,-180,l),
(62,-190,o),
(102,-196,o),
(144,-196,cs)
);
},
{
closed = 1;
nodes = (
(123,56,o),
(99,100,o),
(122,218,cs),
(148,348,o),
(184,392,o),
(261,392,cs),
(294,392,o),
(324,383,o),
(341,354,c),
(291,102,l),
(261,69,o),
(224,56,o),
(191,56,cs)
);
}
);
width = 448;
},
{
anchors = (
{
name = "#center";
pos = (320,224);
},
{
name = bottom;
pos = (141,-192);
},
{
name = top;
pos = (269,448);
}
);
background = {
shapes = (
{
closed = 1;
nodes = (
(243,-196,o),
(321,-158,o),
(345,-40,cs),
(430,384,l),
(445,448,l),
(356,448,l),
(322,356,l),
(312,356,l),
(232,-45,ls),
(223,-90,o),
(198,-116,o),
(125,-116,cs),
(100,-116,o),
(58,-112,o),
(20,-106,c),
(0,-178,l),
(44,-188,o),
(98,-196,o),
(141,-196,cs)
);
},
{
closed = 1;
nodes = (
(136,456,o),
(65,377,o),
(36,232,cs),
(5,78,o),
(54,-8,o),
(159,-8,cs),
(217,-8,o),
(266,16,o),
(308,84,c),
(266,116,l),
(242,88,o),
(214,74,o),
(188,74,cs),
(146,74,o),
(129,112,o),
(150,216,cs),
(173,329,o),
(203,374,o),
(255,374,cs),
(280,374,o),
(300,368,o),
(313,340,c),
(364,360,l),
(347,425,o),
(303,456,o),
(238,456,cs)
);
}
);
};
layerId = "EBAB10B0-9FDE-44C7-9B16-DD2313400F4E";
shapes = (
{
closed = 1;
nodes = (
(243,-196,o),
(321,-158,o),
(345,-40,cs),
(430,384,l),
(445,448,l),
(356,448,l),
(342,409,l),
(319,441,o),
(284,456,o),
(238,456,cs),
(136,456,o),
(65,377,o),
(36,232,cs),
(5,78,o),
(54,-8,o),
(159,-8,cs),
(190,-8,o),
(217,-2,o),
(244,15,c),
(232,-45,ls),
(223,-90,o),
(198,-116,o),
(125,-116,cs),
(100,-116,o),
(58,-112,o),
(20,-106,c),
(0,-178,l),
(44,-188,o),
(98,-196,o),
(141,-196,cs)
);
},
{
closed = 1;
nodes = (
(146,74,o),
(129,112,o),
(150,216,cs),
(173,329,o),
(203,374,o),
(255,374,cs),
(278,374,o),
(297,369,o),
(310,346,c),
(264,113,l),
(240,86,o),
(213,74,o),
(188,74,cs)
);
}
);
width = 448;
},
{
anchors = (
{
name = "#center";
pos = (320,275);
},
{
name = bottom;
pos = (224,-64);
},
{
name = top;
pos = (224,448);
}
);
associatedMasterId = "95FB0C11-C828-4064-8966-34220AA4D426";
attr = {
coordinates = (
400,
-77,
0
);
};
background = {
anchors = (
{
name = "#center";
pos = (320,275);
},
{
name = bottom;
pos = (224,-64);
},
{
name = top;
pos = (224,448);
}
);
shapes = (
{
closed = 1;
nodes = (
(319,-68,o),
(388,-26,o),
(388,92,cs),
(388,384,l),
(390,448,l),
(329,448,l),
(320,383,l),
(316,367,l),
(316,79,ls),
(316,23,o),
(298,-4,o),
(222,-4,cs),
(189,-4,o),
(151,-3,o),
(112,5,c),
(102,-53,l),
(142,-63,o),
(183,-68,o),
(223,-68,cs)
);
},
{
closed = 1;
nodes = (
(108,456,o),
(46,388,o),
(46,272,cs),
(46,156,o),
(108,88,o),
(212,88,cs),
(274,88,o),
(329,110,o),
(358,164,c),
(323,190,l),
(300,162,o),
(263,152,o),
(221,152,cs),
(149,152,o),
(124,184,o),
(124,272,cs),
(124,362,o),
(149,392,o),
(221,392,cs),
(262,392,o),
(299,382,o),
(322,356,c),
(357,383,l),
(327,435,o),
(274,456,o),
(213,456,cs)
);
},
{
angle = 180;
pos = (448,544);
ref = _part.bowl.descender;
}
);
};
layerId = "0C4DA497-234A-4933-A06A-0B2437F8261E";
name = "{400, 0, -64}";
shapes = (
{
closed = 1;
nodes = (
(319,-68,o),
(388,-26,o),
(388,92,cs),
(388,384,l),
(390,448,l),
(329,448,l),
(325,421,l),
(296,445,o),
(256,456,o),
(213,456,cs),
(108,456,o),
(46,388,o),
(46,272,cs),
(46,156,o),
(108,88,o),
(212,88,cs),
(251,88,o),
(287,97,o),
(316,117,c),
(316,79,ls),
(316,23,o),
(298,-4,o),
(222,-4,cs),
(189,-4,o),
(151,-3,o),
(112,5,c),
(102,-53,l),
(142,-63,o),
(183,-68,o),
(223,-68,cs)
);
},
{
closed = 1;
nodes = (
(149,152,o),
(124,184,o),
(124,272,cs),
(124,362,o),
(149,392,o),
(221,392,cs),
(259,392,o),
(292,384,o),
(316,362,c),
(316,182,l),
(293,160,o),
(259,152,o),
(221,152,cs)
);
}
);
width = 448;
},
{
anchors = (
{
name = "#center";
pos = (330,275);
},
{
name = bottom;
pos = (166,-64);
},
{
name = top;
pos = (269,448);
}
);
associatedMasterId = "BA106321-29DE-4FD0-898D-B7B08A4D4215";
attr = {
coordinates = (
400,
-77,
1
);
};
background = {
anchors = (
{
name = "#center";
pos = (330,275);
},
{
name = bottom;
pos = (141,-192);
},
{
name = top;
pos = (269,448);
}
);
shapes = (
{
closed = 1;
nodes = (
(263,-68,o),
(337,-29,o),
(361,89,cs),
(420,384,l),
(435,448,l),
(373,448,l),
(351,383,l),
(344,367,l),
(288,82,ls),
(277,26,o),
(250,-4,o),
(171,-4,cs),
(141,-4,o),
(103,-4,o),
(66,4,c),
(49,-52,l),
(87,-62,o),
(127,-68,o),
(170,-68,cs)
);
},
{
closed = 1;
nodes = (
(139,456,o),
(52,360,o),
(52,232,cs),
(52,139,o),
(103,88,o),
(197,88,cs),
(277,88,o),
(331,136,o),
(366,225,c),
(338,244,l),
(307,177,o),
(260,152,o),
(210,152,cs),
(152,152,o),
(127,176,o),
(127,232,cs),
(127,328,o),
(182,392,o),
(264,392,cs),
(313,392,o),
(349,370,o),
(353,305,c),
(383,312,l),
(384,401,o),
(346,456,o),
(254,456,cs)
);
}
);
};
layerId = "2FC22154-4411-4A42-8A86-21C966DDCE08";
name = "{400, 1, -64}";
shapes = (
{
closed = 1;
nodes = (
(263,-68,o),
(337,-29,o),
(361,89,cs),
(420,384,l),
(435,448,l),
(373,448,l),
(360,409,l),
(339,440,o),
(305,456,o),
(254,456,cs),
(139,456,o),
(52,360,o),
(52,232,cs),
(52,139,o),
(103,88,o),
(197,88,cs),
(236,88,o),
(268,99,o),
(296,121,c),
(288,82,ls),
(277,26,o),
(250,-4,o),
(171,-4,cs),
(141,-4,o),
(103,-4,o),
(66,4,c),
(49,-52,l),
(87,-62,o),
(127,-68,o),
(170,-68,cs)
);
},
{
closed = 1;
nodes = (
(152,152,o),
(127,176,o),
(127,232,cs),
(127,328,o),
(182,392,o),
(264,392,cs),
(298,392,o),
(326,382,o),
(341,353,c),
(311,201,l),
(282,165,o),
(247,152,o),
(210,152,cs)
);
}
);
width = 448;
},
{
anchors = (
{
name = "#center";
pos = (320,275);
},
{
name = bottom;
pos = (224,-64);
},
{
name = top;
pos = (224,448);
}
);
associatedMasterId = "92967D72-867E-4A8B-929F-F44D834DD4C9";
attr = {
coordinates = (
700,
-77,
0
);
};
background = {
anchors = (
{
name = "#center";
pos = (320,224);
},
{
name = bottom;
pos = (224,-64);
},
{
name = top;
pos = (224,448);
}
);
shapes = (
{
closed = 1;
nodes = (
(324,-68,o),
(397,-26,o),
(397,92,cs),
(397,384,l),
(399,448,l),
(311,448,l),
(295,356,l),
(285,356,l),
(285,79,ls),
(285,34,o),
(269,12,o),
(199,12,cs),
(171,12,o),
(128,17,o),
(89,23,c),
(78,-51,l),
(123,-61,o),
(179,-68,o),
(219,-68,cs)
);
},
{
angle = 180;
pos = (446,544);
ref = _part.bowl.descender;
}
);
};
layerId = "9268B4CA-772C-4D3C-B4A4-EBF62D095069";
name = "5. Mar 25 at 12:27";
shapes = (
{
closed = 1;
nodes = (
(324,-68,o),
(397,-26,o),
(397,92,cs),
(397,384,l),
(399,448,l),
(311,448,l),
(307,427,l),
(279,447,o),
(248,456,o),
(202,456,cs),
(93,456,o),
(34,381,o),
(34,263,cs),
(34,150,o),
(92,88,o),
(198,88,cs),
(232,88,o),
(260,94,o),
(285,109,c),
(285,79,ls),
(285,34,o),
(269,12,o),
(199,12,cs),
(171,12,o),
(128,17,o),
(89,23,c),
(78,-51,l),
(123,-61,o),
(179,-68,o),
(219,-68,cs)
);
},
{
closed = 1;
nodes = (
(168,173,o),
(151,193,o),
(151,263,cs),
(151,334,o),
(164,372,o),
(223,372,cs),
(246,372,o),
(269,366,o),
(285,354,c),
(285,193,l),
(267,179,o),
(244,173,o),
(219,173,cs)
);
}
);
visible = 1;
width = 448;
},
{
anchors = (
{
name = "#center";
pos = (330,275);
},
{
name = bottom;
pos = (166,-64);
},
{
name = top;
pos = (269,448);
}
);
associatedMasterId = "EBAB10B0-9FDE-44C7-9B16-DD2313400F4E";
attr = {
coordinates = (
700,
-77,
1
);
};
background = {
shapes = (
{
closed = 1;
nodes = (
(185,456,o),
(141,433,o),
(109,401,cs),
(62,355,o),
(41,283,o),
(41,225,cs),
(41,181,o),
(54,146,o),
(78,122,cs),
(100,100,o),
(136,88,o),
(183,88,cs),
(257,88,o),
(318,133,o),
(368,260,c),
(325,280,l),
(298,207,o),
(252,174,o),
(209,174,cs),
(188,174,o),
(173,179,o),
(163,189,cs),
(155,197,o),
(151,208,o),
(151,224,cs),
(151,250,o),
(163,315,o),
(194,346,cs),
(208,360,o),
(229,370,o),
(255,370,cs),
(297,370,o),
(327,343,o),
(325,271,c),
(378,278,l),
(378,405,o),
(325,456,o),
(239,456,cs)
);
},
{
closed = 1;
nodes = (
(269,-68,o),
(346,-30,o),
(370,88,cs),
(429,384,l),
(444,448,l),
(355,448,l),
(321,356,l),
(311,356,l),
(257,83,ls),
(248,38,o),
(224,12,o),
(151,12,cs),
(126,12,o),
(84,16,o),
(46,22,c),
(26,-50,l),
(70,-60,o),
(124,-68,o),
(167,-68,cs)
);
}
);
};
hints = (
{
horizontal = 1;
origin = (0,4);
type = TTSnap;
},
{
horizontal = 1;
options = 4;
origin = (0,19);
target = (0,2);
type = TTStem;
},
{
options = 8;
origin = (0,3);
type = TTSnap;
},
{
options = 4;
origin = (0,3);
target = (0,5);
type = TTStem;
},
{
options = 4;
origin = (0,5);
target = (0,19);
type = TTShift;
},
{
horizontal = 1;
options = 4;
origin = (0,5);
target = (0,3);
type = TTStem;
},
{
horizontal = 1;
options = 4;
origin = (0,2);
type = TTStem;
},
{
horizontal = 1;
origin = (0,2);
stem = -1;
type = TTSnap;
},
{
options = 8;
origin = (0,25);
type = TTSnap;
},
{
options = 4;
origin = (0,25);
target = (0,29);
type = TTStem;
},
{
origin = (0,25);
target = (0,25);
type = TTShift;
},
{
options = 4;
origin = (0,5);
target = (0,5);
type = TTShift;
},
{
horizontal = 1;
options = 4;
origin = (0,9);
target = (1,5);
type = TTStem;
},
{
horizontal = 1;
options = 4;
origin = (0,15);
target = (1,12);
type = TTStem;
},
{
origin = (1,2);
type = TTSnap;
},
{
options = 4;
origin = (1,2);
target = (0,12);
type = TTStem;
}
);
layerId = "3ABFDEE6-3C27-45E9-BA6B-3C3D475E2DC7";
name = "5. Mar 25 at 12:33";
shapes = (
{
closed = 1;
nodes = (
(269,-68,o),
(346,-30,o),
(370,88,cs),
(429,384,l),
(444,448,l),
(355,448,l),
(342,413,l),
(318,443,o),
(283,456,o),
(239,456,cs),
(119,456,o),
(41,345,o),
(41,225,cs),
(41,138,o),
(88,88,o),
(183,88,cs),
(211,88,o),
(238,95,o),
(262,110,c),
(257,83,ls),
(248,38,o),
(224,12,o),
(151,12,cs),
(126,12,o),
(84,16,o),
(46,22,c),
(26,-50,l),
(70,-60,o),
(124,-68,o),
(167,-68,cs)
);
},
{
closed = 1;
nodes = (
(173,174,o),
(151,188,o),
(151,224,cs),
(151,282,o),
(178,370,o),
(255,370,cs),
(277,370,o),
(297,362,o),
(309,345,c),
(282,208,l),
(259,184,o),
(234,174,o),
(209,174,cs)
);
}
);
width = 448;
},
{
anchors = (
{
name = "#center";
pos = (320,275);
},
{
name = bottom;
pos = (224,-64);
},
{
name = top;
pos = (224,448);
}
);
associatedMasterId = "7DDCEF54-C770-4FAD-B154-EE8058BAA7E5";
attr = {
coordinates = (
200,
-77,
0
);
};
background = {
shapes = (
{
closed = 1;
nodes = (
(170,456,o),
(130,441,o),
(103,413,cs),
(71,381,o),
(54,333,o),
(54,270,cs),
(54,207,o),
(71,162,o),
(101,131,cs),
(129,104,o),
(168,88,o),
(219,88,cs),
(280,88,o),
(326,107,o),
(362,139,c),
(340,167,l),
(309,146,o),
(270,133,o),
(221,133,cs),
(186,133,o),
(159,140,o),
(140,159,cs),
(117,182,o),
(106,218,o),
(106,270,cs),
(106,323,o),
(117,362,o),
(140,385,cs),
(157,402,o),
(187,411,o),
(223,411,cs),
(272,411,o),
(311,398,o),
(344,378,c),
(365,406,l),
(327,437,o),
(282,456,o),
(222,456,cs)
);
},
{
closed = 1;
nodes = (
(323,-68,o),
(382,-23,o),
(382,79,cs),
(382,384,l),
(384,448,l),
(339,448,l),
(334,399,l),
(334,374,l),
(334,82,ls),
(334,5,o),
(305,-26,o),
(220,-26,cs),
(189,-26,o),
(153,-21,o),
(120,-14,c),
(116,-54,l),
(153,-64,o),
(185,-68,o),
(225,-68,cs)
);
}
);
};
hints = (
{
horizontal = 1;
options = 4;
origin = (0,9);
target = (1,5);
type = TTStem;
},
{
horizontal = 1;
options = 4;
origin = (0,15);
target = (1,12);
type = TTStem;
},
{
origin = (1,2);
type = TTSnap;
},
{
options = 4;
origin = (1,2);
target = (0,12);
type = TTStem;
}
);
layerId = "43143C02-E11C-4899-8D4D-00EF2E076783";
name = "5. Mar 25 at 12:36";
shapes = (
{
closed = 1;
nodes = (
(323,-68,o),
(382,-23,o),
(382,79,cs),
(382,384,l),
(384,448,l),
(339,448,l),
(337,426,l),
(305,445,o),
(268,456,o),
(222,456,cs),
(109,456,o),
(54,383,o),
(54,270,cs),
(54,157,o),
(111,88,o),
(219,88,cs),
(265,88,o),
(303,99,o),
(334,118,c),
(334,82,ls),
(334,5,o),
(305,-26,o),
(220,-26,cs),
(189,-26,o),
(153,-21,o),
(120,-14,c),
(116,-54,l),
(153,-64,o),
(185,-68,o),
(225,-68,cs)
);
},
{
closed = 1;
nodes = (
(137,133,o),
(106,180,o),
(106,270,cs),
(106,360,o),
(133,411,o),
(223,411,cs),
(267,411,o),
(304,400,o),
(334,384,c),
(334,163,l),
(305,145,o),
(267,133,o),
(221,133,cs)
);
}
);
width = 448;
},
{
anchors = (
{
name = "#center";
pos = (330,275);
},
{
name = bottom;
pos = (166,-64);
},
{
name = top;
pos = (269,448);
}
);
associatedMasterId = "C21910D5-47BB-472B-A83D-89B2B42B8F2A";
attr = {
coordinates = (
200,
-77,
1
);
};
background = {
shapes = (
{
closed = 1;
nodes = (
(208,456,o),
(160,435,o),
(125,400,cs),
(84,359,o),
(60,299,o),
(60,231,cs),
(60,184,o),
(74,148,o),
(98,124,cs),
(121,101,o),
(155,88,o),
(196,88,cs),
(268,88,o),
(336,122,o),
(379,217,c),
(354,231,l),
(314,152,o),
(265,130,o),
(208,130,cs),
(175,130,o),
(151,139,o),
(136,154,cs),
(118,172,o),
(111,198,o),
(111,231,cs),
(111,290,o),
(130,341,o),
(163,374,cs),
(188,399,o),
(222,414,o),
(263,414,cs),
(316,414,o),
(354,390,o),
(371,313,c),
(394,316,l),
(382,422,o),
(329,456,o),
(265,456,cs)
);
},
{
closed = 1;
nodes = (
(268,-68,o),
(333,-25,o),
(353,77,cs),
(413,384,l),
(428,448,l),
(385,448,l),
(370,399,l),
(366,374,l),
(309,84,ls),
(294,7,o),
(256,-26,o),
(168,-26,cs),
(139,-26,o),
(104,-21,o),
(72,-14,c),
(63,-54,l),
(99,-64,o),
(130,-68,o),
(171,-68,cs)
);
}
);
};
hints = (
{
horizontal = 1;
options = 4;
place = (456,52);
type = TTStem;
},
{
horizontal = 1;
options = 4;
place = (88,52);
type = TTStem;
},
{
place = (108,0);
type = TTSnap;
},
{
options = 4;
place = (108,48);
type = TTStem;
}
);
layerId = "F55DA991-2234-48CA-B255-B9861A9FD4C8";
name = "5. Mar 25 at 12:36";
shapes = (
{
closed = 1;
nodes = (
(268,-68,o),
(333,-25,o),
(353,77,cs),
(413,384,l),
(428,448,l),
(385,448,l),
(370,399,l),
(346,441,o),
(308,456,o),
(265,456,cs),
(140,456,o),
(60,356,o),
(60,231,cs),
(60,140,o),
(113,88,o),
(196,88,cs),
(240,88,o),
(282,101,o),
(318,132,c),
(309,84,ls),
(294,7,o),
(256,-26,o),
(168,-26,cs),
(139,-26,o),
(104,-21,o),
(72,-14,c),
(63,-54,l),
(99,-64,o),
(130,-68,o),
(171,-68,cs)
);
},
{
closed = 1;
nodes = (
(141,130,o),
(111,164,o),
(111,231,cs),
(111,329,o),
(165,414,o),
(263,414,cs),
(307,414,o),
(341,397,o),
(361,347,c),
(330,192,l),
(295,144,o),
(254,130,o),
(208,130,cs)
);
}
);
width = 448;
}
);
unicode = 103;
}
{
color = 0;
glyphname = p;
kernLeft = p;
kernRight = o;
layers = (
{
anchors = (
{
name = bottom;
pos = (244,0);
},
{
name = top;
pos = (224,448);
}
);
background = {
shapes = (
{
ref = _part.bowl.descender;
}
);
};
hints = (
{
options = 8;
origin = (0,23);
type = TTSnap;
},
{
options = 4;
origin = (0,23);
target = (0,0);
type = TTStem;
},
{
horizontal = 1;
origin = (0,23);
type = TTSnap;
},
{
horizontal = 1;
origin = (0,21);
type = TTSnap;
},
{
options = 4;
origin = (0,0);
target = (1,0);
type = TTShift;
},
{
horizontal = 1;
options = 4;
origin = (0,4);
target = (1,15);
type = TTStem;
},
{
horizontal = 1;
options = 4;
origin = (0,16);
target = (1,3);
type = TTStem;
},
{
horizontal = 1;
origin = (0,4);
stem = -1;
type = TTSnap;
},
{
options = 8;
origin = (0,10);
type = TTSnap;
},
{
options = 4;
origin = (0,10);
target = (1,9);
type = TTStem;
},
{
options = 4;
origin = (0,0);
target = (0,19);
type = TTShift;
}
);
layerId = "95FB0C11-C828-4064-8966-34220AA4D426";
shapes = (
{
closed = 1;
nodes = (
(132,-192,l),
(132,28,l),
(160,3,o),
(196,-8,o),
(235,-8,cs),
(281,-8,o),
(316,8,o),
(343,35,cs),
(383,75,o),
(402,145,o),
(402,224,cs),
(402,305,o),
(383,373,o),
(341,415,cs),
(315,441,o),
(280,456,o),
(236,456,cs),
(193,456,o),
(154,443,o),
(124,412,c),
(119,448,l),
(58,448,l),
(60,384,l),
(60,-192,l)
);
},
{
closed = 1;
nodes = (
(132,350,l),
(155,381,o),
(189,392,o),
(227,392,cs),
(254,392,o),
(275,386,o),
(290,371,cs),
(314,347,o),
(324,302,o),
(324,224,cs),
(324,146,o),
(315,102,o),
(291,78,cs),
(275,62,o),
(255,56,o),
(227,56,cs),
(189,56,o),
(155,68,o),
(132,98,c)
);
}
);
width = 448;
},
{
anchors = (
{
name = bottom;
pos = (264,0);
},
{
name = top;
pos = (224,448);
}
);
background = {
shapes = (
{
ref = _part.bowl.descender;
}
);
};
layerId = "92967D72-867E-4A8B-929F-F44D834DD4C9";
shapes = (
{
closed = 1;
nodes = (
(162,-192,l),
(162,18,l),
(187,0,o),
(216,-8,o),
(249,-8,cs),
(294,-8,o),
(329,7,o),
(355,33,cs),
(396,74,o),
(414,143,o),
(414,224,cs),
(414,305,o),
(396,375,o),
(355,416,cs),
(329,442,o),
(295,456,o),
(250,456,cs),
(206,456,o),
(171,443,o),
(143,410,c),
(136,448,l),
(48,448,l),
(50,383,l),
(50,-192,l)
);
},
{
closed = 1;
nodes = (
(162,340,l),
(180,365,o),
(203,374,o),
(230,374,cs),
(246,374,o),
(258,370,o),
(267,361,cs),
(288,340,o),
(296,300,o),
(296,224,cs),
(296,148,o),
(288,107,o),
(269,88,cs),
(259,78,o),
(246,74,o),
(230,74,cs),
(202,74,o),
(180,83,o),
(162,109,c)
);
}
);
width = 448;
},
{
anchors = (
{
name = bottom;
pos = (244,0);
},
{
name = top;
pos = (224,448);
}
);
background = {
shapes = (
{
ref = _part.bowl.descender;
}
);
};
layerId = "7DDCEF54-C770-4FAD-B154-EE8058BAA7E5";
shapes = (
{
closed = 1;
nodes = (
(114,-192,l),
(114,35,l),
(145,9,o),
(180,-8,o),
(229,-8,cs),
(273,-8,o),
(309,6,o),
(337,34,cs),
(374,71,o),
(394,135,o),
(394,224,cs),
(394,314,o),
(373,377,o),
(335,415,cs),
(308,442,o),
(272,456,o),
(228,456,cs),
(178,456,o),
(143,438,o),
(113,412,c),
(109,448,l),
(64,448,l),
(66,385,l),
(66,-192,l)
);
},
{
closed = 1;
nodes = (
(114,372,l),
(146,398,o),
(179,414,o),
(226,414,cs),
(256,414,o),
(280,406,o),
(299,387,cs),
(327,359,o),
(342,307,o),
(342,224,cs),
(342,142,o),
(329,89,o),
(301,61,cs),
(282,42,o),
(258,34,o),
(227,34,cs),
(180,34,o),
(146,50,o),
(114,76,c)
);
}
);
width = 448;
},
{
anchors = (
{
name = bottom;
pos = (199,0);
},
{
name = top;
pos = (269,448);
}
);
background = {
shapes = (
{
ref = _part.bowl.descender;
}
);
};
layerId = "C21910D5-47BB-472B-A83D-89B2B42B8F2A";
shapes = (
{
closed = 1;
nodes = (
(31,-192,l),
(76,35,l),
(102,9,o),
(131,-8,o),
(178,-8,cs),
(235,-8,o),
(280,14,o),
(315,49,cs),
(374,108,o),
(403,204,o),
(403,289,cs),
(403,346,o),
(390,393,o),
(361,422,cs),
(339,444,o),
(309,456,o),
(268,456,cs),
(224,456,o),
(188,440,o),
(151,415,c),
(154,448,l),
(109,448,l),
(98,385,l),
(-17,-192,l)
);
},
{
closed = 1;
nodes = (
(143,368,l),
(181,396,o),
(220,414,o),
(263,414,cs),
(287,414,o),
(305,407,o),
(319,393,cs),
(339,373,o),
(349,338,o),
(349,289,cs),
(349,216,o),
(326,127,o),
(274,75,cs),
(249,50,o),
(216,34,o),
(177,34,cs),
(140,34,o),
(110,48,o),
(84,74,c)
);
}
);
width = 448;
},
{
anchors = (
{
name = bottom;
pos = (199,0);
},
{
name = top;
pos = (269,448);
}
);
background = {
shapes = (
{
ref = _part.bowl.descender;
}
);
};
layerId = "BA106321-29DE-4FD0-898D-B7B08A4D4215";
shapes = (
{
closed = 1;
nodes = (
(49,-192,l),
(93,32,l),
(114,6,o),
(147,-8,o),
(194,-8,cs),
(246,-8,o),
(288,13,o),
(321,46,cs),
(380,105,o),
(409,202,o),
(409,291,cs),
(409,347,o),
(396,392,o),
(367,421,cs),
(344,444,o),
(312,456,o),
(270,456,cs),
(227,456,o),
(190,441,o),
(161,414,c),
(163,448,l),
(103,448,l),
(92,384,l),
(-23,-192,l)
);
},
{
closed = 1;
nodes = (
(155,344,l),
(184,378,o),
(220,392,o),
(257,392,cs),
(280,392,o),
(298,387,o),
(311,374,cs),
(327,358,o),
(334,331,o),
(334,291,cs),
(334,219,o),
(316,136,o),
(270,90,cs),
(248,68,o),
(220,54,o),
(184,54,cs),
(149,54,o),
(121,65,o),
(106,95,c)
);
}
);
width = 448;
},
{
anchors = (
{
name = bottom;
pos = (219,0);
},
{
name = top;
pos = (269,448);
}
);
background = {
shapes = (
{
closed = 1;
nodes = (
(194,382,l),
(178,382,l),
(180,448,l),
(93,448,l),
(82,383,l),
(-33,-192,l),
(79,-192,l)
);
},
{
ref = _part.bowl;
}
);
};
layerId = "EBAB10B0-9FDE-44C7-9B16-DD2313400F4E";
shapes = (
{
closed = 1;
nodes = (
(79,-192,l),
(121,19,l),
(145,-1,o),
(174,-8,o),
(204,-8,cs),
(253,-8,o),
(294,13,o),
(327,46,cs),
(391,110,o),
(422,218,o),
(422,304,cs),
(422,356,o),
(409,397,o),
(383,423,cs),
(361,445,o),
(331,456,o),
(291,456,cs),
(256,456,o),
(220,446,o),
(179,408,c),
(180,448,l),
(93,448,l),
(82,383,l),
(-33,-192,l)
);
},
{
closed = 1;
nodes = (
(183,330,l),
(209,358,o),
(237,374,o),
(263,374,cs),
(276,374,o),
(286,370,o),
(294,362,cs),
(305,351,o),
(310,333,o),
(310,305,cs),
(310,260,o),
(290,144,o),
(240,94,cs),
(226,80,o),
(210,72,o),
(192,72,cs),
(170,72,o),
(151,84,o),
(138,106,c)
);
}
);
width = 448;
},
{
anchors = (
{
name = bottom;
pos = (244,96);
},
{
name = top;
pos = (224,448);
}
);
associatedMasterId = "95FB0C11-C828-4064-8966-34220AA4D426";
attr = {
coordinates = (
400,
-77,
0
);
};
background = {
shapes = (
{
ref = _part.bowl.descender;
}
);
};
layerId = "668ECF97-6F00-482E-97C7-1F7CE84CF7A5";
name = "{400, 0, -64}";
shapes = (
{
closed = 1;
nodes = (
(132,-64,l),
(132,116,l),
(161,96,o),
(196,88,o),
(235,88,cs),
(287,88,o),
(326,104,o),
(353,131,cs),
(386,164,o),
(402,215,o),
(402,272,cs),
(402,330,o),
(386,380,o),
(353,413,cs),
(326,440,o),
(287,456,o),
(236,456,cs),
(193,456,o),
(153,445,o),
(123,420,c),
(119,448,l),
(58,448,l),
(60,384,l),
(60,-64,l)
);
},
{
closed = 1;
nodes = (
(132,362,l),
(155,384,o),
(189,392,o),
(227,392,cs),
(258,392,o),
(281,387,o),
(297,371,cs),
(316,352,o),
(324,321,o),
(324,272,cs),
(324,222,o),
(316,191,o),
(298,173,cs),
(282,157,o),
(259,152,o),
(227,152,cs),
(189,152,o),
(156,160,o),
(132,182,c)
);
}
);
width = 448;
},
{
anchors = (
{
name = bottom;
pos = (218,96);
},
{
name = top;
pos = (269,448);
}
);
associatedMasterId = "BA106321-29DE-4FD0-898D-B7B08A4D4215";
attr = {
coordinates = (
400,
-77,
1
);
};
background = {
shapes = (
{
ref = _part.bowl.descender;
}
);
};
layerId = "B9D0F280-5D5C-4550-8918-05BED0A10BE9";
name = "{400, 1, -64}";
shapes = (
{
closed = 1;
nodes = (
(74,-64,l),
(113,130,l),
(133,104,o),
(167,88,o),
(215,88,cs),
(273,88,o),
(318,110,o),
(352,144,cs),
(396,188,o),
(417,253,o),
(417,312,cs),
(417,358,o),
(404,395,o),
(378,421,cs),
(356,443,o),
(319,456,o),
(272,456,cs),
(227,456,o),
(191,441,o),
(161,412,c),
(163,448,l),
(103,448,l),
(92,384,l),
(2,-64,l)
);
},
{
closed = 1;
nodes = (
(154,339,l),
(184,378,o),
(220,392,o),
(259,392,cs),
(288,392,o),
(309,386,o),
(323,372,cs),
(336,359,o),
(342,339,o),
(342,312,cs),
(342,269,o),
(329,220,o),
(297,188,cs),
(275,166,o),
(245,152,o),
(205,152,cs),
(169,152,o),
(141,163,o),
(126,196,c)
);
}
);
width = 448;
},
{
anchors = (
{
name = bottom;
pos = (219,0);
},
{
name = top;
pos = (269,448);
}
);
associatedMasterId = "EBAB10B0-9FDE-44C7-9B16-DD2313400F4E";
background = {
shapes = (
{
closed = 1;
nodes = (
(194,382,l),
(178,382,l),
(180,448,l),
(93,448,l),
(82,383,l),
(-33,-192,l),
(79,-192,l)
);
},
{
closed = 1;
nodes = (
(314,-8,o),
(382,67,o),
(412,216,cs),
(442,362,o),
(396,456,o),
(293,456,cs),
(236,456,o),
(176,432,o),
(107,318,c),
(146,292,l),
(182,341,o),
(209,374,o),
(257,374,cs),
(304,374,o),
(320,348,o),
(298,233,cs),
(272,102,o),
(238,74,o),
(198,74,cs),
(158,74,o),
(136,96,o),
(121,152,c),
(62,135,l),
(86,21,o),
(143,-8,o),
(207,-8,cs)
);
}
);
};
layerId = "D352E46C-EDD6-44EB-938F-937CBB7D816A";
name = "22. Nov 25 at 22:42";
shapes = (
{
closed = 1;
nodes = (
(79,-192,l),
(121,18,l),
(142,0,o),
(170,-8,o),
(203,-8,cs),
(248,-8,o),
(286,7,o),
(317,33,cs),
(366,74,o),
(398,143,o),
(414,224,cs),
(430,305,o),
(426,375,o),
(393,416,cs),
(373,442,o),
(341,456,o),
(296,456,cs),
(252,456,o),
(215,443,o),
(180,410,c),
(181,448,l),
(93,448,l),
(82,383,l),
(-33,-192,l)
);
},
{
closed = 1;
nodes = (
(185,340,l),
(208,365,o),
(233,374,o),
(260,374,cs),
(276,374,o),
(287,370,o),
(294,361,cs),
(311,340,o),
(311,300,o),
(296,224,cs),
(281,148,o),
(265,107,o),
(242,88,cs),
(230,78,o),
(216,74,o),
(200,74,cs),
(172,74,o),
(152,83,o),
(139,109,c)
);
}
);
width = 448;
}
);
unicode = 112;
}
{
color = 0;
glyphname = q;
kernLeft = o;
kernRight = g;
layers = (
{
anchors = (
{
name = bottom;
pos = (224,0);
},
{
name = top;
pos = (224,448);
}
);
background = {
shapes = (
{
ref = g;
}
);
};
hints = (
{
options = 4;
origin = (0,17);
target = (0,0);
type = TTStem;
},
{
horizontal = 1;
origin = (0,2);
type = TTSnap;
},
{
horizontal = 1;
origin = (0,0);
type = TTSnap;
},
{
horizontal = 1;
options = 4;
origin = (0,7);
target = (1,5);
type = TTStem;
},
{
horizontal = 1;
options = 4;
origin = (0,13);
target = (1,12);
type = TTStem;
},
{
options = 4;
origin = (0,10);
target = (1,2);
type = TTStem;
},
{
horizontal = 1;
origin = (0,13);
stem = -1;
type = TTSnap;
},
{
options = 8;
origin = (0,10);
type = TTSnap;
},
{
options = 8;
origin = (0,1);
type = TTSnap;
},
{
options = 4;
origin = (0,1);
target = (1,8);
type = TTStem;
},
{
options = 4;
origin = (1,8);
target = (0,16);
type = TTShift;
},
{
options = 4;
origin = (1,8);
target = (0,4);
type = TTShift;
}
);
layerId = "95FB0C11-C828-4064-8966-34220AA4D426";
shapes = (
{
closed = 1;
nodes = (
(388,-192,l),
(388,384,l),
(390,448,l),
(329,448,l),
(324,413,l),
(295,442,o),
(256,456,o),
(213,456,cs),
(108,456,o),
(46,370,o),
(46,224,cs),
(46,79,o),
(108,-8,o),
(212,-8,cs),
(251,-8,o),
(287,3,o),
(316,28,c),
(316,-192,l)
);
},
{
closed = 1;
nodes = (
(149,56,o),
(124,99,o),
(124,224,cs),
(124,347,o),
(150,392,o),
(221,392,cs),
(259,392,o),
(293,380,o),
(316,350,c),
(316,98,l),
(293,67,o),
(259,56,o),
(221,56,cs)
);
}
);
width = 448;
},
{
anchors = (
{
name = bottom;
pos = (224,0);
},
{
name = top;
pos = (224,448);
}
);
background = {
shapes = (
{
ref = g;
}
);
};
layerId = "92967D72-867E-4A8B-929F-F44D834DD4C9";
shapes = (
{
closed = 1;
nodes = (
(398,-192,l),
(398,383,l),
(400,448,l),
(312,448,l),
(306,413,l),
(278,443,o),
(242,456,o),
(199,456,cs),
(93,456,o),
(34,373,o),
(34,224,cs),
(34,75,o),
(92,-8,o),
(198,-8,cs),
(232,-8,o),
(262,1,o),
(286,20,c),
(286,-192,l)
);
},
{
closed = 1;
nodes = (
(170,74,o),
(152,117,o),
(152,224,cs),
(152,336,o),
(169,374,o),
(218,374,cs),
(246,374,o),
(268,365,o),
(286,339,c),
(286,108,l),
(268,83,o),
(245,74,o),
(218,74,cs)
);
}
);
width = 448;
},
{
anchors = (
{
name = bottom;
pos = (224,0);
},
{
name = top;
pos = (224,448);
}
);
background = {
shapes = (
{
ref = g;
}
);
};
layerId = "7DDCEF54-C770-4FAD-B154-EE8058BAA7E5";
shapes = (
{
closed = 1;
nodes = (
(382,-192,l),
(382,385,l),
(384,448,l),
(339,448,l),
(335,412,l),
(303,439,o),
(269,456,o),
(219,456,cs),
(113,456,o),
(54,373,o),
(54,224,cs),
(54,76,o),
(114,-8,o),
(220,-8,cs),
(269,-8,o),
(303,9,o),
(334,35,c),
(334,-192,l)
);
},
{
closed = 1;
nodes = (
(143,34,o),
(106,95,o),
(106,224,cs),
(106,357,o),
(141,414,o),
(221,414,cs),
(268,414,o),
(302,398,o),
(334,372,c),
(334,76,l),
(302,50,o),
(269,34,o),
(222,34,cs)
);
}
);
width = 448;
},
{
anchors = (
{
name = bottom;
pos = (179,0);
},
{
name = top;
pos = (269,448);
}
);
background = {
shapes = (
{
ref = g;
}
);
};
layerId = "C21910D5-47BB-472B-A83D-89B2B42B8F2A";
shapes = (
{
closed = 1;
nodes = (
(299,-192,l),
(414,385,l),
(429,448,l),
(384,448,l),
(373,412,l),
(347,438,o),
(318,456,o),
(270,456,cs),
(118,456,o),
(45,295,o),
(45,159,cs),
(45,51,o),
(92,-8,o),
(180,-8,cs),
(223,-8,o),
(259,7,o),
(296,32,c),
(251,-192,l)
);
},
{
closed = 1;
nodes = (
(128,34,o),
(99,77,o),
(99,159,cs),
(99,273,o),
(154,414,o),
(271,414,cs),
(308,414,o),
(339,398,o),
(364,373,c),
(305,80,l),
(267,52,o),
(228,34,o),
(185,34,cs)
);
}
);
width = 448;
},
{
anchors = (
{
name = bottom;
pos = (179,0);
},
{
name = top;
pos = (269,448);
}
);
background = {
shapes = (
{
ref = g;
}
);
};
layerId = "BA106321-29DE-4FD0-898D-B7B08A4D4215";
shapes = (
{
closed = 1;
nodes = (
(305,-192,l),
(420,384,l),
(435,448,l),
(373,448,l),
(360,409,l),
(339,440,o),
(305,456,o),
(254,456,cs),
(130,456,o),
(39,329,o),
(39,157,cs),
(39,50,o),
(88,-8,o),
(178,-8,cs),
(216,-8,o),
(249,3,o),
(276,24,c),
(233,-192,l)
);
},
{
closed = 1;
nodes = (
(136,56,o),
(114,85,o),
(114,157,cs),
(114,300,o),
(174,394,o),
(264,394,cs),
(298,394,o),
(326,383,o),
(341,354,c),
(292,103,l),
(264,70,o),
(228,56,o),
(191,56,cs)
);
}
);
width = 448;
},
{
anchors = (
{
name = bottom;
pos = (179,0);
},
{
name = top;
pos = (269,448);
}
);
background = {
shapes = (
{
closed = 1;
nodes = (
(119,456,o),
(35,338,o),
(35,167,cs),
(35,61,o),
(79,-8,o),
(166,-8,cs),
(253,-8,o),
(290,67,o),
(321,175,c),
(284,188,l),
(249,99,o),
(226,76,o),
(194,76,cs),
(168,76,o),
(153,99,o),
(153,169,cs),
(153,295,o),
(191,376,o),
(251,376,cs),
(279,376,o),
(306,360,o),
(311,310,c),
(359,315,l),
(360,401,o),
(317,456,o),
(232,456,cs)
);
}
);
};
layerId = "EBAB10B0-9FDE-44C7-9B16-DD2313400F4E";
shapes = (
{
closed = 1;
nodes = (
(315,-192,l),
(430,383,l),
(445,448,l),
(356,448,l),
(339,402,l),
(313,442,o),
(279,456,o),
(232,456,cs),
(119,456,o),
(35,338,o),
(35,167,cs),
(35,61,o),
(79,-8,o),
(166,-8,cs),
(199,-8,o),
(221,2,o),
(245,21,c),
(203,-192,l)
);
},
{
closed = 1;
nodes = (
(168,76,o),
(153,99,o),
(153,169,cs),
(153,295,o),
(191,376,o),
(251,376,cs),
(277,376,o),
(299,360,o),
(307,332,c),
(274,164,l),
(250,108,o),
(229,76,o),
(194,76,cs)
);
}
);
width = 448;
},
{
anchors = (
{
name = bottom;
pos = (224,0);
},
{
name = top;
pos = (224,448);
}
);
associatedMasterId = "95FB0C11-C828-4064-8966-34220AA4D426";
attr = {
coordinates = (
400,
-77,
0
);
};
background = {
shapes = (
{
ref = g;
}
);
};
layerId = "3D72FB42-54A3-4886-9539-D36FEF074EE0";
name = "{400, 0, -64}";
shapes = (
{
closed = 1;
nodes = (
(388,-64,l),
(388,384,l),
(390,448,l),
(329,448,l),
(325,421,l),
(296,445,o),
(256,456,o),
(213,456,cs),
(108,456,o),
(46,388,o),
(46,272,cs),
(46,156,o),
(108,88,o),
(212,88,cs),
(251,88,o),
(287,97,o),
(316,117,c),
(316,-64,l)
);
},
{
closed = 1;
nodes = (
(149,152,o),
(124,184,o),
(124,272,cs),
(124,362,o),
(149,392,o),
(221,392,cs),
(259,392,o),
(292,384,o),
(316,362,c),
(316,182,l),
(293,160,o),
(259,152,o),
(221,152,cs)
);
}
);
width = 448;
},
{
anchors = (
{
name = bottom;
pos = (179,0);
},
{
name = top;
pos = (269,448);
}
);
associatedMasterId = "BA106321-29DE-4FD0-898D-B7B08A4D4215";
attr = {
coordinates = (
400,
-77,
1
);
};
background = {
shapes = (
{
ref = g;
}
);
};
layerId = "E7E64B22-2457-4594-BB1A-ABED4C5B00BA";
name = "{400, 1, -64}";
shapes = (
{
closed = 1;
nodes = (
(330,-64,l),
(420,384,l),
(435,448,l),
(373,448,l),
(360,409,l),
(339,440,o),
(305,456,o),
(254,456,cs),
(139,456,o),
(52,360,o),
(52,232,cs),
(52,139,o),
(103,88,o),
(197,88,cs),
(235,88,o),
(268,99,o),
(295,120,c),
(258,-64,l)
);
},
{
closed = 1;
nodes = (
(152,152,o),
(127,176,o),
(127,232,cs),
(127,328,o),
(182,392,o),
(264,392,cs),
(298,392,o),
(326,381,o),
(341,353,c),
(311,200,l),
(282,165,o),
(247,152,o),
(210,152,cs)
);
}
);
width = 448;
}
);
unicode = 113;
}
{
color = 0;
glyphname = braceleft;
kernRight = parenleft;
layers = (
{
hints = (
{
horizontal = 1;
options = 4;
origin = (0,19);
stem = 0;
target = (0,18);
type = TTStem;
},
{
horizontal = 1;
options = 4;
origin = (0,38);
stem = 0;
target = (0,0);
type = TTStem;
},
{
options = 8;
origin = (0,35);
type = TTSnap;
},
{
options = 4;
origin = (0,35);
target = (0,3);
type = TTStem;
},
{
options = 4;
origin = (0,3);
target = (0,12);
type = TTShift;
},
{
options = 4;
origin = (0,35);
target = (0,25);
type = TTShift;
},
{
horizontal = 1;
origin = (0,19);
type = TTSnap;
},
{
horizontal = 1;
origin = (0,38);
type = TTSnap;
},
{
origin = (0,35);
target = (0,0);
type = TTShift;
},
{
options = 4;
origin = (0,0);
target = (0,18);
type = TTShift;
},
{
origin = (0,35);
target = (0,29);
type = TTShift;
},
{
options = 4;
origin = (0,3);
other1 = (0,9);
target = (0,29);
type = TTInterpolate;
},
{
horizontal = 1;
options = 4;
origin = (0,18);
other1 = (0,29);
target = (0,38);
type = TTInterpolate;
},
{
horizontal = 1;
options = 4;
origin = (0,19);
other1 = (0,28);
target = (0,0);
type = TTInterpolate;
},
{
horizontal = 1;
options = 4;
origin = (0,29);
other1 = (0,9);
target = (0,28);
type = TTInterpolate;
}
);
layerId = "95FB0C11-C828-4064-8966-34220AA4D426";
shapes = (
{
closed = 1;
nodes = (
(341,-7,l),
(253,9,o),
(220,24,o),
(220,74,cs),
(220,110,o),
(232,144,o),
(232,192,cs),
(232,272,o),
(196,301,o),
(134,320,c),
(196,339,o),
(232,368,o),
(232,448,cs),
(232,496,o),
(220,530,o),
(220,566,cs),
(220,616,o),
(253,631,o),
(341,647,c),
(331,704,l),
(228,691,o),
(152,665,o),
(152,566,cs),
(152,528,o),
(164,494,o),
(164,448,cs),
(164,400,o),
(139,373,o),
(84,364,c),
(84,276,l),
(139,267,o),
(164,240,o),
(164,192,cs),
(164,146,o),
(152,112,o),
(152,74,cs),
(152,-25,o),
(228,-51,o),
(331,-64,c)
);
}
);
width = 448;
},
{
layerId = "92967D72-867E-4A8B-929F-F44D834DD4C9";
shapes = (
{
closed = 1;
nodes = (
(371,9,l),
(283,25,o),
(250,39,o),
(250,88,cs),
(250,123,o),
(262,156,o),
(262,203,cs),
(262,270,o),
(227,301,o),
(166,320,c),
(227,339,o),
(262,370,o),
(262,437,cs),
(262,484,o),
(250,517,o),
(250,552,cs),
(250,601,o),
(283,615,o),
(371,631,c),
(361,704,l),
(235,691,o),
(142,666,o),
(142,570,cs),
(142,533,o),
(154,500,o),
(154,455,cs),
(154,408,o),
(129,382,o),
(74,373,c),
(74,267,l),
(129,258,o),
(154,232,o),
(154,185,cs),
(154,140,o),
(142,107,o),
(142,70,cs),
(142,-26,o),
(235,-51,o),
(361,-64,c)
);
}
);
width = 448;
},
{
layerId = "7DDCEF54-C770-4FAD-B154-EE8058BAA7E5";
shapes = (
{
closed = 1;
nodes = (
(320,-27,l),
(234,-11,o),
(202,9,o),
(202,66,cs),
(202,104,o),
(214,141,o),
(214,192,cs),
(214,272,o),
(184,301,o),
(131,320,c),
(184,339,o),
(214,368,o),
(214,448,cs),
(214,499,o),
(202,536,o),
(202,574,cs),
(202,631,o),
(234,651,o),
(320,667,c),
(313,704,l),
(224,692,o),
(158,666,o),
(158,570,cs),
(158,529,o),
(170,492,o),
(170,444,cs),
(170,387,o),
(145,355,o),
(90,345,c),
(90,295,l),
(145,285,o),
(170,253,o),
(170,196,cs),
(170,148,o),
(158,111,o),
(158,70,cs),
(158,-26,o),
(224,-52,o),
(313,-64,c)
);
}
);
width = 448;
},
{
layerId = "C21910D5-47BB-472B-A83D-89B2B42B8F2A";
shapes = (
{
closed = 1;
nodes = (
(268,-27,l),
(185,-11,o),
(159,7,o),
(170,62,cs),
(178,102,o),
(197,139,o),
(207,188,cs),
(223,269,o),
(198,300,o),
(150,319,c),
(207,338,o),
(242,365,o),
(258,444,cs),
(269,497,o),
(264,534,o),
(271,570,cs),
(283,629,o),
(321,651,o),
(410,667,c),
(407,704,l),
(316,692,o),
(247,668,o),
(228,574,cs),
(219,531,o),
(224,494,o),
(215,448,cs),
(203,389,o),
(170,355,o),
(113,345,c),
(106,295,l),
(159,285,o),
(176,255,o),
(165,200,cs),
(155,150,o),
(136,113,o),
(128,74,cs),
(108,-24,o),
(171,-52,o),
(257,-64,c)
);
}
);
width = 448;
},
{
layerId = "BA106321-29DE-4FD0-898D-B7B08A4D4215";
shapes = (
{
closed = 1;
nodes = (
(293,-8,l),
(207,8,o),
(179,21,o),
(189,68,cs),
(197,107,o),
(215,141,o),
(224,186,cs),
(241,267,o),
(211,299,o),
(153,318,c),
(219,336,o),
(260,364,o),
(276,442,cs),
(286,493,o),
(281,527,o),
(287,560,cs),
(298,613,o),
(337,630,o),
(428,646,c),
(424,704,l),
(319,691,o),
(241,668,o),
(222,572,cs),
(213,531,o),
(219,497,o),
(210,454,cs),
(200,403,o),
(166,373,o),
(110,364,c),
(97,276,l),
(150,267,o),
(168,243,o),
(159,198,cs),
(149,149,o),
(130,115,o),
(123,80,cs),
(103,-22,o),
(176,-51,o),
(276,-64,c)
);
}
);
width = 448;
},
{
layerId = "EBAB10B0-9FDE-44C7-9B16-DD2313400F4E";
shapes = (
{
closed = 1;
nodes = (
(325,8,l),
(240,24,o),
(212,35,o),
(221,79,cs),
(229,119,o),
(248,152,o),
(256,194,cs),
(270,264,o),
(241,297,o),
(185,317,c),
(250,335,o),
(290,363,o),
(303,428,cs),
(313,480,o),
(308,513,o),
(314,543,cs),
(325,597,o),
(364,614,o),
(455,630,c),
(454,704,l),
(325,691,o),
(231,670,o),
(213,579,cs),
(205,537,o),
(210,504,o),
(202,464,cs),
(192,412,o),
(158,383,o),
(101,374,c),
(86,268,l),
(139,259,o),
(156,236,o),
(148,194,cs),
(138,144,o),
(119,111,o),
(113,79,cs),
(93,-22,o),
(183,-51,o),
(307,-64,c)
);
}
);
width = 448;
}
);
unicode = 123;
}
{
glyphname = logicalnot;
layers = (
{
hints = (
{
horizontal = 1;
origin = (0,3);
type = TTSnap;
},
{
horizontal = 1;
options = 4;
origin = (0,3);
target = (0,0);
type = TTStem;
},
{
horizontal = 1;
origin = (0,3);
stem = -1;
target = (0,4);
type = TTStem;
}
);
layerId = "95FB0C11-C828-4064-8966-34220AA4D426";
shapes = (
{
closed = 1;
nodes = (
(386,354,l),
(64,354,l),
(64,290,l),
(318,290,l),
(318,162,l),
(386,162,l)
);
}
);
width = 448;
},
{
layerId = "92967D72-867E-4A8B-929F-F44D834DD4C9";
shapes = (
{
closed = 1;
nodes = (
(396,362,l),
(54,362,l),
(54,282,l),
(288,282,l),
(288,154,l),
(396,154,l)
);
}
);
width = 448;
},
{
layerId = "7DDCEF54-C770-4FAD-B154-EE8058BAA7E5";
shapes = (
{
closed = 1;
nodes = (
(380,349,l),
(70,349,l),
(70,305,l),
(332,305,l),
(332,167,l),
(380,167,l)
);
}
);
width = 448;
},
{
layerId = "C21910D5-47BB-472B-A83D-89B2B42B8F2A";
shapes = (
{
closed = 1;
nodes = (
(405,349,l),
(95,349,l),
(86,305,l),
(348,305,l),
(320,167,l),
(368,167,l)
);
}
);
width = 448;
},
{
layerId = "BA106321-29DE-4FD0-898D-B7B08A4D4215";
shapes = (
{
closed = 1;
nodes = (
(412,354,l),
(90,354,l),
(77,290,l),
(331,290,l),
(306,162,l),
(374,162,l)
);
}
);
width = 448;
},
{
layerId = "EBAB10B0-9FDE-44C7-9B16-DD2313400F4E";
shapes = (
{
closed = 1;
nodes = (
(423,362,l),
(81,362,l),
(65,282,l),
(299,282,l),
(274,154,l),
(382,154,l)
);
}
);
width = 448;
}
);
unicode = 172;
}
{
glyphname = degree;
layers = (
{
hints = (
{
horizontal = 1;
options = 4;
origin = (0,5);
target = (1,5);
type = TTStem;
},
{
horizontal = 1;
origin = (0,11);
type = TTSnap;
},
{
horizontal = 1;
options = 4;
origin = (0,11);
target = (1,11);
type = TTStem;
}
);
layerId = "95FB0C11-C828-4064-8966-34220AA4D426";
shapes = (
{
closed = 1;
nodes = (
(269,377,o),
(329,436,o),
(329,512,cs),
(329,588,o),
(270,647,o),
(192,647,cs),
(114,647,o),
(55,588,o),
(55,512,cs),
(55,435,o),
(114,377,o),
(192,377,cs)
);
},
{
closed = 1;
nodes = (
(147,433,o),
(118,463,o),
(118,512,cs),
(118,560,o),
(148,591,o),
(192,591,cs),
(235,591,o),
(266,559,o),
(266,512,cs),
(266,465,o),
(235,433,o),
(192,433,cs)
);
}
);
width = 448;
},
{
layerId = "92967D72-867E-4A8B-929F-F44D834DD4C9";
shapes = (
{
closed = 1;
nodes = (
(280,377,o),
(339,433,o),
(339,512,cs),
(339,591,o),
(280,647,o),
(192,647,cs),
(104,647,o),
(45,591,o),
(45,512,cs),
(45,434,o),
(104,377,o),
(192,377,cs)
);
},
{
closed = 1;
nodes = (
(160,449,o),
(138,473,o),
(138,512,cs),
(138,552,o),
(159,575,o),
(192,575,cs),
(225,575,o),
(246,552,o),
(246,512,cs),
(246,473,o),
(224,449,o),
(192,449,cs)
);
}
);
width = 448;
},
{
layerId = "7DDCEF54-C770-4FAD-B154-EE8058BAA7E5";
shapes = (
{
closed = 1;
nodes = (
(265,377,o),
(324,437,o),
(324,512,cs),
(324,587,o),
(266,647,o),
(192,647,cs),
(118,647,o),
(60,587,o),
(60,512,cs),
(60,437,o),
(118,377,o),
(192,377,cs)
);
},
{
closed = 1;
nodes = (
(141,421,o),
(108,456,o),
(108,512,cs),
(108,568,o),
(142,603,o),
(192,603,cs),
(241,603,o),
(276,567,o),
(276,512,cs),
(276,457,o),
(242,421,o),
(192,421,cs)
);
}
);
width = 448;
},
{
background = {
shapes = (
{
closed = 1;
nodes = (
(301,377,o),
(367,439,o),
(381,508,cs),
(395,581,o),
(352,647,o),
(273,647,cs),
(198,647,o),
(132,585,o),
(118,516,cs),
(104,443,o),
(147,377,o),
(226,377,cs)
);
},
{
closed = 1;
nodes = (
(173,421,o),
(155,462,o),
(165,508,cs),
(175,558,o),
(213,603,o),
(271,603,cs),
(325,603,o),
(343,562,o),
(334,516,cs),
(324,466,o),
(285,421,o),
(228,421,cs)
);
}
);
};
layerId = "C21910D5-47BB-472B-A83D-89B2B42B8F2A";
shapes = (
{
closed = 1;
nodes = (
(309,377,o),
(384,455,o),
(384,540,cs),
(384,600,o),
(340,647,o),
(275,647,cs),
(188,647,o),
(115,568,o),
(115,484,cs),
(115,424,o),
(159,377,o),
(224,377,cs)
);
},
{
closed = 1;
nodes = (
(187,421,o),
(162,444,o),
(162,485,cs),
(162,550,o),
(213,603,o),
(270,603,cs),
(311,603,o),
(337,579,o),
(337,538,cs),
(337,474,o),
(287,421,o),
(230,421,cs)
);
}
);
width = 448;
},
{
background = {
shapes = (
{
closed = 1;
nodes = (
(113,512,cs),
(97,435,o),
(145,377,o),
(223,377,cs),
(300,377,o),
(371,436,o),
(387,512,cs),
(402,588,o),
(355,647,o),
(277,647,cs),
(199,647,o),
(128,588,o)
);
},
{
closed = 1;
nodes = (
(176,512,cs),
(185,560,o),
(221,591,o),
(269,591,cs),
(308,591,o),
(333,559,o),
(324,512,cs),
(314,465,o),
(277,433,o),
(230,433,cs),
(189,433,o),
(166,463,o)
);
}
);
};
layerId = "BA106321-29DE-4FD0-898D-B7B08A4D4215";
shapes = (
{
closed = 1;
nodes = (
(310,377,o),
(389,454,o),
(389,539,cs),
(389,604,o),
(345,647,o),
(273,647,cs),
(188,647,o),
(110,568,o),
(110,484,cs),
(110,420,o),
(155,377,o),
(226,377,cs)
);
},
{
closed = 1;
nodes = (
(193,433,o),
(174,452,o),
(174,488,cs),
(174,544,o),
(221,591,o),
(271,591,cs),
(305,591,o),
(325,570,o),
(325,535,cs),
(325,480,o),
(278,433,o),
(228,433,cs)
);
}
);
width = 448;
},
{
background = {
shapes = (
{
closed = 1;
nodes = (
(316,377,o),
(380,431,o),
(395,503,cs),
(411,585,o),
(363,647,o),
(270,647,cs),
(183,647,o),
(119,593,o),
(104,521,cs),
(88,439,o),
(136,377,o),
(229,377,cs)
);
},
{
closed = 1;
nodes = (
(199,449,o),
(187,471,o),
(194,503,cs),
(202,545,o),
(230,575,o),
(268,575,cs),
(300,575,o),
(312,553,o),
(305,521,cs),
(297,479,o),
(269,449,o),
(230,449,cs)
);
}
);
};
layerId = "EBAB10B0-9FDE-44C7-9B16-DD2313400F4E";
shapes = (
{
closed = 1;
nodes = (
(324,377,o),
(399,447,o),
(399,536,cs),
(399,601,o),
(350,647,o),
(271,647,cs),
(175,647,o),
(100,577,o),
(100,489,cs),
(100,424,o),
(148,377,o),
(228,377,cs)
);
},
{
closed = 1;
nodes = (
(208,449,o),
(193,464,o),
(193,491,cs),
(193,535,o),
(228,575,o),
(265,575,cs),
(290,575,o),
(306,559,o),
(306,534,cs),
(306,489,o),
(271,449,o),
(234,449,cs)
);
}
);
width = 448;
}
);
unicode = 176;
}
{
glyphname = ordmasculine;
kernLeft = zerosuperior;
kernRight = zerosuperior;
layers = (
{
hints = (
{
horizontal = 1;
options = 4;
origin = (0,5);
target = (1,5);
type = TTStem;
},
{
horizontal = 1;
options = 4;
origin = (0,11);
target = (1,11);
type = TTStem;
},
{
options = 4;
origin = (0,8);
target = (1,2);
type = TTStem;
},
{
options = 4;
origin = (0,2);
target = (1,8);
type = TTStem;
},
{
options = 8;
origin = (0,2);
type = TTSnap;
},
{
options = 8;
origin = (0,8);
type = TTSnap;
}
);
layerId = "95FB0C11-C828-4064-8966-34220AA4D426";
shapes = (
{
closed = 1;
nodes = (
(289,312,o),
(334,384,o),
(334,480,cs),
(334,576,o),
(289,648,o),
(192,648,cs),
(95,648,o),
(51,576,o),
(51,480,cs),
(51,384,o),
(95,312,o),
(192,312,cs)
);
},
{
closed = 1;
nodes = (
(137,367,o),
(117,404,o),
(117,480,cs),
(117,554,o),
(137,593,o),
(192,593,cs),
(247,593,o),
(268,554,o),
(268,480,cs),
(268,404,o),
(247,367,o),
(192,367,cs)
);
}
);
width = 448;
},
{
layerId = "92967D72-867E-4A8B-929F-F44D834DD4C9";
shapes = (
{
closed = 1;
nodes = (
(299,312,o),
(349,384,o),
(349,480,cs),
(349,576,o),
(299,648,o),
(192,648,cs),
(85,648,o),
(36,576,o),
(36,480,cs),
(36,384,o),
(85,312,o),
(192,312,cs)
);
},
{
closed = 1;
nodes = (
(156,384,o),
(142,416,o),
(142,480,cs),
(142,543,o),
(156,576,o),
(192,576,cs),
(229,576,o),
(243,543,o),
(243,480,cs),
(243,416,o),
(229,384,o),
(192,384,cs)
);
}
);
width = 448;
},
{
layerId = "7DDCEF54-C770-4FAD-B154-EE8058BAA7E5";
shapes = (
{
closed = 1;
nodes = (
(288,312,o),
(326,387,o),
(326,480,cs),
(326,573,o),
(293,648,o),
(193,648,cs),
(93,648,o),
(60,573,o),
(60,480,cs),
(60,387,o),
(93,312,o),
(193,312,cs)
);
},
{
closed = 1;
nodes = (
(132,348,o),
(102,383,o),
(102,480,cs),
(102,576,o),
(130,612,o),
(193,612,cs),
(255,612,o),
(284,576,o),
(284,480,cs),
(284,383,o),
(254,348,o),
(193,348,cs)
);
}
);
width = 448;
},
{
layerId = "BA106321-29DE-4FD0-898D-B7B08A4D4215";
shapes = (
{
closed = 1;
nodes = (
(310,312,o),
(366,381,o),
(385,477,cs),
(405,573,o),
(372,648,o),
(275,648,cs),
(178,648,o),
(123,579,o),
(104,483,cs),
(84,387,o),
(116,312,o),
(213,312,cs)
);
},
{
closed = 1;
nodes = (
(166,367,o),
(153,401,o),
(168,477,cs),
(183,551,o),
(212,593,o),
(267,593,cs),
(322,593,o),
(335,557,o),
(321,483,cs),
(305,407,o),
(276,367,o),
(221,367,cs)
);
}
);
width = 448;
},
{
layerId = "EBAB10B0-9FDE-44C7-9B16-DD2313400F4E";
shapes = (
{
closed = 1;
nodes = (
(321,312,o),
(381,380,o),
(400,476,cs),
(419,572,o),
(381,648,o),
(274,648,cs),
(167,648,o),
(108,580,o),
(89,484,cs),
(70,388,o),
(107,312,o),
(214,312,cs)
);
},
{
closed = 1;
nodes = (
(189,384,o),
(180,412,o),
(193,476,cs),
(206,539,o),
(227,576,o),
(263,576,cs),
(300,576,o),
(308,547,o),
(296,484,cs),
(283,420,o),
(262,384,o),
(225,384,cs)
);
}
);
width = 448;
},
{
layerId = "C21910D5-47BB-472B-A83D-89B2B42B8F2A";
shapes = (
{
closed = 1;
nodes = (
(308,312,o),
(359,385,o),
(378,478,cs),
(397,571,o),
(377,648,o),
(277,648,cs),
(177,648,o),
(130,575,o),
(112,482,cs),
(94,389,o),
(113,312,o),
(213,312,cs)
);
},
{
closed = 1;
nodes = (
(158,348,o),
(134,381,o),
(154,478,cs),
(174,574,o),
(208,612,o),
(271,612,cs),
(333,612,o),
(355,578,o),
(336,482,cs),
(317,385,o),
(280,348,o),
(219,348,cs)
);
}
);
width = 448;
}
);
unicode = 186;
}
{
color = 0;
glyphname = thorn;
kernLeft = h;
kernRight = o;
layers = (
{
hints = (
{
horizontal = 1;
origin = (0,0);
type = TTSnap;
},
{
horizontal = 1;
origin = (0,21);
type = TTSnap;
},
{
options = 8;
origin = (0,22);
type = TTSnap;
},
{
options = 4;
origin = (0,22);
target = (0,0);
type = TTStem;
},
{
options = 4;
origin = (0,0);
target = (0,20);
type = TTShift;
},
{
options = 4;
origin = (0,0);
target = (1,0);
type = TTShift;
},
{
horizontal = 1;
options = 4;
origin = (0,4);
target = (1,16);
type = TTStem;
},
{
horizontal = 1;
options = 4;
origin = (0,16);
target = (1,4);
type = TTStem;
},
{
options = 4;
origin = (0,10);
target = (1,10);
type = TTStem;
},
{
horizontal = 1;
origin = (0,4);
stem = -1;
type = TTSnap;
},
{
options = 8;
origin = (0,10);
type = TTSnap;
}
);
layerId = "95FB0C11-C828-4064-8966-34220AA4D426";
shapes = (
{
closed = 1;
nodes = (
(132,-192,l),
(132,28,l),
(160,3,o),
(196,-8,o),
(235,-8,cs),
(281,-8,o),
(316,8,o),
(343,35,cs),
(383,75,o),
(402,145,o),
(402,224,cs),
(402,305,o),
(383,373,o),
(341,415,cs),
(315,441,o),
(280,456,o),
(236,456,cs),
(197,456,o),
(161,445,o),
(132,420,c),
(132,640,l),
(60,640,l),
(60,-192,l)
);
},
{
closed = 1;
nodes = (
(132,320,l),
(132,350,l),
(155,381,o),
(189,392,o),
(227,392,cs),
(254,392,o),
(275,386,o),
(290,371,cs),
(314,347,o),
(324,302,o),
(324,224,cs),
(324,146,o),
(315,102,o),
(291,78,cs),
(275,62,o),
(255,56,o),
(227,56,cs),
(189,56,o),
(155,68,o),
(132,98,c)
);
}
);
width = 448;
},
{
layerId = "92967D72-867E-4A8B-929F-F44D834DD4C9";
shapes = (
{
closed = 1;
nodes = (
(162,-192,l),
(162,18,l),
(187,0,o),
(216,-8,o),
(249,-8,cs),
(294,-8,o),
(329,7,o),
(355,33,cs),
(396,74,o),
(414,143,o),
(414,224,cs),
(414,305,o),
(396,375,o),
(355,416,cs),
(329,442,o),
(295,456,o),
(250,456,cs),
(216,456,o),
(186,447,o),
(162,428,c),
(162,640,l),
(50,640,l),
(50,-192,l)
);
},
{
closed = 1;
nodes = (
(162,320,l),
(162,340,l),
(180,365,o),
(203,374,o),
(230,374,cs),
(246,374,o),
(258,370,o),
(267,361,cs),
(288,340,o),
(296,300,o),
(296,224,cs),
(296,148,o),
(288,107,o),
(269,88,cs),
(259,78,o),
(246,74,o),
(230,74,cs),
(202,74,o),
(180,83,o),
(162,109,c)
);
}
);
width = 448;
},
{
layerId = "7DDCEF54-C770-4FAD-B154-EE8058BAA7E5";
shapes = (
{
closed = 1;
nodes = (
(114,-192,l),
(114,35,l),
(145,9,o),
(180,-8,o),
(229,-8,cs),
(273,-8,o),
(309,6,o),
(337,34,cs),
(374,71,o),
(394,135,o),
(394,224,cs),
(394,314,o),
(373,377,o),
(335,415,cs),
(308,442,o),
(272,456,o),
(228,456,cs),
(179,456,o),
(145,439,o),
(114,413,c),
(114,640,l),
(66,640,l),
(66,-192,l)
);
},
{
closed = 1;
nodes = (
(114,320,l),
(114,372,l),
(146,398,o),
(179,414,o),
(226,414,cs),
(256,414,o),
(280,406,o),
(299,387,cs),
(327,359,o),
(342,307,o),
(342,224,cs),
(342,142,o),
(329,89,o),
(301,61,cs),
(282,42,o),
(258,34,o),
(227,34,cs),
(180,34,o),
(146,50,o),
(114,76,c)
);
}
);
width = 448;
},
{
layerId = "C21910D5-47BB-472B-A83D-89B2B42B8F2A";
shapes = (
{
closed = 1;
nodes = (
(31,-192,l),
(76,35,l),
(102,9,o),
(131,-8,o),
(178,-8,cs),
(235,-8,o),
(280,14,o),
(315,49,cs),
(374,108,o),
(403,204,o),
(403,289,cs),
(403,346,o),
(390,393,o),
(361,422,cs),
(339,444,o),
(309,456,o),
(268,456,cs),
(225,456,o),
(189,441,o),
(152,416,c),
(197,640,l),
(149,640,l),
(-17,-192,l)
);
},
{
closed = 1;
nodes = (
(133,320,l),
(143,368,l),
(181,396,o),
(220,414,o),
(263,414,cs),
(287,414,o),
(305,407,o),
(319,393,cs),
(339,373,o),
(349,338,o),
(349,289,cs),
(349,216,o),
(326,127,o),
(274,75,cs),
(249,50,o),
(216,34,o),
(177,34,cs),
(140,34,o),
(109,50,o),
(84,75,c)
);
}
);
width = 448;
},
{
layerId = "BA106321-29DE-4FD0-898D-B7B08A4D4215";
shapes = (
{
closed = 1;
nodes = (
(49,-192,l),
(94,32,l),
(115,6,o),
(147,-8,o),
(194,-8,cs),
(246,-8,o),
(288,13,o),
(321,46,cs),
(380,105,o),
(409,202,o),
(409,291,cs),
(409,347,o),
(396,392,o),
(367,421,cs),
(344,444,o),
(312,456,o),
(270,456,cs),
(232,456,o),
(199,445,o),
(172,424,c),
(215,640,l),
(143,640,l),
(-23,-192,l)
);
},
{
closed = 1;
nodes = (
(151,320,l),
(156,344,l),
(185,379,o),
(220,392,o),
(257,392,cs),
(280,392,o),
(298,387,o),
(311,374,cs),
(327,358,o),
(334,331,o),
(334,291,cs),
(334,219,o),
(316,136,o),
(270,90,cs),
(248,68,o),
(220,54,o),
(184,54,cs),
(149,54,o),
(121,65,o),
(106,95,c)
);
}
);
width = 448;
},
{
layerId = "EBAB10B0-9FDE-44C7-9B16-DD2313400F4E";
shapes = (
{
closed = 1;
nodes = (
(79,-192,l),
(121,19,l),
(145,-1,o),
(174,-8,o),
(204,-8,cs),
(253,-8,o),
(294,13,o),
(327,46,cs),
(391,110,o),
(422,218,o),
(422,304,cs),
(422,356,o),
(409,397,o),
(383,423,cs),
(361,445,o),
(331,456,o),
(291,456,cs),
(263,456,o),
(233,449,o),
(202,427,c),
(245,640,l),
(133,640,l),
(-33,-192,l)
);
},
{
closed = 1;
nodes = (
(181,320,l),
(183,330,l),
(209,358,o),
(237,374,o),
(263,374,cs),
(276,374,o),
(286,370,o),
(294,362,cs),
(305,351,o),
(310,333,o),
(310,305,cs),
(310,260,o),
(290,144,o),
(240,94,cs),
(226,80,o),
(210,72,o),
(192,72,cs),
(170,72,o),
(151,84,o),
(138,106,c)
);
}
);
width = 448;
},
{
associatedMasterId = "95FB0C11-C828-4064-8966-34220AA4D426";
attr = {
coordinates = (
400,
-77,
0
);
};
layerId = "1E310F64-01D3-4CA3-8BEB-82E00BAF1582";
name = "{400, 0, -64}";
shapes = (
{
closed = 1;
nodes = (
(132,-64,l),
(132,116,l),
(161,96,o),
(196,88,o),
(235,88,cs),
(287,88,o),
(326,104,o),
(353,131,cs),
(386,164,o),
(402,215,o),
(402,272,cs),
(402,330,o),
(386,380,o),
(353,413,cs),
(326,440,o),
(287,456,o),
(236,456,cs),
(197,456,o),
(161,447,o),
(132,427,c),
(132,640,l),
(60,640,l),
(60,-64,l)
);
},
{
closed = 1;
nodes = (
(132,320,l),
(132,362,l),
(155,384,o),
(189,392,o),
(227,392,cs),
(258,392,o),
(281,387,o),
(297,371,cs),
(316,352,o),
(324,321,o),
(324,272,cs),
(324,222,o),
(316,191,o),
(298,173,cs),
(282,157,o),
(259,152,o),
(227,152,cs),
(189,152,o),
(156,160,o),
(132,182,c)
);
}
);
width = 448;
},
{
associatedMasterId = "BA106321-29DE-4FD0-898D-B7B08A4D4215";
attr = {
coordinates = (
400,
-77,
1
);
};
layerId = "FE9248BC-247B-470B-9CA0-3FF13F60CB80";
name = "{400, 1, -64}";
shapes = (
{
closed = 1;
nodes = (
(74,-64,l),
(113,130,l),
(133,104,o),
(167,88,o),
(215,88,cs),
(273,88,o),
(318,110,o),
(352,144,cs),
(396,188,o),
(417,253,o),
(417,312,cs),
(417,358,o),
(404,395,o),
(378,421,cs),
(356,443,o),
(319,456,o),
(272,456,cs),
(232,456,o),
(199,444,o),
(171,421,c),
(215,640,l),
(143,640,l),
(2,-64,l)
);
},
{
closed = 1;
nodes = (
(151,320,l),
(155,340,l),
(184,377,o),
(221,392,o),
(259,392,cs),
(288,392,o),
(309,386,o),
(323,372,cs),
(336,359,o),
(342,339,o),
(342,312,cs),
(342,269,o),
(329,220,o),
(297,188,cs),
(275,166,o),
(245,152,o),
(205,152,cs),
(169,152,o),
(141,163,o),
(126,195,c)
);
}
);
width = 448;
}
);
unicode = 254;
}
{
color = 7;
glyphname = Hbar;
layers = (
{
anchors = (
{
name = bottom;
pos = (224,0);
},
{
name = top;
pos = (224,640);
}
);
background = {
shapes = (
{
closed = 1;
nodes = (
(10,440,l),
(438,440,l),
(438,500,l),
(10,500,l)
);
},
{
ref = H;
}
);
};
hints = (
{
horizontal = 1;
origin = (0,17);
type = TTSnap;
},
{
horizontal = 1;
options = 4;
origin = (0,17);
target = (0,16);
type = TTStem;
},
{
horizontal = 1;
options = 4;
origin = (0,17);
target = (0,6);
type = TTShift;
},
{
horizontal = 1;
options = 4;
origin = (0,16);
target = (0,7);
type = TTShift;
},
{
horizontal = 1;
options = 4;
origin = (0,1);
target = (1,3);
type = TTStem;
},
{
horizontal = 1;
options = 4;
origin = (0,0);
target = (0,3);
type = TTShift;
},
{
horizontal = 1;
options = 4;
origin = (0,13);
target = (0,10);
type = TTShift;
},
{
options = 4;
origin = (0,19);
target = (0,0);
type = TTStem;
},
{
options = 4;
origin = (0,4);
target = (0,3);
type = TTStem;
},
{
options = 4;
origin = (0,0);
target = (1,3);
type = TTShift;
},
{
options = 4;
origin = (0,3);
target = (1,2);
type = TTShift;
},
{
options = 8;
origin = (0,19);
type = TTSnap;
},
{
options = 8;
origin = (0,4);
type = TTSnap;
},
{
horizontal = 1;
origin = (0,0);
other1 = (0,1);
target = (0,13);
type = TTInterpolate;
},
{
options = 4;
origin = (0,0);
target = (0,12);
type = TTShift;
},
{
options = 4;
origin = (0,3);
target = (0,11);
type = TTShift;
},
{
horizontal = 1;
options = 4;
origin = (0,17);
target = (1,0);
type = TTShift;
},
{
horizontal = 1;
options = 4;
origin = (0,16);
target = (0,12);
type = TTShift;
}
);
layerId = "95FB0C11-C828-4064-8966-34220AA4D426";
shapes = (
{
closed = 1;
nodes = (
(132,0,l),
(132,256,l),
(316,256,l),
(316,0,l),
(388,0,l),
(388,440,l),
(438,440,l),
(438,500,l),
(388,500,l),
(388,640,l),
(316,640,l),
(316,500,l),
(132,500,l),
(132,640,l),
(60,640,l),
(60,500,l),
(10,500,l),
(10,440,l),
(60,440,l),
(60,0,l)
);
},
{
closed = 1;
nodes = (
(132,440,l),
(316,440,l),
(316,320,l),
(132,320,l)
);
}
);
width = 448;
},
{
anchors = (
{
name = bottom;
pos = (224,0);
},
{
name = top;
pos = (224,640);
}
);
background = {
shapes = (
{
closed = 1;
nodes = (
(0,440,l),
(448,440,l),
(448,516,l),
(0,516,l)
);
},
{
ref = H;
}
);
};
layerId = "92967D72-867E-4A8B-929F-F44D834DD4C9";
shapes = (
{
closed = 1;
nodes = (
(162,0,l),
(162,248,l),
(286,248,l),
(286,0,l),
(398,0,l),
(398,440,l),
(448,440,l),
(448,516,l),
(398,516,l),
(398,640,l),
(286,640,l),
(286,516,l),
(162,516,l),
(162,640,l),
(50,640,l),
(50,516,l),
(0,516,l),
(0,440,l),
(50,440,l),
(50,0,l)
);
},
{
closed = 1;
nodes = (
(162,440,l),
(286,440,l),
(286,328,l),
(162,328,l)
);
}
);
width = 448;
},
{
anchors = (
{
name = bottom;
pos = (224,0);
},
{
name = top;
pos = (224,640);
}
);
background = {
shapes = (
{
closed = 1;
nodes = (
(10,452,l),
(438,452,l),
(438,496,l),
(10,496,l)
);
},
{
ref = H;
}
);
};
layerId = "7DDCEF54-C770-4FAD-B154-EE8058BAA7E5";
shapes = (
{
closed = 1;
nodes = (
(114,0,l),
(114,266,l),
(334,266,l),
(334,0,l),
(382,0,l),
(382,452,l),
(438,452,l),
(438,496,l),
(382,496,l),
(382,640,l),
(334,640,l),
(334,496,l),
(114,496,l),
(114,640,l),
(66,640,l),
(66,496,l),
(10,496,l),
(10,452,l),
(66,452,l),
(66,0,l)
);
},
{
closed = 1;
nodes = (
(114,452,l),
(334,452,l),
(334,310,l),
(114,310,l)
);
}
);
width = 448;
},
{
anchors = (
{
name = bottom;
pos = (179,0);
},
{
name = top;
pos = (307,640);
}
);
background = {
shapes = (
{
closed = 1;
nodes = (
(56,452,l),
(483,452,l),
(492,496,l),
(65,496,l)
);
},
{
ref = H;
}
);
};
layerId = "C21910D5-47BB-472B-A83D-89B2B42B8F2A";
shapes = (
{
closed = 1;
nodes = (
(69,0,l),
(122,266,l),
(342,266,l),
(289,0,l),
(337,0,l),
(427,452,l),
(483,452,l),
(492,496,l),
(436,496,l),
(465,640,l),
(417,640,l),
(388,496,l),
(168,496,l),
(197,640,l),
(149,640,l),
(120,496,l),
(65,496,l),
(56,452,l),
(111,452,l),
(21,0,l)
);
},
{
closed = 1;
nodes = (
(159,452,l),
(379,452,l),
(351,310,l),
(131,310,l)
);
}
);
width = 448;
},
{
anchors = (
{
name = bottom;
pos = (179,0);
},
{
name = top;
pos = (307,640);
}
);
background = {
shapes = (
{
closed = 1;
nodes = (
(53,440,l),
(480,440,l),
(493,500,l),
(66,500,l)
);
},
{
ref = H;
}
);
};
layerId = "BA106321-29DE-4FD0-898D-B7B08A4D4215";
shapes = (
{
closed = 1;
nodes = (
(87,0,l),
(138,256,l),
(322,256,l),
(271,0,l),
(343,0,l),
(431,440,l),
(480,440,l),
(493,500,l),
(443,500,l),
(471,640,l),
(399,640,l),
(371,500,l),
(187,500,l),
(215,640,l),
(143,640,l),
(115,500,l),
(66,500,l),
(53,440,l),
(103,440,l),
(15,0,l)
);
},
{
closed = 1;
nodes = (
(175,440,l),
(359,440,l),
(335,320,l),
(151,320,l)
);
}
);
width = 448;
},
{
anchors = (
{
name = bottom;
pos = (179,0);
},
{
name = top;
pos = (307,640);
}
);
background = {
shapes = (
{
closed = 1;
nodes = (
(43,440,l),
(490,440,l),
(506,516,l),
(59,516,l)
);
},
{
ref = H;
}
);
};
layerId = "EBAB10B0-9FDE-44C7-9B16-DD2313400F4E";
shapes = (
{
closed = 1;
nodes = (
(117,0,l),
(167,248,l),
(291,248,l),
(241,0,l),
(353,0,l),
(441,440,l),
(490,440,l),
(506,516,l),
(456,516,l),
(481,640,l),
(369,640,l),
(344,516,l),
(220,516,l),
(245,640,l),
(133,640,l),
(108,516,l),
(59,516,l),
(43,440,l),
(93,440,l),
(5,0,l)
);
},
{
closed = 1;
nodes = (
(205,440,l),
(329,440,l),
(307,328,l),
(183,328,l)
);
}
);
width = 448;
}
);
unicode = 294;
}
{
glyphname = hturned;
kernLeft = u;
kernRight = g;
layers = (
{
anchors = (
{
name = bottom;
pos = (224,0);
},
{
name = top;
pos = (224,448);
}
);
background = {
anchors = (
{
name = bottom;
pos = (224,0);
},
{
name = top;
pos = (224,448);
}
);
hints = (
{
horizontal = 1;
place = (0,0);
type = TTSnap;
},
{
horizontal = 1;
options = 4;
place = (0,60);
target = (1,11);
type = TTStem;
},
{
options = 4;
place = (0,132);
target = (1,14);
type = TTStem;
},
{
options = 4;
place = (0,316);
target = (0,0);
type = TTStem;
},
{
options = 4;
place = (0,316);
target = (0,1,1,7);
type = TTShift;
},
{
options = 8;
place = (0,0);
type = TTSnap;
},
{
options = 8;
place = (0,0);
type = TTSnap;
},
{
horizontal = 1;
options = 4;
place = (0,448);
target = (1,15);
type = TTShift;
}
);
shapes = (
{
closed = 1;
nodes = (
(316,448,l),
(316,-192,l),
(388,-192,l),
(388,448,l)
);
},
{
closed = 1;
nodes = (
(60,448,l),
(60,144,ls),
(60,39,o),
(116,-4,o),
(189,-4,cs),
(262,-4,o),
(322,50,o),
(363,106,c),
(331,134,l),
(296,94,o),
(250,60,o),
(203,60,cs),
(155,60,o),
(132,90,o),
(132,147,cs),
(132,448,l)
);
}
);
};
hints = (
{
horizontal = 1;
origin = (0,17);
type = TTSnap;
},
{
horizontal = 1;
options = 4;
origin = (0,13);
target = (0,4);
type = TTStem;
},
{
options = 4;
origin = (0,10);
target = (0,7);
type = TTStem;
},
{
options = 4;
origin = (0,19);
target = (0,0);
type = TTStem;
},
{
options = 4;
origin = (0,0);
target = (0,16);
type = TTShift;
},
{
options = 8;
origin = (0,19);
type = TTSnap;
},
{
options = 8;
origin = (0,10);
type = TTSnap;
},
{
horizontal = 1;
options = 4;
origin = (0,0);
target = (0,8);
type = TTShift;
},
{
horizontal = 1;
origin = (0,13);
stem = -1;
type = TTSnap;
}
);
layerId = "95FB0C11-C828-4064-8966-34220AA4D426";
shapes = (
{
closed = 1;
nodes = (
(316,448,l),
(316,118,l),
(284,86,o),
(244,60,o),
(203,60,cs),
(155,60,o),
(132,90,o),
(132,147,cs),
(132,448,l),
(60,448,l),
(60,144,ls),
(60,39,o),
(116,-4,o),
(189,-4,cs),
(238,-4,o),
(280,20,o),
(316,53,c),
(316,-192,l),
(388,-192,l),
(388,448,l)
);
}
);
width = 448;
},
{
anchors = (
{
name = bottom;
pos = (224,0);
},
{
name = top;
pos = (224,448);
}
);
background = {
anchors = (
{
name = bottom;
pos = (224,0);
},
{
name = top;
pos = (224,448);
}
);
shapes = (
{
closed = 1;
nodes = (
(286,448,l),
(286,-192,l),
(398,-192,l),
(398,448,l)
);
},
{
closed = 1;
nodes = (
(50,448,l),
(50,134,ls),
(50,38,o),
(100,-4,o),
(176,-4,cs),
(256,-4,o),
(314,52,o),
(368,114,c),
(324,156,l),
(291,112,o),
(248,80,o),
(214,80,cs),
(178,80,o),
(162,101,o),
(162,142,cs),
(162,448,l)
);
}
);
};
layerId = "92967D72-867E-4A8B-929F-F44D834DD4C9";
shapes = (
{
closed = 1;
nodes = (
(286,448,l),
(286,115,l),
(262,94,o),
(236,80,o),
(214,80,cs),
(178,80,o),
(162,101,o),
(162,142,cs),
(162,448,l),
(50,448,l),
(50,134,ls),
(50,38,o),
(100,-4,o),
(176,-4,cs),
(218,-4,o),
(253,11,o),
(286,35,c),
(286,-192,l),
(398,-192,l),
(398,448,l)
);
}
);
width = 448;
},
{
anchors = (
{
name = bottom;
pos = (224,0);
},
{
name = top;
pos = (224,448);
}
);
background = {
anchors = (
{
name = bottom;
pos = (224,0);
},
{
name = top;
pos = (224,448);
}
);
shapes = (
{
closed = 1;
nodes = (
(334,448,l),
(334,-192,l),
(382,-192,l),
(382,448,l)
);
},
{
closed = 1;
nodes = (
(66,448,l),
(66,139,ls),
(66,26,o),
(125,-4,o),
(187,-4,cs),
(260,-4,o),
(328,54,o),
(365,103,c),
(345,120,l),
(298,75,o),
(251,40,o),
(196,40,cs),
(137,40,o),
(114,69,o),
(114,143,cs),
(114,448,l)
);
}
);
};
layerId = "7DDCEF54-C770-4FAD-B154-EE8058BAA7E5";
shapes = (
{
closed = 1;
nodes = (
(334,448,l),
(334,110,l),
(291,70,o),
(247,40,o),
(196,40,cs),
(137,40,o),
(114,69,o),
(114,143,cs),
(114,448,l),
(66,448,l),
(66,139,ls),
(66,26,o),
(125,-4,o),
(187,-4,cs),
(243,-4,o),
(296,30,o),
(334,68,c),
(334,-192,l),
(382,-192,l),
(382,448,l)
);
}
);
width = 448;
},
{
anchors = (
{
name = bottom;
pos = (179,0);
},
{
name = top;
pos = (269,448);
}
);
background = {
anchors = (
{
name = bottom;
pos = (179,0);
},
{
name = top;
pos = (269,448);
}
);
shapes = (
{
closed = 1;
nodes = (
(361,448,l),
(233,-192,l),
(305,-192,l),
(433,448,l)
);
},
{
closed = 1;
nodes = (
(105,448,l),
(45,148,ls),
(24,42,o),
(73,-4,o),
(149,-4,cs),
(219,-4,o),
(288,48,o),
(341,104,c),
(311,136,l),
(269,96,o),
(215,60,o),
(165,60,cs),
(121,60,o),
(105,87,o),
(116,144,cs),
(177,448,l)
);
}
);
};
layerId = "BA106321-29DE-4FD0-898D-B7B08A4D4215";
shapes = (
{
closed = 1;
nodes = (
(361,448,l),
(296,122,l),
(256,88,o),
(209,60,o),
(165,60,cs),
(121,60,o),
(105,87,o),
(116,144,cs),
(177,448,l),
(105,448,l),
(45,148,ls),
(24,42,o),
(73,-4,o),
(149,-4,cs),
(195,-4,o),
(241,19,o),
(281,50,c),
(233,-192,l),
(305,-192,l),
(433,448,l)
);
}
);
width = 448;
},
{
anchors = (
{
name = bottom;
pos = (179,0);
},
{
name = top;
pos = (269,448);
}
);
background = {
anchors = (
{
name = bottom;
pos = (179,0);
},
{
name = top;
pos = (269,448);
}
);
shapes = (
{
closed = 1;
nodes = (
(331,448,l),
(203,-192,l),
(315,-192,l),
(443,448,l)
);
},
{
closed = 1;
nodes = (
(95,448,l),
(33,138,ls),
(14,42,o),
(58,-4,o),
(137,-4,cs),
(214,-4,o),
(281,49,o),
(348,111,c),
(308,160,l),
(268,116,o),
(216,80,o),
(179,80,cs),
(146,80,o),
(137,97,o),
(145,138,cs),
(207,448,l)
);
}
);
};
layerId = "EBAB10B0-9FDE-44C7-9B16-DD2313400F4E";
shapes = (
{
closed = 1;
nodes = (
(331,448,l),
(265,120,l),
(236,97,o),
(204,80,o),
(179,80,cs),
(146,80,o),
(137,97,o),
(145,138,cs),
(207,448,l),
(95,448,l),
(33,138,ls),
(14,42,o),
(58,-4,o),
(137,-4,cs),
(176,-4,o),
(212,9,o),
(248,31,c),
(203,-192,l),
(315,-192,l),
(443,448,l)
);
}
);
width = 448;
},
{
anchors = (
{
name = bottom;
pos = (179,0);
},
{
name = top;
pos = (269,448);
}
);
background = {
anchors = (
{
name = bottom;
pos = (179,0);
},
{
name = top;
pos = (269,448);
}
);
shapes = (
{
closed = 1;
nodes = (
(379,448,l),
(251,-192,l),
(299,-192,l),
(427,448,l)
);
},
{
closed = 1;
nodes = (
(111,448,l),
(50,141,ls),
(28,28,o),
(81,-4,o),
(145,-4,cs),
(216,-4,o),
(295,52,o),
(342,101,c),
(323,121,l),
(267,76,o),
(213,40,o),
(156,40,cs),
(99,40,o),
(83,67,o),
(98,141,cs),
(159,448,l)
);
}
);
};
layerId = "C21910D5-47BB-472B-A83D-89B2B42B8F2A";
shapes = (
{
closed = 1;
nodes = (
(379,448,l),
(312,112,l),
(260,71,o),
(209,40,o),
(156,40,cs),
(99,40,o),
(83,67,o),
(98,141,cs),
(159,448,l),
(111,448,l),
(50,141,ls),
(28,28,o),
(81,-4,o),
(145,-4,cs),
(199,-4,o),
(257,28,o),
(302,65,c),
(251,-192,l),
(299,-192,l),
(427,448,l)
);
}
);
width = 448;
},
{
anchors = (
{
name = bottom;
pos = (224,0);
},
{
name = top;
pos = (224,448);
}
);
associatedMasterId = "95FB0C11-C828-4064-8966-34220AA4D426";
attr = {
coordinates = (
400,
-77,
0
);
};
background = {
anchors = (
{
name = bottom;
pos = (224,0);
},
{
name = top;
pos = (224,448);
}
);
guides = (
{
pos = (0,88);
}
);
shapes = (
{
closed = 1;
nodes = (
(316,448,l),
(316,-64,l),
(388,-64,l),
(388,448,l)
);
},
{
closed = 1;
nodes = (
(60,448,l),
(60,236,ls),
(60,131,o),
(116,88,o),
(189,88,cs),
(262,88,o),
(322,142,o),
(363,198,c),
(331,226,l),
(296,186,o),
(250,152,o),
(203,152,cs),
(155,152,o),
(132,182,o),
(132,239,cs),
(132,448,l)
);
}
);
};
guides = (
{
pos = (0,88);
}
);
layerId = "938CFC06-9E83-47B9-8323-3CB5D22962D5";
name = "{400, 0, -64}";
shapes = (
{
closed = 1;
nodes = (
(316,448,l),
(316,210,l),
(284,178,o),
(244,152,o),
(203,152,cs),
(155,152,o),
(132,182,o),
(132,239,cs),
(132,448,l),
(60,448,l),
(60,236,ls),
(60,131,o),
(116,88,o),
(189,88,cs),
(238,88,o),
(280,112,o),
(316,145,c),
(316,-64,l),
(388,-64,l),
(388,448,l)
);
}
);
width = 448;
},
{
anchors = (
{
name = bottom;
pos = (179,0);
},
{
name = top;
pos = (269,448);
}
);
associatedMasterId = "BA106321-29DE-4FD0-898D-B7B08A4D4215";
attr = {
coordinates = (
400,
-77,
1
);
};
background = {
anchors = (
{
name = bottom;
pos = (179,0);
},
{
name = top;
pos = (269,448);
}
);
guides = (
{
pos = (0,88);
}
);
shapes = (
{
closed = 1;
nodes = (
(361,448,l),
(258,-64,l),
(330,-64,l),
(433,448,l)
);
},
{
closed = 1;
nodes = (
(105,448,l),
(63,240,ls),
(42,134,o),
(91,88,o),
(167,88,c),
(237,88,o),
(306,140,o),
(359,196,c),
(329,228,l),
(287,188,o),
(233,152,o),
(183,152,cs),
(139,152,o),
(122,179,o),
(134,236,cs),
(177,448,l)
);
}
);
};
guides = (
{
pos = (0,88);
}
);
layerId = "BDB63052-6D74-4AFB-B911-F51F14002908";
name = "{400, 1, -64}";
shapes = (
{
closed = 1;
nodes = (
(361,448,l),
(314,214,l),
(275,180,o),
(227,152,o),
(183,152,cs),
(139,152,o),
(122,179,o),
(134,236,cs),
(177,448,l),
(105,448,l),
(63,240,ls),
(42,134,o),
(91,88,o),
(167,88,cs),
(213,88,o),
(259,111,o),
(299,142,c),
(258,-64,l),
(330,-64,l),
(433,448,l)
);
}
);
width = 448;
},
{
anchors = (
{
name = bottom;
pos = (224,0);
},
{
name = top;
pos = (224,448);
}
);
associatedMasterId = "92967D72-867E-4A8B-929F-F44D834DD4C9";
attr = {
coordinates = (
700,
-77,
0
);
};
background = {
anchors = (
{
name = bottom;
pos = (224,0);
},
{
name = top;
pos = (224,448);
}
);
shapes = (
{
closed = 1;
nodes = (
(286,448,l),
(286,-192,l),
(398,-192,l),
(398,448,l)
);
},
{
closed = 1;
nodes = (
(50,448,l),
(50,134,ls),
(50,38,o),
(100,-4,o),
(176,-4,cs),
(256,-4,o),
(314,52,o),
(368,114,c),
(324,156,l),
(291,112,o),
(248,80,o),
(214,80,cs),
(178,80,o),
(162,101,o),
(162,142,cs),
(162,448,l)
);
}
);
};
layerId = "15097F56-24F4-49B3-A231-F447187ECB06";
name = "5. Mar 25 at 19:08";
shapes = (
{
closed = 1;
nodes = (
(286,448,l),
(286,211,l),
(262,190,o),
(236,176,o),
(214,176,cs),
(178,176,o),
(162,197,o),
(162,238,cs),
(162,448,l),
(50,448,l),
(50,230,ls),
(50,134,o),
(100,92,o),
(176,92,cs),
(218,92,o),
(253,107,o),
(286,131,c),
(286,-64,l),
(398,-64,l),
(398,448,l)
);
}
);
width = 448;
},
{
anchors = (
{
name = bottom;
pos = (224,0);
},
{
name = top;
pos = (224,448);
}
);
associatedMasterId = "7DDCEF54-C770-4FAD-B154-EE8058BAA7E5";
attr = {
coordinates = (
200,
-77,
0
);
};
background = {
anchors = (
{
name = bottom;
pos = (224,0);
},
{
name = top;
pos = (224,448);
}
);
shapes = (
{
closed = 1;
nodes = (
(334,448,l),
(334,-192,l),
(382,-192,l),
(382,448,l)
);
},
{
closed = 1;
nodes = (
(66,448,l),
(66,139,ls),
(66,26,o),
(125,-4,o),
(187,-4,cs),
(260,-4,o),
(328,54,o),
(365,103,c),
(345,120,l),
(298,75,o),
(251,40,o),
(196,40,cs),
(137,40,o),
(114,69,o),
(114,143,cs),
(114,448,l)
);
}
);
};
layerId = "AA649C41-7B97-4159-BB8D-7386F5743B83";
name = "5. Mar 25 at 19:09";
shapes = (
{
closed = 1;
nodes = (
(334,448,l),
(334,206,l),
(291,166,o),
(247,136,o),
(196,136,cs),
(137,136,o),
(114,165,o),
(114,239,cs),
(114,448,l),
(66,448,l),
(66,235,ls),
(66,122,o),
(125,92,o),
(187,92,cs),
(243,92,o),
(296,126,o),
(334,164,c),
(334,-64,l),
(382,-64,l),
(382,448,l)
);
}
);
visible = 1;
width = 448;
},
{
anchors = (
{
name = bottom;
pos = (179,0);
},
{
name = top;
pos = (269,448);
}
);
associatedMasterId = "EBAB10B0-9FDE-44C7-9B16-DD2313400F4E";
attr = {
coordinates = (
700,
-77,
1
);
};
background = {
anchors = (
{
name = bottom;
pos = (179,0);
},
{
name = top;
pos = (269,448);
}
);
shapes = (
{
closed = 1;
nodes = (
(331,448,l),
(203,-192,l),
(315,-192,l),
(443,448,l)
);
},
{
closed = 1;
nodes = (
(95,448,l),
(33,138,ls),
(14,42,o),
(58,-4,o),
(137,-4,cs),
(214,-4,o),
(281,49,o),
(348,111,c),
(308,160,l),
(268,116,o),
(216,80,o),
(179,80,cs),
(146,80,o),
(137,97,o),
(145,138,cs),
(207,448,l)
);
}
);
};
layerId = "8B981212-3820-4C07-A898-71BB27BE61E1";
name = "5. Mar 25 at 19:10";
shapes = (
{
closed = 1;
nodes = (
(331,448,l),
(284,216,l),
(255,193,o),
(223,176,o),
(198,176,cs),
(165,176,o),
(156,193,o),
(164,234,cs),
(207,448,l),
(95,448,l),
(52,234,ls),
(33,138,o),
(77,92,o),
(156,92,cs),
(195,92,o),
(231,105,o),
(267,127,c),
(229,-64,l),
(341,-64,l),
(443,448,l)
);
}
);
width = 448;
},
{
anchors = (
{
name = bottom;
pos = (179,0);
},
{
name = top;
pos = (269,448);
}
);
associatedMasterId = "C21910D5-47BB-472B-A83D-89B2B42B8F2A";
attr = {
coordinates = (
200,
-77,
1
);
};
background = {
anchors = (
{
name = bottom;
pos = (179,0);
},
{
name = top;
pos = (269,448);
}
);
shapes = (
{
closed = 1;
nodes = (
(379,448,l),
(251,-192,l),
(299,-192,l),
(427,448,l)
);
},
{
closed = 1;
nodes = (
(111,448,l),
(50,141,ls),
(28,28,o),
(81,-4,o),
(145,-4,cs),
(216,-4,o),
(295,52,o),
(342,101,c),
(323,121,l),
(267,76,o),
(213,40,o),
(156,40,cs),
(99,40,o),
(83,67,o),
(98,141,cs),
(159,448,l)
);
}
);
};
layerId = "2F032CF0-8796-4A81-B9DC-2A8B53DBE56A";
name = "5. Mar 25 at 19:10";
shapes = (
{
closed = 1;
nodes = (
(379,448,l),
(331,208,l),
(279,167,o),
(228,136,o),
(175,136,cs),
(118,136,o),
(102,163,o),
(117,237,cs),
(159,448,l),
(111,448,l),
(69,237,ls),
(47,124,o),
(100,92,o),
(164,92,cs),
(218,92,o),
(276,124,o),
(321,161,c),
(277,-64,l),
(325,-64,l),
(427,448,l)
);
}
);
width = 448;
}
);
unicode = 613;
}
{
glyphname = ezh;
kernLeft = ezh;
kernRight = ezh;
layers = (
{
anchors = (
{
name = bottom;
pos = (224,-192);
},
{
name = top;
pos = (224,448);
}
);
background = {
anchors = (
{
name = bottom;
pos = (224,-192);
},
{
name = top;
pos = (224,448);
}
);
hints = (
{
horizontal = 1;
options = 4;
place = (0,384);
target = (1,4);
type = TTStem;
},
{
horizontal = 1;
options = 4;
place = (0,-136);
target = (2,14);
type = TTStem;
},
{
horizontal = 1;
other1 = (2,8);
place = (0,-200);
target = (2,21);
type = TTInterpolate;
},
{
horizontal = 1;
options = 4;
place = (0,168);
target = (0,0,2,5);
type = TTStem;
},
{
horizontal = 1;
options = 4;
place = (0,169);
target = (2,6);
type = TTShift;
},
{
horizontal = 1;
options = 4;
place = (0,396);
target = (1,1);
type = TTShift;
},
{
options = 8;
place = (0,0);
type = TTSnap;
},
{
options = 8;
place = (0,0);
type = TTSnap;
},
{
options = 4;
place = (0,324);
target = (2,11);
type = TTStem;
},
{
place = (0,384);
target = (1,2);
type = TTShift;
},
{
place = (0,59);
target = (2,18);
type = TTShift;
},
{
other1 = (2,7);
place = (0,400);
target = (2,2);
type = TTInterpolate;
},
{
options = 4;
place = (0,290);
target = (0,2,1,0);
type = TTStem;
},
{
options = 4;
place = (0,212);
target = (0,0,2,5);
type = TTStem;
}
);
shapes = (
{
closed = 1;
nodes = (
(384,396,l),
(312,413,l),
(127,169,l),
(199,152,l)
);
},
{
closed = 1;
nodes = (
(348,384,l),
(384,396,l),
(384,448,l),
(70,448,l),
(70,384,l)
);
},
{
closed = 1;
nodes = (
(326,-200,o),
(400,-125,o),
(400,-16,cs),
(400,93,o),
(327,169,o),
(193,169,cs),
(127,169,l),
(127,105,l),
(179,105,ls),
(274,105,o),
(324,67,o),
(324,-13,cs),
(324,-96,o),
(276,-136,o),
(193,-136,cs),
(155,-136,o),
(115,-131,o),
(75,-120,c),
(59,-178,l),
(102,-193,o),
(149,-200,o),
(199,-200,cs)
);
}
);
};
hints = (
{
horizontal = 1;
options = 4;
origin = (0,25);
target = (0,26);
type = TTStem;
},
{
horizontal = 1;
options = 4;
origin = (0,16);
target = (0,9);
type = TTStem;
},
{
horizontal = 1;
origin = (0,25);
other1 = (0,3);
target = (0,16);
type = TTInterpolate;
},
{
horizontal = 1;
options = 4;
origin = (0,3);
target = (0,22);
type = TTStem;
},
{
horizontal = 1;
options = 4;
origin = (0,22);
target = (0,1);
type = TTShift;
},
{
horizontal = 1;
options = 4;
origin = (0,26);
target = (0,23);
type = TTShift;
},
{
options = 8;
origin = (0,25);
type = TTSnap;
},
{
options = 8;
origin = (0,19);
type = TTSnap;
},
{
options = 4;
origin = (0,19);
target = (0,6);
type = TTStem;
},
{
origin = (0,19);
target = (0,24);
type = TTShift;
},
{
origin = (0,25);
target = (0,13);
type = TTShift;
},
{
origin = (0,25);
other1 = (0,2);
target = (0,19);
type = TTInterpolate;
},
{
options = 4;
origin = (0,24);
target = (0,0);
type = TTStem;
},
{
options = 4;
origin = (0,2);
target = (0,22);
type = TTStem;
}
);
layerId = "95FB0C11-C828-4064-8966-34220AA4D426";
shapes = (
{
closed = 1;
nodes = (
(290,384,l),
(127,169,l),
(127,105,l),
(179,105,ls),
(274,105,o),
(324,67,o),
(324,-13,cs),
(324,-96,o),
(276,-136,o),
(193,-136,cs),
(155,-136,o),
(115,-131,o),
(75,-120,c),
(59,-178,l),
(102,-193,o),
(149,-200,o),
(199,-200,cs),
(326,-200,o),
(400,-125,o),
(400,-16,cs),
(400,88,o),
(333,162,o),
(212,168,c),
(384,396,l),
(384,448,l),
(70,448,l),
(70,384,l)
);
}
);
width = 448;
},
{
anchors = (
{
name = bottom;
pos = (224,-192);
},
{
name = top;
pos = (224,448);
}
);
background = {
anchors = (
{
name = bottom;
pos = (224,-192);
},
{
name = top;
pos = (224,448);
}
);
shapes = (
{
closed = 1;
nodes = (
(394,388,l),
(276,405,l),
(107,177,l),
(225,160,l)
);
},
{
closed = 1;
nodes = (
(348,368,l),
(394,388,l),
(394,448,l),
(60,448,l),
(60,368,l)
);
},
{
closed = 1;
nodes = (
(332,-200,o),
(410,-123,o),
(410,-12,cs),
(410,99,o),
(338,177,o),
(205,177,cs),
(107,177,l),
(107,97,l),
(174,97,ls),
(252,97,o),
(294,63,o),
(294,-9,cs),
(294,-86,o),
(254,-120,o),
(181,-120,cs),
(147,-120,o),
(108,-115,o),
(70,-104,c),
(49,-178,l),
(95,-193,o),
(145,-200,o),
(199,-200,cs)
);
}
);
};
layerId = "92967D72-867E-4A8B-929F-F44D834DD4C9";
shapes = (
{
closed = 1;
nodes = (
(249,368,l),
(107,177,l),
(107,97,l),
(174,97,ls),
(252,97,o),
(294,63,o),
(294,-9,cs),
(294,-86,o),
(254,-120,o),
(181,-120,cs),
(147,-120,o),
(108,-115,o),
(70,-104,c),
(49,-178,l),
(95,-193,o),
(145,-200,o),
(199,-200,cs),
(332,-200,o),
(410,-123,o),
(410,-12,cs),
(410,90,o),
(349,164,o),
(236,175,c),
(394,388,l),
(394,448,l),
(60,448,l),
(60,368,l)
);
}
);
width = 448;
},
{
anchors = (
{
name = bottom;
pos = (224,-192);
},
{
name = top;
pos = (224,448);
}
);
background = {
anchors = (
{
name = bottom;
pos = (224,-192);
},
{
name = top;
pos = (224,448);
}
);
shapes = (
{
closed = 1;
nodes = (
(377,411,l),
(334,428,l),
(140,159,l),
(184,142,l)
);
},
{
closed = 1;
nodes = (
(348,404,l),
(377,411,l),
(377,448,l),
(77,448,l),
(77,404,l)
);
},
{
closed = 1;
nodes = (
(323,-200,o),
(394,-127,o),
(394,-20,cs),
(394,93,o),
(326,159,o),
(177,159,cs),
(140,159,l),
(140,115,l),
(172,115,ls),
(290,115,o),
(344,75,o),
(344,-18,cs),
(344,-107,o),
(291,-156,o),
(196,-156,cs),
(160,-156,o),
(119,-151,o),
(77,-140,c),
(66,-178,l),
(107,-193,o),
(152,-200,o),
(199,-200,cs)
);
}
);
};
layerId = "7DDCEF54-C770-4FAD-B154-EE8058BAA7E5";
shapes = (
{
closed = 1;
nodes = (
(317,404,l),
(140,159,l),
(140,115,l),
(172,115,ls),
(290,115,o),
(344,75,o),
(344,-18,cs),
(344,-107,o),
(291,-156,o),
(196,-156,cs),
(160,-156,o),
(119,-151,o),
(77,-140,c),
(66,-178,l),
(107,-193,o),
(152,-200,o),
(199,-200,cs),
(323,-200,o),
(394,-127,o),
(394,-20,cs),
(394,88,o),
(333,153,o),
(196,159,c),
(377,411,l),
(377,448,l),
(77,448,l),
(77,404,l)
);
}
);
width = 448;
},
{
anchors = (
{
name = bottom;
pos = (140,-192);
},
{
name = top;
pos = (269,448);
}
);
background = {
anchors = (
{
name = bottom;
pos = (140,-192);
},
{
name = top;
pos = (269,448);
}
);
shapes = (
{
closed = 1;
nodes = (
(418,396,l),
(350,413,l),
(116,169,l),
(184,152,l)
);
},
{
closed = 1;
nodes = (
(380,384,l),
(418,396,l),
(429,448,l),
(115,448,l),
(102,384,l)
);
},
{
closed = 1;
nodes = (
(244,-200,o),
(329,-128,o),
(351,-19,cs),
(373,90,o),
(313,169,o),
(179,169,cs),
(116,169,l),
(103,105,l),
(158,105,ls),
(253,105,o),
(293,70,o),
(277,-10,cs),
(260,-93,o),
(201,-136,o),
(118,-136,cs),
(80,-136,o),
(41,-132,o),
(3,-121,c),
(-19,-177,l),
(21,-192,o),
(67,-200,o),
(117,-200,cs)
);
}
);
};
layerId = "BA106321-29DE-4FD0-898D-B7B08A4D4215";
shapes = (
{
closed = 1;
nodes = (
(322,384,l),
(116,169,l),
(103,105,l),
(158,105,ls),
(253,105,o),
(293,70,o),
(277,-10,cs),
(260,-93,o),
(201,-136,o),
(118,-136,cs),
(80,-136,o),
(41,-132,o),
(3,-121,c),
(-19,-177,l),
(21,-192,o),
(67,-200,o),
(117,-200,cs),
(244,-200,o),
(329,-128,o),
(351,-19,cs),
(372,85,o),
(320,160,o),
(200,168,c),
(418,396,l),
(429,448,l),
(115,448,l),
(102,384,l)
);
}
);
width = 448;
},
{
anchors = (
{
name = bottom;
pos = (140,-192);
},
{
name = top;
pos = (269,448);
}
);
background = {
anchors = (
{
name = bottom;
pos = (140,-192);
},
{
name = top;
pos = (269,448);
}
);
shapes = (
{
closed = 1;
nodes = (
(427,388,l),
(312,405,l),
(97,177,l),
(212,160,l)
);
},
{
closed = 1;
nodes = (
(377,368,l),
(427,388,l),
(439,448,l),
(105,448,l),
(89,368,l)
);
},
{
closed = 1;
nodes = (
(250,-200,o),
(340,-127,o),
(362,-16,cs),
(384,95,o),
(325,177,o),
(192,177,cs),
(97,177,l),
(81,97,l),
(152,97,ls),
(230,97,o),
(262,67,o),
(248,-5,cs),
(233,-82,o),
(182,-120,o),
(109,-120,cs),
(75,-120,o),
(37,-116,o),
(1,-105,c),
(-28,-177,l),
(15,-192,o),
(63,-200,o),
(117,-200,cs)
);
}
);
};
layerId = "EBAB10B0-9FDE-44C7-9B16-DD2313400F4E";
shapes = (
{
closed = 1;
nodes = (
(277,368,l),
(97,177,l),
(81,97,l),
(152,97,ls),
(230,97,o),
(262,67,o),
(248,-5,cs),
(233,-82,o),
(182,-120,o),
(109,-120,cs),
(75,-120,o),
(37,-116,o),
(1,-105,c),
(-28,-177,l),
(15,-192,o),
(63,-200,o),
(117,-200,cs),
(250,-200,o),
(340,-127,o),
(362,-16,cs),
(382,85,o),
(334,162,o),
(226,175,c),
(427,388,l),
(439,448,l),
(105,448,l),
(89,368,l)
);
}
);
width = 448;
},
{
anchors = (
{
name = bottom;
pos = (140,-192);
},
{
name = top;
pos = (269,448);
}
);
background = {
anchors = (
{
name = bottom;
pos = (140,-192);
},
{
name = top;
pos = (269,448);
}
);
shapes = (
{
closed = 1;
nodes = (
(414,411,l),
(371,428,l),
(127,159,l),
(171,142,l)
);
},
{
closed = 1;
nodes = (
(384,404,l),
(414,411,l),
(422,448,l),
(122,448,l),
(113,404,l)
);
},
{
closed = 1;
nodes = (
(240,-200,o),
(323,-129,o),
(345,-22,cs),
(367,91,o),
(311,159,o),
(162,159,cs),
(127,159,l),
(118,115,l),
(152,115,ls),
(270,115,o),
(314,77,o),
(296,-16,cs),
(278,-105,o),
(213,-156,o),
(118,-156,cs),
(82,-156,o),
(42,-151,o),
(2,-140,c),
(-13,-177,l),
(25,-192,o),
(69,-200,o),
(116,-200,cs)
);
}
);
};
layerId = "C21910D5-47BB-472B-A83D-89B2B42B8F2A";
shapes = (
{
closed = 1;
nodes = (
(349,404,l),
(127,159,l),
(118,115,l),
(152,115,ls),
(270,115,o),
(315,77,o),
(296,-16,cs),
(278,-105,o),
(213,-156,o),
(118,-156,cs),
(82,-156,o),
(42,-151,o),
(2,-140,c),
(-13,-177,l),
(25,-192,o),
(69,-200,o),
(116,-200,cs),
(240,-200,o),
(323,-129,o),
(345,-22,cs),
(367,86,o),
(317,151,o),
(186,158,c),
(414,411,l),
(422,448,l),
(122,448,l),
(113,404,l)
);
}
);
width = 448;
},
{
anchors = (
{
name = bottom;
pos = (224,-64);
},
{
name = top;
pos = (224,448);
}
);
associatedMasterId = "95FB0C11-C828-4064-8966-34220AA4D426";
attr = {
coordinates = (
400,
-64,
0
);
};
background = {
anchors = (
{
name = bottom;
pos = (224,-64);
},
{
name = top;
pos = (224,448);
}
);
shapes = (
{
closed = 1;
nodes = (
(384,396,l),
(308,413,l),
(127,233,l),
(203,216,l)
);
},
{
closed = 1;
nodes = (
(348,384,l),
(384,396,l),
(384,448,l),
(70,448,l),
(70,384,l)
);
},
{
closed = 1;
nodes = (
(326,-72,o),
(400,-10,o),
(400,80,cs),
(400,170,o),
(327,233,o),
(193,233,cs),
(127,233,l),
(127,169,l),
(179,169,ls),
(274,169,o),
(324,141,o),
(324,83,cs),
(324,22,o),
(276,-8,o),
(193,-8,cs),
(155,-8,o),
(115,-3,o),
(75,8,c),
(59,-50,l),
(102,-65,o),
(149,-72,o),
(199,-72,cs)
);
}
);
};
layerId = "AEDF35EF-899B-4DA7-8AAF-26D0106905AC";
name = "{400, 0, -64}";
shapes = (
{
closed = 1;
nodes = (
(279,384,l),
(127,233,l),
(127,169,l),
(179,169,ls),
(274,169,o),
(324,141,o),
(324,83,cs),
(324,22,o),
(276,-8,o),
(193,-8,cs),
(155,-8,o),
(115,-3,o),
(75,8,c),
(59,-50,l),
(102,-65,o),
(149,-72,o),
(199,-72,cs),
(326,-72,o),
(400,-10,o),
(400,80,cs),
(400,164,o),
(337,224,o),
(219,232,c),
(384,396,l),
(384,448,l),
(70,448,l),
(70,384,l)
);
}
);
width = 448;
},
{
anchors = (
{
name = bottom;
pos = (167,-64);
},
{
name = top;
pos = (269,448);
}
);
associatedMasterId = "BA106321-29DE-4FD0-898D-B7B08A4D4215";
attr = {
coordinates = (
400,
-64,
1
);
};
background = {
anchors = (
{
name = bottom;
pos = (167,-64);
},
{
name = top;
pos = (269,448);
}
);
shapes = (
{
closed = 1;
nodes = (
(419,396,l),
(345,413,l),
(128,233,l),
(202,216,l)
);
},
{
closed = 1;
nodes = (
(380,384,l),
(419,396,l),
(429,448,l),
(115,448,l),
(102,384,l)
);
},
{
closed = 1;
nodes = (
(269,-72,o),
(353,-13,o),
(370,74,cs),
(389,167,o),
(326,233,o),
(192,233,cs),
(129,233,l),
(116,169,l),
(171,169,ls),
(266,169,o),
(308,144,o),
(297,89,cs),
(284,25,o),
(227,-8,o),
(142,-8,cs),
(106,-8,o),
(67,-4,o),
(29,7,c),
(6,-49,l),
(47,-64,o),
(92,-72,o),
(145,-72,cs)
);
}
);
};
layerId = "266CF7D9-E99C-423A-9E74-B08F1F6D0382";
name = "{400, 1, -64}";
shapes = (
{
closed = 1;
nodes = (
(310,384,l),
(129,233,l),
(116,169,l),
(171,169,ls),
(266,169,o),
(308,144,o),
(297,89,cs),
(284,25,o),
(227,-8,o),
(142,-8,cs),
(106,-8,o),
(67,-4,o),
(29,7,c),
(6,-49,l),
(47,-64,o),
(92,-72,o),
(145,-72,cs),
(269,-72,o),
(353,-13,o),
(370,74,cs),
(387,161,o),
(335,223,o),
(221,232,c),
(419,396,l),
(429,448,l),
(115,448,l),
(102,384,l)
);
}
);
width = 448;
}
);
unicode = 658;
}
{
glyphname = dotaccentcomb;
layers = (
{
anchors = (
{
name = _top;
pos = (224,448);
},
{
name = top;
pos = (224,642);
}
);
hints = (
{
horizontal = 1;
origin = (0,11);
stem = -1;
target = (0,5);
type = TTStem;
},
{
origin = (0,2);
type = TTSnap;
},
{
origin = (0,2);
stem = -1;
target = (0,8);
type = TTStem;
},
{
horizontal = 1;
origin = (0,11);
stem = 4;
type = TTSnap;
}
);
layerId = "95FB0C11-C828-4064-8966-34220AA4D426";
shapes = (
{
closed = 1;
nodes = (
(256,532,o),
(283,552,o),
(283,591,cs),
(283,629,o),
(256,650,o),
(224,650,cs),
(192,650,o),
(165,629,o),
(165,591,cs),
(165,552,o),
(192,532,o),
(224,532,cs)
);
}
);
width = 448;
},
{
anchors = (
{
name = _top;
pos = (224,448);
},
{
name = top;
pos = (224,650);
}
);
layerId = "92967D72-867E-4A8B-929F-F44D834DD4C9";
shapes = (
{
closed = 1;
nodes = (
(261,520,o),
(293,543,o),
(293,589,cs),
(293,633,o),
(261,658,o),
(224,658,cs),
(187,658,o),
(155,633,o),
(155,589,cs),
(155,543,o),
(187,520,o),
(224,520,cs)
);
}
);
width = 448;
},
{
anchors = (
{
name = _top;
pos = (224,448);
},
{
name = top;
pos = (224,627);
}
);
layerId = "7DDCEF54-C770-4FAD-B154-EE8058BAA7E5";
shapes = (
{
closed = 1;
nodes = (
(253,539,o),
(277,557,o),
(277,592,cs),
(277,627,o),
(253,645,o),
(224,645,cs),
(195,645,o),
(171,627,o),
(171,592,cs),
(171,557,o),
(195,539,o),
(224,539,cs)
);
}
);
width = 448;
},
{
anchors = (
{
name = _top;
pos = (269,448);
},
{
name = top;
pos = (303,627);
}
);
background = {
shapes = (
{
closed = 1;
nodes = (
(318,539,o),
(343,555,o),
(350,588,cs),
(358,625,o),
(335,645,o),
(305,645,cs),
(277,645,o),
(251,629,o),
(245,596,cs),
(238,559,o),
(260,539,o),
(290,539,cs)
);
}
);
};
layerId = "C21910D5-47BB-472B-A83D-89B2B42B8F2A";
shapes = (
{
closed = 1;
nodes = (
(326,539,o),
(350,557,o),
(350,592,cs),
(350,627,o),
(326,645,o),
(297,645,cs),
(268,645,o),
(244,627,o),
(244,592,cs),
(244,557,o),
(268,539,o),
(297,539,cs)
);
}
);
width = 448;
},
{
anchors = (
{
name = _top;
pos = (269,448);
},
{
name = top;
pos = (307,642);
}
);
background = {
shapes = (
{
closed = 1;
nodes = (
(231,555,o),
(256,532,o),
(291,532,cs),
(320,532,o),
(348,549,o),
(355,585,cs),
(363,626,o),
(339,650,o),
(304,650,cs),
(275,650,o),
(247,632,o),
(240,597,cs)
);
}
);
};
layerId = "BA106321-29DE-4FD0-898D-B7B08A4D4215";
shapes = (
{
closed = 1;
nodes = (
(329,532,o),
(356,552,o),
(356,591,cs),
(356,629,o),
(329,650,o),
(297,650,cs),
(265,650,o),
(238,629,o),
(238,591,cs),
(238,552,o),
(265,532,o),
(297,532,cs)
);
}
);
width = 448;
},
{
anchors = (
{
name = _top;
pos = (269,448);
},
{
name = top;
pos = (309,650);
}
);
background = {
shapes = (
{
closed = 1;
nodes = (
(323,520,o),
(356,539,o),
(364,580,cs),
(374,629,o),
(345,658,o),
(304,658,cs),
(271,658,o),
(238,637,o),
(230,598,cs),
(220,547,o),
(249,520,o),
(290,520,cs)
);
}
);
};
layerId = "EBAB10B0-9FDE-44C7-9B16-DD2313400F4E";
shapes = (
{
closed = 1;
nodes = (
(334,520,o),
(366,543,o),
(366,589,cs),
(366,633,o),
(334,658,o),
(297,658,cs),
(260,658,o),
(228,633,o),
(228,589,cs),
(228,543,o),
(260,520,o),
(297,520,cs)
);
}
);
width = 448;
}
);
unicode = 775;
}
{
color = 6;
glyphname = commaaboverightcomb;
layers = (
{
anchors = (
{
name = _top;
pos = (224,448);
}
);
hints = (
{
horizontal = 1;
<<<<<<<< HEAD:sources-design/Sudo.glyphspackage/glyphs/commaaboverightcomb.glyph
place = (0,0);
========
origin = (0,15);
stem = 4;
>>>>>>>> gf-release:sources/Sudo.glyphspackage/glyphs/commaturnedabovecomb.glyph
type = TTSnap;
},
{
horizontal = 1;
<<<<<<<< HEAD:sources-design/Sudo.glyphspackage/glyphs/commaaboverightcomb.glyph
place = (512,128);
stem = -1;
========
origin = (0,15);
stem = -1;
target = (0,9);
>>>>>>>> gf-release:sources/Sudo.glyphspackage/glyphs/commaturnedabovecomb.glyph
type = TTStem;
}
);
layerId = "95FB0C11-C828-4064-8966-34220AA4D426";
shapes = (
{
<<<<<<<< HEAD:sources-design/Sudo.glyphspackage/glyphs/commaaboverightcomb.glyph
pos = (160,0);
ref = commaabovecomb;
========
closed = 1;
nodes = (
(255,503,o),
(282,526,o),
(282,562,cs),
(282,594,o),
(264,615,o),
(233,621,c),
(239,645,o),
(257,664,o),
(279,681,c),
(241,723,l),
(200,691,o),
(164,643,o),
(164,581,cs),
(164,524,o),
(192,503,o),
(226,503,cs)
);
>>>>>>>> gf-release:sources/Sudo.glyphspackage/glyphs/commaturnedabovecomb.glyph
}
);
width = 448;
},
{
anchors = (
{
name = _top;
pos = (224,448);
}
);
background = {
shapes = (
{
pos = (160,0);
ref = commaabovecomb;
}
);
};
layerId = "92967D72-867E-4A8B-929F-F44D834DD4C9";
shapes = (
{
closed = 1;
nodes = (
(263,506,o),
(292,535,o),
(292,576,cs),
(292,611,o),
(271,633,o),
(241,643,c),
(245,664,o),
(255,684,o),
(267,703,c),
(215,734,l),
(178,693,o),
(152,639,o),
(152,594,cs),
(152,528,o),
(190,506,o),
(225,506,cs)
);
}
);
width = 448;
},
{
anchors = (
{
name = _top;
pos = (224,448);
}
);
layerId = "7DDCEF54-C770-4FAD-B154-EE8058BAA7E5";
shapes = (
{
<<<<<<<< HEAD:sources-design/Sudo.glyphspackage/glyphs/commaaboverightcomb.glyph
pos = (160,0);
ref = commaabovecomb;
========
closed = 1;
nodes = (
(256,506,o),
(280,525,o),
(280,559,cs),
(280,589,o),
(263,611,o),
(226,612,c),
(233,644,o),
(255,668,o),
(279,690,c),
(253,721,l),
(198,677,o),
(172,637,o),
(172,579,cs),
(172,530,o),
(197,506,o),
(229,506,cs)
);
}
);
width = 448;
},
{
anchors = (
{
name = _top;
pos = (269,448);
}
);
layerId = "C21910D5-47BB-472B-A83D-89B2B42B8F2A";
shapes = (
{
closed = 1;
nodes = (
(314,506,o),
(340,523,o),
(347,557,cs),
(353,587,o),
(339,611,o),
(302,612,c),
(317,642,o),
(345,667,o),
(373,689,c),
(351,722,l),
(287,678,o),
(254,639,o),
(243,581,cs),
(234,532,o),
(255,506,o),
(287,506,cs)
);
>>>>>>>> gf-release:sources/Sudo.glyphspackage/glyphs/commaturnedabovecomb.glyph
}
);
width = 448;
},
{
anchors = (
{
name = _top;
pos = (269,448);
}
);
layerId = "BA106321-29DE-4FD0-898D-B7B08A4D4215";
shapes = (
{
<<<<<<<< HEAD:sources-design/Sudo.glyphspackage/glyphs/commaaboverightcomb.glyph
pos = (160,0);
ref = commaabovecomb;
========
closed = 1;
nodes = (
(313,503,o),
(342,523,o),
(349,559,cs),
(355,591,o),
(340,614,o),
(310,620,c),
(323,642,o),
(347,662,o),
(372,679,c),
(339,725,l),
(292,693,o),
(248,646,o),
(236,584,cs),
(225,527,o),
(250,503,o),
(284,503,cs)
);
>>>>>>>> gf-release:sources/Sudo.glyphspackage/glyphs/commaturnedabovecomb.glyph
}
);
width = 448;
},
{
anchors = (
{
name = _top;
pos = (269,448);
}
);
layerId = "EBAB10B0-9FDE-44C7-9B16-DD2313400F4E";
shapes = (
{
<<<<<<<< HEAD:sources-design/Sudo.glyphspackage/glyphs/commaaboverightcomb.glyph
pos = (160,0);
ref = commaabovecomb;
}
========
closed = 1;
nodes = (
(323,506,o),
(353,531,o),
(362,572,cs),
(369,607,o),
(350,632,o),
(322,642,c),
(333,660,o),
(348,680,o),
(364,699,c),
(316,737,l),
(270,696,o),
(236,643,o),
(227,598,cs),
(214,532,o),
(250,506,o),
(285,506,cs)
>>>>>>>> gf-release:sources/Sudo.glyphspackage/glyphs/commaturnedabovecomb.glyph
);
width = 448;
},
{
anchors = (
{
name = _top;
pos = (269,448);
}
);
layerId = "C21910D5-47BB-472B-A83D-89B2B42B8F2A";
shapes = (
{
pos = (160,0);
ref = commaabovecomb;
}
);
width = 448;
}
);
unicode = 789;
}
{
glyphname = strokeshortcomb;
layers = (
{
anchors = (
{
name = "_#center";
pos = (224,224);
},
{
name = "_#stem";
pos = (216,391);
},
{
name = center;
pos = (224,192);
}
);
hints = (
{
horizontal = 1;
origin = (0,2);
type = TTSnap;
},
{
horizontal = 1;
options = 4;
origin = (0,2);
target = (0,1);
type = TTStem;
}
);
layerId = "95FB0C11-C828-4064-8966-34220AA4D426";
partSelection = {
};
shapes = (
{
closed = 1;
nodes = (
(352,254,l),
(96,254,l),
(96,194,l),
(352,194,l)
);
}
);
width = 448;
},
{
anchors = (
{
name = "_#center";
pos = (224,224);
},
{
name = "_#stem";
pos = (218,391);
},
{
name = center;
pos = (224,192);
}
);
layerId = "92967D72-867E-4A8B-929F-F44D834DD4C9";
partSelection = {
};
shapes = (
{
closed = 1;
nodes = (
(362,263,l),
(86,263,l),
(86,185,l),
(362,185,l)
);
}
);
width = 448;
},
{
anchors = (
{
name = "_#center";
pos = (224,224);
},
{
name = "_#stem";
pos = (216,391);
},
{
name = center;
pos = (224,192);
}
);
layerId = "7DDCEF54-C770-4FAD-B154-EE8058BAA7E5";
partSelection = {
};
shapes = (
{
closed = 1;
nodes = (
(348,246,l),
(100,246,l),
(100,202,l),
(348,202,l)
);
}
);
width = 448;
},
{
anchors = (
{
name = "_#center";
pos = (224,224);
},
{
name = "_#stem";
pos = (249,391);
},
{
name = center;
pos = (218,192);
}
);
layerId = "BA106321-29DE-4FD0-898D-B7B08A4D4215";
partSelection = {
};
shapes = (
{
closed = 1;
nodes = (
(358,254,l),
(102,254,l),
(90,194,l),
(346,194,l)
);
}
);
width = 448;
},
{
anchors = (
{
name = "_#center";
pos = (224,224);
},
{
name = "_#stem";
pos = (249,391);
},
{
name = center;
pos = (218,192);
}
);
layerId = "EBAB10B0-9FDE-44C7-9B16-DD2313400F4E";
partSelection = {
};
shapes = (
{
closed = 1;
nodes = (
(370,263,l),
(94,263,l),
(78,185,l),
(354,185,l)
);
}
);
width = 448;
},
{
anchors = (
{
name = "_#center";
pos = (224,224);
},
{
name = "_#stem";
pos = (249,391);
},
{
name = center;
pos = (218,192);
}
);
layerId = "C21910D5-47BB-472B-A83D-89B2B42B8F2A";
<<<<<<<< HEAD:sources-design/Sudo.glyphspackage/glyphs/strokeshortcomb.glyph
partSelection = {
};
========
>>>>>>>> gf-release:sources/Sudo.glyphspackage/glyphs/strokeshortcomb.glyph
shapes = (
{
closed = 1;
nodes = (
(352,246,l),
(104,246,l),
(96,202,l),
(344,202,l)
);
}
);
width = 448;
}
);
unicode = 821;
}
{
glyphname = dieresistonos;
layers = (
{
anchors = (
{
name = _top;
pos = (224,448);
}
);
hints = (
{
horizontal = 1;
origin = (0,0);
stem = 4;
type = TTSnap;
},
{
horizontal = 1;
origin = (0,0);
stem = -1;
target = (0,3);
type = TTStem;
},
{
horizontal = 1;
origin = (1,3);
stem = 4;
type = TTSnap;
},
{
horizontal = 1;
options = 4;
origin = (1,3);
target = (2,3);
type = TTShift;
},
{
horizontal = 1;
origin = (2,3);
stem = -1;
target = (2,9);
type = TTStem;
},
{
horizontal = 1;
options = 4;
origin = (2,9);
target = (1,9);
type = TTShift;
}
);
layerId = "95FB0C11-C828-4064-8966-34220AA4D426";
shapes = (
{
closed = 1;
nodes = (
(182,512,l),
(246,512,l),
(276,704,l),
(192,704,l)
);
},
{
closed = 1;
nodes = (
(38,591,cs),
(38,553,o),
(63,534,o),
(91,534,cs),
(119,534,o),
(144,553,o),
(144,591,cs),
(144,628,o),
(119,648,o),
(91,648,cs),
(63,648,o),
(38,628,o)
);
},
{
closed = 1;
nodes = (
(304,591,cs),
(304,553,o),
(329,534,o),
(357,534,cs),
(385,534,o),
(410,553,o),
(410,591,cs),
(410,628,o),
(385,648,o),
(357,648,cs),
(329,648,o),
(304,628,o)
);
}
);
width = 448;
},
{
anchors = (
{
name = _top;
pos = (224,448);
}
);
layerId = "92967D72-867E-4A8B-929F-F44D834DD4C9";
shapes = (
{
closed = 1;
nodes = (
(168,512,l),
(264,512,l),
(309,704,l),
(161,704,l)
);
},
{
closed = 1;
nodes = (
(19,585,cs),
(19,534,o),
(43,512,o),
(77,512,cs),
(111,512,o),
(135,534,o),
(135,585,cs),
(135,636,o),
(111,658,o),
(77,658,cs),
(43,658,o),
(19,636,o)
);
},
{
closed = 1;
nodes = (
(313,585,cs),
(313,534,o),
(337,512,o),
(371,512,cs),
(405,512,o),
(429,534,o),
(429,585,cs),
(429,636,o),
(405,658,o),
(371,658,cs),
(337,658,o),
(313,636,o)
);
}
);
width = 448;
},
{
anchors = (
{
name = _top;
pos = (224,448);
}
);
layerId = "7DDCEF54-C770-4FAD-B154-EE8058BAA7E5";
shapes = (
{
closed = 1;
nodes = (
(192,512,l),
(233,512,l),
(260,704,l),
(206,704,l)
);
},
{
closed = 1;
nodes = (
(54,595,cs),
(54,564,o),
(77,547,o),
(104,547,cs),
(130,547,o),
(154,564,o),
(154,595,cs),
(154,623,o),
(130,642,o),
(104,642,cs),
(77,642,o),
(54,623,o)
);
},
{
closed = 1;
nodes = (
(294,595,cs),
(294,564,o),
(317,547,o),
(344,547,cs),
(370,547,o),
(394,564,o),
(394,595,cs),
(394,623,o),
(370,642,o),
(344,642,cs),
(317,642,o),
(294,623,o)
);
}
);
width = 448;
},
{
anchors = (
{
name = _top;
pos = (269,448);
}
);
layerId = "C21910D5-47BB-472B-A83D-89B2B42B8F2A";
shapes = (
{
closed = 1;
nodes = (
(249,512,l),
(290,512,l),
(356,704,l),
(302,704,l)
);
},
{
closed = 1;
nodes = (
(128,597,cs),
(122,566,o),
(143,547,o),
(170,547,cs),
(196,547,o),
(221,562,o),
(228,593,cs),
(233,621,o),
(212,642,o),
(186,642,cs),
(159,642,o),
(134,625,o)
);
},
{
closed = 1;
nodes = (
(368,597,cs),
(362,566,o),
(383,547,o),
(410,547,cs),
(436,547,o),
(461,562,o),
(468,593,cs),
(473,621,o),
(452,642,o),
(426,642,cs),
(399,642,o),
(374,625,o)
);
}
);
width = 448;
},
{
anchors = (
{
name = _top;
pos = (269,448);
}
);
layerId = "BA106321-29DE-4FD0-898D-B7B08A4D4215";
shapes = (
{
closed = 1;
nodes = (
(239,512,l),
(303,512,l),
(372,704,l),
(288,704,l)
);
},
{
closed = 1;
nodes = (
(112,594,cs),
(104,556,o),
(127,534,o),
(155,534,cs),
(183,534,o),
(209,550,o),
(217,588,cs),
(224,625,o),
(201,648,o),
(173,648,cs),
(145,648,o),
(119,631,o)
);
},
{
closed = 1;
nodes = (
(378,594,cs),
(370,556,o),
(393,534,o),
(421,534,cs),
(449,534,o),
(475,550,o),
(483,588,cs),
(490,625,o),
(467,648,o),
(439,648,cs),
(411,648,o),
(385,631,o)
);
}
);
width = 448;
},
{
anchors = (
{
name = _top;
pos = (269,448);
}
);
layerId = "EBAB10B0-9FDE-44C7-9B16-DD2313400F4E";
shapes = (
{
closed = 1;
nodes = (
(225,512,l),
(321,512,l),
(405,704,l),
(257,704,l)
);
},
{
closed = 1;
nodes = (
(102,589,cs),
(92,538,o),
(114,512,o),
(148,512,cs),
(182,512,o),
(206,530,o),
(216,581,cs),
(226,632,o),
(204,658,o),
(170,658,cs),
(136,658,o),
(112,640,o)
);
},
{
closed = 1;
nodes = (
(376,589,cs),
(366,538,o),
(388,512,o),
(422,512,cs),
(456,512,o),
(480,530,o),
(490,581,cs),
(500,632,o),
(478,658,o),
(444,658,cs),
(410,658,o),
(386,640,o)
);
}
);
width = 448;
}
);
unicode = 901;
}
{
<<<<<<<< HEAD:sources-design/Sudo.glyphspackage/glyphs/T_heta.glyph
glyphname = Theta;
layers = (
{
background = {
hints = (
{
horizontal = 1;
options = 4;
place = (0,56);
target = (2,11);
type = TTStem;
},
{
horizontal = 1;
options = 4;
place = (0,584);
target = (2,5);
type = TTStem;
},
{
options = 4;
place = (0,113);
target = (2,2);
type = TTStem;
},
{
options = 4;
place = (0,335);
target = (2,8);
type = TTStem;
},
{
options = 8;
place = (0,0);
type = TTSnap;
},
{
options = 8;
place = (0,0);
type = TTSnap;
},
{
horizontal = 1;
other1 = (0,3,2,2);
place = (0,650);
target = (1,5);
type = TTInterpolate;
},
{
horizontal = 1;
options = 4;
place = (0,319);
target = (2,2);
type = TTStem;
}
);
========
glyphname = Q;
kernLeft = O;
kernRight = Q;
layers = (
{
anchors = (
{
name = bottom;
pos = (224,-192);
},
{
name = top;
pos = (224,640);
}
);
background = {
>>>>>>>> gf-release:sources/Sudo.glyphspackage/glyphs/Q_.glyph
shapes = (
{
closed = 1;
nodes = (
(384,320,l),
(64,320,l),
(64,256,l),
(384,256,l)
);
},
{
closed = 1;
nodes = (
(353,-10,o),
(411,102,o),
(411,319,cs),
(411,541,o),
(353,650,o),
(224,650,cs),
(98,650,o),
(37,541,o),
(37,319,cs),
(37,102,o),
(98,-10,o),
(224,-10,cs)
);
},
{
closed = 1;
nodes = (
(143,56,o),
(113,128,o),
(113,319,cs),
(113,512,o),
(143,584,o),
(224,584,cs),
(305,584,o),
(335,512,o),
(335,319,cs),
(335,128,o),
(305,56,o),
(224,56,cs)
);
}
);
};
hints = (
{
horizontal = 1;
options = 4;
<<<<<<<< HEAD:sources-design/Sudo.glyphspackage/glyphs/T_heta.glyph
origin = (0,11);
target = (1,6);
type = TTStem;
========
origin = (0,15);
target = (1,11);
type = TTStem;
},
{
horizontal = 1;
options = 4;
origin = (0,9);
target = (1,5);
type = TTStem;
},
{
horizontal = 1;
origin = (0,18);
type = TTSnap;
},
{
horizontal = 1;
options = 4;
origin = (0,18);
target = (0,0);
type = TTStem;
},
{
options = 4;
origin = (0,12);
target = (1,2);
type = TTStem;
},
{
options = 4;
origin = (0,6);
target = (1,8);
type = TTStem;
},
{
options = 8;
origin = (0,12);
type = TTSnap;
},
{
options = 8;
origin = (0,6);
type = TTSnap;
},
{
options = 4;
origin = (0,6);
target = (0,0);
type = TTShift;
},
{
horizontal = 1;
options = 4;
origin = (0,15);
other1 = (0,3);
target = (0,9);
type = TTInterpolate;
},
{
origin = (0,12);
other1 = (0,15);
target = (0,6);
type = TTInterpolate;
},
{
options = 4;
origin = (0,15);
target = (0,3);
type = TTStem;
}
);
layerId = "95FB0C11-C828-4064-8966-34220AA4D426";
shapes = (
{
closed = 1;
nodes = (
(415,-78,l),
(329,-72,o),
(291,-59,o),
(281,-1,c),
(370,29,o),
(411,137,o),
(411,319,cs),
(411,541,o),
(353,650,o),
(224,650,cs),
(98,650,o),
(37,541,o),
(37,319,cs),
(37,112,o),
(94,0,o),
(208,-9,c),
(227,-102,o),
(307,-137,o),
(405,-145,c)
);
},
{
closed = 1;
nodes = (
(143,56,o),
(113,128,o),
(113,319,cs),
(113,512,o),
(143,584,o),
(224,584,cs),
(305,584,o),
(335,512,o),
(335,319,cs),
(335,128,o),
(305,56,o),
(224,56,cs)
);
}
);
width = 448;
>>>>>>>> gf-release:sources/Sudo.glyphspackage/glyphs/Q_.glyph
},
{
horizontal = 1;
options = 4;
origin = (0,5);
target = (2,2);
type = TTStem;
},
{
options = 4;
origin = (0,8);
target = (2,6);
type = TTStem;
},
{
options = 4;
origin = (0,2);
target = (2,5);
type = TTStem;
},
{
options = 8;
origin = (0,8);
type = TTSnap;
},
{
options = 8;
origin = (0,2);
type = TTSnap;
},
{
horizontal = 1;
origin = (0,11);
other1 = (2,6);
target = (0,5);
type = TTInterpolate;
},
{
horizontal = 1;
options = 4;
origin = (2,6);
target = (1,2);
type = TTStem;
}
);
<<<<<<<< HEAD:sources-design/Sudo.glyphspackage/glyphs/T_heta.glyph
layerId = "95FB0C11-C828-4064-8966-34220AA4D426";
========
background = {
>>>>>>>> gf-release:sources/Sudo.glyphspackage/glyphs/Q_.glyph
shapes = (
{
closed = 1;
nodes = (
(353,-10,o),
(411,102,o),
(411,319,cs),
(411,541,o),
(353,650,o),
(224,650,cs),
(98,650,o),
(37,541,o),
(37,319,cs),
(37,102,o),
(98,-10,o),
(224,-10,cs)
);
},
{
closed = 1;
nodes = (
(153,56,o),
(121,111,o),
(114,256,c),
(334,256,l),
(327,111,o),
(295,56,o),
(224,56,cs)
);
},
{
closed = 1;
nodes = (
(113,511,o),
(143,584,o),
(224,584,cs),
(305,584,o),
(335,511,o),
(335,320,c),
(113,320,l)
);
}
);
width = 448;
},
{
background = {
shapes = (
{
closed = 1;
nodes = (
(384,328,l),
(64,328,l),
(64,248,l),
(384,248,l)
);
},
{
closed = 1;
nodes = (
(360,-10,o),
(421,102,o),
(421,319,cs),
(421,541,o),
(360,650,o),
(224,650,cs),
(92,650,o),
(27,541,o),
(27,319,cs),
(27,102,o),
(92,-10,o),
(224,-10,cs)
);
},
{
closed = 1;
nodes = (
(165,72,o),
(143,140,o),
(143,319,cs),
(143,500,o),
(165,568,o),
(224,568,cs),
(283,568,o),
(305,500,o),
(305,319,cs),
(305,140,o),
(283,72,o),
(224,72,cs)
);
}
);
};
layerId = "92967D72-867E-4A8B-929F-F44D834DD4C9";
<<<<<<<< HEAD:sources-design/Sudo.glyphspackage/glyphs/T_heta.glyph
========
shapes = (
{
closed = 1;
nodes = (
(421,-60,l),
(344,-58,o),
(299,-46,o),
(283,-2,c),
(378,28,o),
(421,136,o),
(421,319,cs),
(421,541,o),
(360,650,o),
(224,650,cs),
(92,650,o),
(27,541,o),
(27,319,cs),
(27,121,o),
(81,11,o),
(191,-7,c),
(216,-104,o),
(286,-147,o),
(412,-152,c)
);
},
{
closed = 1;
nodes = (
(165,72,o),
(143,140,o),
(143,319,cs),
(143,500,o),
(165,568,o),
(224,568,cs),
(283,568,o),
(305,500,o),
(305,319,cs),
(305,140,o),
(283,72,o),
(224,72,cs)
);
}
);
width = 448;
},
{
anchors = (
{
name = bottom;
pos = (224,-192);
},
{
name = top;
pos = (224,640);
}
);
background = {
>>>>>>>> gf-release:sources/Sudo.glyphspackage/glyphs/Q_.glyph
shapes = (
{
closed = 1;
nodes = (
<<<<<<<< HEAD:sources-design/Sudo.glyphspackage/glyphs/T_heta.glyph
(360,-10,o),
(421,102,o),
(421,319,cs),
(421,541,o),
(360,650,o),
(224,650,cs),
(92,650,o),
(27,541,o),
(27,319,cs),
(27,102,o),
(92,-10,o),
(224,-10,cs)
========
(403,-82,l),
(311,-81,o),
(275,-63,o),
(265,0,c),
(220,0,l),
(233,-90,o),
(286,-128,o),
(401,-128,c)
>>>>>>>> gf-release:sources/Sudo.glyphspackage/glyphs/Q_.glyph
);
},
{
closed = 1;
nodes = (
(174,72,o),
(150,121,o),
(144,248,c),
(304,248,l),
(298,121,o),
(274,72,o),
(224,72,cs)
);
},
{
closed = 1;
nodes = (
(144,503,o),
(166,568,o),
(224,568,cs),
(282,568,o),
(304,503,o),
(305,328,c),
(143,328,l)
);
}
);
width = 448;
},
{
background = {
shapes = (
{
closed = 1;
nodes = (
(349,-10,o),
(405,102,o),
(405,319,cs),
(405,541,o),
(349,650,o),
(224,650,cs),
(102,650,o),
(43,541,o),
(43,319,cs),
(43,102,o),
(102,-10,o),
(224,-10,cs)
);
},
{
closed = 1;
nodes = (
(141,34,o),
(103,104,o),
(96,265,c),
(352,265,l),
(345,104,o),
(307,34,o),
(224,34,cs)
);
},
{
closed = 1;
nodes = (
(95,519,o),
(132,606,o),
(224,606,cs),
(316,606,o),
(353,519,o),
(353,319,c),
(95,319,l)
);
}
);
};
layerId = "7DDCEF54-C770-4FAD-B154-EE8058BAA7E5";
shapes = (
{
closed = 1;
nodes = (
(349,-10,o),
(405,102,o),
(405,319,cs),
(405,541,o),
(349,650,o),
(224,650,cs),
(102,650,o),
(43,541,o),
(43,319,cs),
(43,102,o),
(102,-10,o),
(224,-10,cs)
);
},
{
closed = 1;
nodes = (
(139,34,o),
(101,109,o),
(96,275,c),
(352,275,l),
(347,109,o),
(309,34,o),
(224,34,cs)
);
},
{
closed = 1;
nodes = (
(95,519,o),
(132,606,o),
(224,606,cs),
(316,606,o),
(353,519,o),
(353,319,c),
(95,319,l)
);
}
);
};
layerId = "7DDCEF54-C770-4FAD-B154-EE8058BAA7E5";
shapes = (
{
closed = 1;
nodes = (
(403,-82,l),
(313,-81,o),
(277,-63,o),
(266,-5,c),
(361,18,o),
(405,128,o),
(405,319,cs),
(405,541,o),
(349,650,o),
(224,650,cs),
(102,650,o),
(43,541,o),
(43,319,cs),
(43,103,o),
(102,-9,o),
(222,-10,c),
(237,-92,o),
(290,-128,o),
(401,-128,c)
);
},
{
closed = 1;
nodes = (
(132,34,o),
(95,121,o),
(95,319,cs),
(95,519,o),
(132,606,o),
(224,606,cs),
(316,606,o),
(353,519,o),
(353,319,cs),
(353,121,o),
(316,34,o),
(224,34,cs)
);
}
);
width = 448;
},
{
<<<<<<<< HEAD:sources-design/Sudo.glyphspackage/glyphs/T_heta.glyph
========
anchors = (
{
name = bottom;
pos = (140,-192);
},
{
name = top;
pos = (307,640);
}
);
>>>>>>>> gf-release:sources/Sudo.glyphspackage/glyphs/Q_.glyph
background = {
shapes = (
{
closed = 1;
nodes = (
(304,-10,o),
(380,100,o),
(423,315,cs),
(468,539,o),
(432,650,o),
(306,650,cs),
(185,650,o),
(107,543,o),
(63,323,cs),
(19,104,o),
(57,-10,o),
(181,-10,cs)
);
},
{
closed = 1;
nodes = (
(100,34,o),
(78,105,o),
(104,265,c),
(361,265,l),
(322,105,o),
(266,34,o),
(183,34,cs)
);
},
{
closed = 1;
nodes = (
(155,519,o),
(211,606,o),
(304,606,cs),
(392,606,o),
(412,520,o),
(372,319,c),
(114,319,l)
);
}
);
};
layerId = "C21910D5-47BB-472B-A83D-89B2B42B8F2A";
shapes = (
{
closed = 1;
nodes = (
(304,-10,o),
(380,100,o),
(423,315,cs),
(468,539,o),
(432,650,o),
(306,650,cs),
(185,650,o),
(107,543,o),
(63,323,cs),
(19,104,o),
(57,-10,o),
(181,-10,cs)
);
},
{
closed = 1;
nodes = (
(98,34,o),
(77,107,o),
(106,275,c),
(363,275,l),
(324,108,o),
(268,34,o),
(183,34,cs)
);
},
{
closed = 1;
nodes = (
(155,519,o),
(211,606,o),
(304,606,cs),
(392,606,o),
(412,520,o),
(372,319,c),
(114,319,l)
);
}
);
};
layerId = "C21910D5-47BB-472B-A83D-89B2B42B8F2A";
shapes = (
{
closed = 1;
nodes = (
(342,-82,l),
(251,-81,o),
(220,-66,o),
(222,-6,c),
(322,17,o),
(385,125,o),
(423,315,cs),
(468,539,o),
(432,650,o),
(306,650,cs),
(185,650,o),
(107,543,o),
(63,323,cs),
(19,105,o),
(57,-8,o),
(178,-10,c),
(177,-92,o),
(224,-128,o),
(334,-128,c)
);
},
{
closed = 1;
nodes = (
(92,34,o),
(74,119,o),
(113,315,cs),
(154,517,o),
(210,606,o),
(304,606,cs),
(394,606,o),
(412,521,o),
(373,323,cs),
(333,123,o),
(276,34,o),
(183,34,cs)
);
}
);
width = 448;
},
{
<<<<<<<< HEAD:sources-design/Sudo.glyphspackage/glyphs/T_heta.glyph
========
anchors = (
{
name = bottom;
pos = (140,-192);
},
{
name = top;
pos = (307,640);
}
);
>>>>>>>> gf-release:sources/Sudo.glyphspackage/glyphs/Q_.glyph
background = {
shapes = (
{
closed = 1;
nodes = (
(384,320,l),
(64,320,l),
(64,256,l),
(384,256,l)
);
},
{
closed = 1;
nodes = (
(309,-10,o),
(386,99,o),
(429,313,cs),
(474,538,o),
(436,650,o),
(304,650,cs),
(181,650,o),
(101,544,o),
(57,325,cs),
(13,105,o),
(54,-10,o),
(182,-10,cs)
);
},
{
closed = 1;
nodes = (
(107,56,o),
(93,125,o),
(131,313,cs),
(170,509,o),
(218,584,o),
(301,584,cs),
(378,584,o),
(392,513,o),
(354,320,cs),
(315,129,o),
(268,56,o),
(185,56,cs)
);
}
);
};
layerId = "BA106321-29DE-4FD0-898D-B7B08A4D4215";
shapes = (
{
closed = 1;
nodes = (
<<<<<<<< HEAD:sources-design/Sudo.glyphspackage/glyphs/T_heta.glyph
(309,-10,o),
(386,99,o),
========
(352,-78,l),
(267,-72,o),
(233,-63,o),
(235,-3,c),
(330,24,o),
(392,130,o),
>>>>>>>> gf-release:sources/Sudo.glyphspackage/glyphs/Q_.glyph
(429,313,cs),
(474,538,o),
(436,650,o),
(304,650,cs),
(181,650,o),
(101,544,o),
(57,325,cs),
<<<<<<<< HEAD:sources-design/Sudo.glyphspackage/glyphs/T_heta.glyph
(13,105,o),
(54,-10,o),
(182,-10,cs)
========
(15,116,o),
(49,3,o),
(162,-9,c),
(164,-100,o),
(238,-137,o),
(334,-145,c)
>>>>>>>> gf-release:sources/Sudo.glyphspackage/glyphs/Q_.glyph
);
},
{
closed = 1;
nodes = (
<<<<<<<< HEAD:sources-design/Sudo.glyphspackage/glyphs/T_heta.glyph
(115,56,o),
(97,112,o),
(120,256,c),
(340,256,l),
(303,112,o),
(258,56,o),
(185,56,cs)
);
},
{
closed = 1;
nodes = (
(171,512,o),
(219,584,o),
(301,584,cs),
(378,584,o),
(392,513,o),
(354,320,c),
(132,320,l)
========
(107,56,o),
(93,125,o),
(131,313,cs),
(170,509,o),
(218,584,o),
(301,584,cs),
(380,584,o),
(393,515,o),
(355,325,cs),
(316,131,o),
(269,56,o),
(185,56,cs)
>>>>>>>> gf-release:sources/Sudo.glyphspackage/glyphs/Q_.glyph
);
}
);
width = 448;
},
{
<<<<<<<< HEAD:sources-design/Sudo.glyphspackage/glyphs/T_heta.glyph
========
anchors = (
{
name = bottom;
pos = (140,-192);
},
{
name = top;
pos = (307,640);
}
);
>>>>>>>> gf-release:sources/Sudo.glyphspackage/glyphs/Q_.glyph
background = {
shapes = (
{
closed = 1;
nodes = (
(384,328,l),
(64,328,l),
(64,248,l),
(384,248,l)
);
},
{
closed = 1;
nodes = (
(316,-10,o),
(396,98,o),
(438,310,cs),
(484,537,o),
(442,650,o),
(303,650,cs),
(174,650,o),
(91,545,o),
(48,328,cs),
(3,106,o),
(48,-10,o),
(184,-10,cs)
);
},
{
closed = 1;
nodes = (
(131,72,o),
(125,136,o),
(160,310,cs),
(197,496,o),
(237,568,o),
(299,568,cs),
(355,568,o),
(361,504,o),
(326,328,cs),
(289,144,o),
(249,72,o),
(187,72,cs)
);
}
);
<<<<<<<< HEAD:sources-design/Sudo.glyphspackage/glyphs/T_heta.glyph
};
layerId = "EBAB10B0-9FDE-44C7-9B16-DD2313400F4E";
========
};
layerId = "EBAB10B0-9FDE-44C7-9B16-DD2313400F4E";
shapes = (
{
closed = 1;
nodes = (
(361,-60,l),
(283,-58,o),
(243,-48,o),
(237,-4,c),
(338,22,o),
(402,128,o),
(438,310,cs),
(484,537,o),
(442,650,o),
(303,650,cs),
(174,650,o),
(91,545,o),
(48,328,cs),
(7,127,o),
(39,14,o),
(146,-7,c),
(153,-101,o),
(216,-147,o),
(340,-152,c)
);
},
{
closed = 1;
nodes = (
(131,72,o),
(125,136,o),
(160,310,cs),
(197,496,o),
(237,568,o),
(299,568,cs),
(355,568,o),
(361,504,o),
(326,328,cs),
(289,144,o),
(249,72,o),
(187,72,cs)
);
}
);
width = 448;
},
{
anchors = (
{
name = bottom;
pos = (224,0);
},
{
name = top;
pos = (224,640);
}
);
associatedMasterId = "95FB0C11-C828-4064-8966-34220AA4D426";
attr = {
coordinates = (
400,
-64,
0
);
};
background = {
>>>>>>>> gf-release:sources/Sudo.glyphspackage/glyphs/Q_.glyph
shapes = (
{
closed = 1;
nodes = (
(316,-10,o),
(396,98,o),
(438,310,cs),
(484,537,o),
(442,650,o),
(303,650,cs),
(174,650,o),
(91,545,o),
(48,328,cs),
(3,106,o),
(48,-10,o),
(184,-10,cs)
);
},
{
closed = 1;
nodes = (
(138,72,o),
(128,121,o),
(149,248,c),
(308,248,l),
(276,124,o),
(239,72,o),
(187,72,cs)
);
},
{
closed = 1;
nodes = (
<<<<<<<< HEAD:sources-design/Sudo.glyphspackage/glyphs/T_heta.glyph
(200,501,o),
(239,568,o),
(299,568,cs),
(355,568,o),
(361,504,o),
(326,328,c),
(164,328,l)
========
(143,56,o),
(113,128,o),
(113,319,cs),
(113,512,o),
(143,584,o),
(224,584,cs),
(305,584,o),
(335,512,o),
(335,319,cs),
(335,128,o),
(305,56,o),
(224,56,cs)
);
}
);
};
layerId = "BDA2CBE2-3E64-406D-81E8-E5B2DE51A401";
name = "{400, 0, -64}";
shapes = (
{
closed = 1;
nodes = (
(415,-14,l),
(343,-13,o),
(311,-11,o),
(299,6,c),
(375,44,o),
(411,150,o),
(411,319,cs),
(411,541,o),
(353,650,o),
(224,650,cs),
(98,650,o),
(37,541,o),
(37,319,cs),
(37,107,o),
(95,-5,o),
(216,-10,c),
(249,-71,o),
(307,-79,o),
(412,-81,c)
);
},
{
closed = 1;
nodes = (
(143,56,o),
(113,128,o),
(113,319,cs),
(113,512,o),
(143,584,o),
(224,584,cs),
(305,584,o),
(335,512,o),
(335,319,cs),
(335,128,o),
(305,56,o),
(224,56,cs)
);
}
);
width = 448;
},
{
anchors = (
{
name = bottom;
pos = (179,0);
},
{
name = top;
pos = (307,640);
}
);
associatedMasterId = "BA106321-29DE-4FD0-898D-B7B08A4D4215";
attr = {
coordinates = (
400,
-64,
1
);
};
background = {
shapes = (
{
closed = 1;
nodes = (
(365,-14,l),
(285,-13,o),
(256,-13,o),
(252,10,c),
(168,3,l),
(186,-67,o),
(244,-79,o),
(354,-81,c)
);
},
{
closed = 1;
nodes = (
(309,-10,o),
(386,99,o),
(429,313,cs),
(474,538,o),
(436,650,o),
(304,650,cs),
(181,650,o),
(101,544,o),
(57,325,cs),
(13,105,o),
(54,-10,o),
(182,-10,cs)
);
},
{
closed = 1;
nodes = (
(107,56,o),
(93,125,o),
(131,313,cs),
(170,509,o),
(218,584,o),
(301,584,cs),
(380,584,o),
(393,515,o),
(355,325,cs),
(316,131,o),
(269,56,o),
(185,56,cs)
>>>>>>>> gf-release:sources/Sudo.glyphspackage/glyphs/Q_.glyph
);
}
);
};
layerId = "86B221DC-84BE-45AD-B1F2-DEF057376BF0";
name = "{400, 1, -64}";
shapes = (
{
closed = 1;
nodes = (
(365,-14,l),
(292,-13,o),
(262,-12,o),
(254,4,c),
(338,39,o),
(395,144,o),
(429,313,cs),
(474,538,o),
(436,650,o),
(304,650,cs),
(181,650,o),
(101,544,o),
(57,325,cs),
(14,110,o),
(51,-4,o),
(172,-10,c),
(194,-69,o),
(250,-79,o),
(354,-81,c)
);
},
{
closed = 1;
nodes = (
(107,56,o),
(93,125,o),
(131,313,cs),
(170,509,o),
(218,584,o),
(301,584,cs),
(380,584,o),
(393,515,o),
(355,325,cs),
(316,131,o),
(269,56,o),
(185,56,cs)
);
}
);
width = 448;
},
{
anchors = (
{
name = bottom;
pos = (224,-192);
},
{
name = top;
pos = (224,640);
}
);
associatedMasterId = "92967D72-867E-4A8B-929F-F44D834DD4C9";
attr = {
coordinates = (
700,
-64,
0
);
};
background = {
shapes = (
{
closed = 1;
nodes = (
(421,4,l),
(334,4,o),
(286,8,o),
(278,20,c),
(185,20,l),
(203,-52,o),
(275,-85,o),
(412,-88,c)
);
},
{
closed = 1;
nodes = (
(360,-10,o),
(421,102,o),
(421,319,cs),
(421,541,o),
(360,650,o),
(224,650,cs),
(92,650,o),
(27,541,o),
(27,319,cs),
(27,102,o),
(92,-10,o),
(224,-10,cs)
);
},
{
closed = 1;
nodes = (
(165,72,o),
(143,140,o),
(143,319,cs),
(143,500,o),
(165,568,o),
(224,568,cs),
(283,568,o),
(305,500,o),
(305,319,cs),
(305,140,o),
(283,72,o),
(224,72,cs)
);
}
);
};
layerId = "E3A55F72-A43E-4AE8-9B38-608E8BCE09BF";
name = "5. Mar 25 at 18:56";
shapes = (
{
closed = 1;
nodes = (
(417,4,l),
(368,4,o),
(332,5,o),
(309,9,c),
(385,49,o),
(421,154,o),
(421,319,cs),
(421,541,o),
(360,650,o),
(224,650,cs),
(92,650,o),
(27,541,o),
(27,319,cs),
(27,118,o),
(84,7,o),
(196,-8,c),
(225,-61,o),
(294,-85,o),
(412,-88,c)
);
},
{
closed = 1;
nodes = (
(165,72,o),
(143,140,o),
(143,319,cs),
(143,500,o),
(165,568,o),
(224,568,cs),
(283,568,o),
(305,500,o),
(305,319,cs),
(305,140,o),
(283,72,o),
(224,72,cs)
);
}
);
width = 448;
},
{
anchors = (
{
name = bottom;
pos = (224,-192);
},
{
name = top;
pos = (224,640);
}
);
associatedMasterId = "7DDCEF54-C770-4FAD-B154-EE8058BAA7E5";
attr = {
coordinates = (
200,
-64,
0
);
};
background = {
shapes = (
{
closed = 1;
nodes = (
(403,-18,l),
(313,-18,o),
(278,-14,o),
(268,0,c),
(220,0,l),
(233,-45,o),
(286,-64,o),
(401,-64,c)
);
},
{
closed = 1;
nodes = (
(349,-10,o),
(405,102,o),
(405,319,cs),
(405,541,o),
(349,650,o),
(224,650,cs),
(102,650,o),
(43,541,o),
(43,319,cs),
(43,102,o),
(102,-10,o),
(224,-10,cs)
);
},
{
closed = 1;
nodes = (
(132,34,o),
(95,121,o),
(95,319,cs),
(95,519,o),
(132,606,o),
(224,606,cs),
(316,606,o),
(353,519,o),
(353,319,cs),
(353,121,o),
(316,34,o),
(224,34,cs)
);
}
);
};
layerId = "661ACE4D-2A77-46C8-AD13-58496C398981";
name = "5. Mar 25 at 18:57";
shapes = (
{
closed = 1;
nodes = (
(401,-18,l),
(321,-18,o),
(284,-14,o),
(272,-4,c),
(363,22,o),
(405,132,o),
(405,319,cs),
(405,541,o),
(349,650,o),
(224,650,cs),
(102,650,o),
(43,541,o),
(43,319,cs),
(43,102,o),
(103,-10,o),
(224,-10,c),
(242,-48,o),
(295,-64,o),
(401,-64,c)
);
},
{
closed = 1;
nodes = (
(132,34,o),
(95,121,o),
(95,319,cs),
(95,519,o),
(132,606,o),
(224,606,cs),
(316,606,o),
(353,519,o),
(353,319,cs),
(353,121,o),
(316,34,o),
(224,34,cs)
);
}
);
width = 448;
},
{
anchors = (
{
name = bottom;
pos = (140,-192);
},
{
name = top;
pos = (307,640);
}
);
associatedMasterId = "C21910D5-47BB-472B-A83D-89B2B42B8F2A";
attr = {
coordinates = (
200,
-64,
1
);
};
background = {
shapes = (
{
closed = 1;
nodes = (
(353,-18,l),
(263,-18,o),
(229,-16,o),
(222,-2,c),
(176,2,l),
(180,-43,o),
(230,-64,o),
(345,-64,c)
);
},
{
closed = 1;
nodes = (
(304,-10,o),
(380,100,o),
(423,315,cs),
(468,539,o),
(432,650,o),
(306,650,cs),
(185,650,o),
(107,543,o),
(63,323,cs),
(19,104,o),
(57,-10,o),
(181,-10,cs)
);
},
{
closed = 1;
nodes = (
(92,34,o),
(74,119,o),
(113,315,cs),
(154,517,o),
(210,606,o),
(304,606,cs),
(394,606,o),
(412,521,o),
(373,323,cs),
(333,123,o),
(276,34,o),
(183,34,cs)
);
}
);
};
layerId = "C8B6C619-69CC-4F1F-9AB6-E89C063C73BE";
name = "5. Mar 25 at 18:59";
shapes = (
{
closed = 1;
nodes = (
(353,-18,l),
(270,-18,o),
(235,-17,o),
(224,-5,c),
(323,19,o),
(385,126,o),
(423,315,cs),
(468,539,o),
(432,650,o),
(306,650,cs),
(185,650,o),
(107,543,o),
(63,323,cs),
(19,105,o),
(56,-8,o),
(178,-10,c),
(190,-48,o),
(241,-64,o),
(345,-64,c)
);
},
{
closed = 1;
nodes = (
(92,34,o),
(74,119,o),
(113,315,cs),
(154,517,o),
(210,606,o),
(304,606,cs),
(394,606,o),
(412,521,o),
(373,323,cs),
(333,123,o),
(276,34,o),
(183,34,cs)
);
}
);
width = 448;
},
{
anchors = (
{
name = bottom;
pos = (140,-192);
},
{
name = top;
pos = (307,640);
}
);
associatedMasterId = "EBAB10B0-9FDE-44C7-9B16-DD2313400F4E";
attr = {
coordinates = (
700,
-64,
1
);
};
background = {
shapes = (
{
closed = 1;
nodes = (
(374,4,l),
(287,4,o),
(240,4,o),
(235,16,c),
(146,24,l),
(149,-48,o),
(216,-85,o),
(353,-88,c)
);
},
{
closed = 1;
nodes = (
(316,-10,o),
(396,98,o),
(438,310,cs),
(484,537,o),
(442,650,o),
(303,650,cs),
(174,650,o),
(91,545,o),
(48,328,cs),
(3,106,o),
(48,-10,o),
(184,-10,cs)
);
},
{
closed = 1;
nodes = (
(131,72,o),
(125,136,o),
(160,310,cs),
(197,496,o),
(237,568,o),
(299,568,cs),
(355,568,o),
(361,504,o),
(326,328,cs),
(289,144,o),
(249,72,o),
(187,72,cs)
);
}
);
};
layerId = "5BEE23C8-5075-4722-AA6F-F2917948C3B5";
name = "5. Mar 25 at 18:59";
shapes = (
{
closed = 1;
nodes = (
(374,4,l),
(325,4,o),
(287,4,o),
(265,6,c),
(349,43,o),
(405,145,o),
(438,310,cs),
(484,537,o),
(442,650,o),
(303,650,cs),
(174,650,o),
(91,545,o),
(48,328,cs),
(7,125,o),
(40,10,o),
(152,-8,c),
(172,-60,o),
(237,-85,o),
(353,-88,c)
);
},
{
closed = 1;
nodes = (
(131,72,o),
(125,136,o),
(160,310,cs),
(197,496,o),
(237,568,o),
(299,568,cs),
(355,568,o),
(361,504,o),
(326,328,cs),
(289,144,o),
(249,72,o),
(187,72,cs)
);
}
);
width = 448;
}
);
unicode = 920;
}
{
glyphname = alpha;
kernLeft = o;
kernRight = alpha;
layers = (
{
anchors = (
{
name = bottom;
pos = (224,0);
},
{
name = center;
pos = (224,224);
},
{
name = top;
pos = (224,448);
}
);
background = {
anchors = (
{
name = bottom;
pos = (224,0);
},
{
name = center;
pos = (224,224);
},
{
name = top;
pos = (224,448);
}
);
shapes = (
{
closed = 1;
nodes = (
(394,-6,o),
(413,-4,o),
(430,0,c),
(427,60,l),
(420,59,o),
(411,58,o),
(404,58,cs),
(385,58,o),
(377,68,o),
(377,84,cs),
(377,384,l),
(379,448,l),
(318,448,l),
(309,383,l),
(305,367,l),
(305,80,l),
(309,65,l),
(309,21,o),
(331,-6,o),
(379,-6,cs)
);
},
{
angle = 180;
pos = (442,448);
ref = _part.bowl;
}
);
};
hints = (
{
horizontal = 1;
options = 4;
origin = (0,5);
target = (0,12);
type = TTStem;
},
{
horizontal = 1;
origin = (0,17);
type = TTSnap;
},
{
options = 8;
origin = (0,15);
type = TTSnap;
},
{
options = 4;
origin = (0,15);
target = (1,9);
type = TTStem;
},
{
options = 4;
origin = (1,9);
target = (0,18);
type = TTShift;
},
{
options = 4;
origin = (0,15);
target = (0,5);
type = TTShift;
},
{
horizontal = 1;
options = 4;
origin = (0,22);
target = (1,5);
type = TTStem;
},
{
horizontal = 1;
options = 4;
origin = (0,28);
target = (1,12);
type = TTStem;
},
{
options = 8;
origin = (1,2);
type = TTSnap;
},
{
options = 4;
origin = (1,2);
target = (0,25);
type = TTStem;
}
);
layerId = "95FB0C11-C828-4064-8966-34220AA4D426";
shapes = (
{
closed = 1;
nodes = (
(247,-8,o),
(285,4,o),
(314,32,c),
(323,8,o),
(344,-6,o),
(379,-6,cs),
(394,-6,o),
(413,-4,o),
(430,0,c),
(427,60,l),
(420,59,o),
(411,58,o),
(404,58,cs),
(385,58,o),
(377,68,o),
(377,84,cs),
(377,384,l),
(379,448,l),
(318,448,l),
(314,417,l),
(284,445,o),
(248,456,o),
(207,456,cs),
(101,456,o),
(40,371,o),
(40,224,cs),
(40,77,o),
(101,-8,o),
(206,-8,cs)
);
},
{
closed = 1;
nodes = (
(143,56,o),
(118,99,o),
(118,224,cs),
(118,349,o),
(143,392,o),
(215,392,cs),
(250,392,o),
(282,382,o),
(305,356,c),
(305,92,l),
(283,67,o),
(250,56,o),
(215,56,cs)
);
}
);
width = 448;
},
{
anchors = (
{
name = bottom;
pos = (224,0);
},
{
name = center;
pos = (224,224);
},
{
name = top;
pos = (224,448);
}
);
background = {
anchors = (
{
name = bottom;
pos = (224,0);
},
{
name = center;
pos = (224,224);
},
{
name = top;
pos = (224,448);
}
);
shapes = (
{
closed = 1;
nodes = (
(397,-6,o),
(423,-2,o),
(440,2,c),
(440,76,l),
(434,75,o),
(427,74,o),
(422,74,cs),
(405,74,o),
(398,82,o),
(398,97,cs),
(398,384,l),
(400,448,l),
(312,448,l),
(296,356,l),
(286,356,l),
(286,80,l),
(294,80,l),
(294,21,o),
(321,-6,o),
(375,-6,cs)
);
},
{
angle = 180;
pos = (442,448);
ref = _part.bowl;
}
);
};
layerId = "92967D72-867E-4A8B-929F-F44D834DD4C9";
shapes = (
{
closed = 1;
nodes = (
(235,-8,o),
(270,6,o),
(297,36,c),
(308,8,o),
(333,-6,o),
(371,-6,cs),
(393,-6,o),
(419,-2,o),
(436,2,c),
(436,76,l),
(430,75,o),
(423,74,o),
(418,74,cs),
(401,74,o),
(394,82,o),
(394,97,cs),
(394,384,l),
(396,448,l),
(308,448,l),
(302,411,l),
(273,443,o),
(236,456,o),
(193,456,cs),
(87,456,o),
(28,373,o),
(28,224,cs),
(28,75,o),
(86,-8,o),
(192,-8,cs)
);
},
{
closed = 1;
nodes = (
(164,74,o),
(146,115,o),
(146,224,cs),
(146,333,o),
(164,374,o),
(212,374,cs),
(241,374,o),
(264,364,o),
(282,336,c),
(282,110,l),
(264,83,o),
(240,74,o),
(212,74,cs)
);
}
);
width = 448;
},
{
anchors = (
{
name = bottom;
pos = (224,0);
},
{
name = center;
pos = (224,224);
},
{
name = top;
pos = (224,448);
}
);
background = {
anchors = (
{
name = bottom;
pos = (224,0);
},
{
name = center;
pos = (224,224);
},
{
name = top;
pos = (224,448);
}
);
shapes = (
{
closed = 1;
nodes = (
(395,-6,o),
(409,-4,o),
(423,0,c),
(419,38,l),
(412,37,o),
(403,36,o),
(396,36,cs),
(373,36,o),
(364,48,o),
(364,66,cs),
(364,385,l),
(366,448,l),
(322,448,l),
(316,399,l),
(316,384,l),
(316,64,l),
(319,56,l),
(319,21,o),
(340,-6,o),
(381,-6,cs)
);
},
{
angle = 180;
pos = (442,448);
ref = _part.bowl;
}
);
};
layerId = "7DDCEF54-C770-4FAD-B154-EE8058BAA7E5";
shapes = (
{
closed = 1;
nodes = (
(261,-8,o),
(294,7,o),
(323,31,c),
(331,9,o),
(351,-6,o),
(381,-6,cs),
(395,-6,o),
(409,-4,o),
(423,0,c),
(419,38,l),
(412,37,o),
(403,36,o),
(396,36,cs),
(373,36,o),
(364,48,o),
(364,66,cs),
(364,385,l),
(366,448,l),
(322,448,l),
(319,421,l),
(291,442,o),
(258,456,o),
(213,456,cs),
(106,456,o),
(48,374,o),
(48,224,cs),
(48,74,o),
(107,-8,o),
(214,-8,cs)
);
},
{
closed = 1;
nodes = (
(135,34,o),
(100,91,o),
(100,224,cs),
(100,357,o),
(134,414,o),
(215,414,cs),
(256,414,o),
(287,402,o),
(316,381,c),
(316,67,l),
(287,46,o),
(257,34,o),
(216,34,cs)
);
}
);
width = 448;
},
{
anchors = (
{
name = bottom;
pos = (179,0);
},
{
name = center;
pos = (224,224);
},
{
name = top;
pos = (269,448);
}
);
background = {
anchors = (
{
name = bottom;
pos = (179,0);
},
{
name = center;
pos = (224,224);
},
{
name = top;
pos = (269,448);
}
);
shapes = (
{
closed = 1;
nodes = (
(351,-6,o),
(365,-5,o),
(380,-1,c),
(380,38,l),
(373,37,o),
(363,36,o),
(355,36,cs),
(333,36,o),
(328,46,o),
(332,64,cs),
(396,385,l),
(411,448,l),
(366,448,l),
(351,399,l),
(348,384,l),
(284,64,l),
(286,58,l),
(279,23,o),
(296,-6,o),
(338,-6,cs)
);
},
{
angle = 180;
pos = (442,448);
ref = _part.bowl;
}
);
};
hints = (
{
horizontal = 1;
options = 4;
place = (456,44);
type = TTStem;
},
{
horizontal = 1;
options = 4;
place = (-8,44);
type = TTStem;
},
{
options = 8;
place = (97,0);
type = TTSnap;
},
{
options = 4;
place = (97,52);
type = TTStem;
}
);
layerId = "C21910D5-47BB-472B-A83D-89B2B42B8F2A";
shapes = (
{
closed = 1;
nodes = (
(215,-8,o),
(251,6,o),
(286,30,c),
(291,8,o),
(308,-6,o),
(338,-6,cs),
(351,-6,o),
(365,-5,o),
(380,-1,c),
(380,38,l),
(373,37,o),
(363,36,o),
(355,36,cs),
(333,36,o),
(328,46,o),
(332,64,cs),
(396,385,l),
(411,448,l),
(366,448,l),
(357,419,l),
(333,441,o),
(302,456,o),
(255,456,cs),
(151,456,o),
(78,376,o),
(49,230,cs),
(18,76,o),
(62,-8,o),
(167,-8,cs)
);
},
{
closed = 1;
nodes = (
(99,34,o),
(73,90,o),
(99,218,cs),
(126,355,o),
(178,414,o),
(257,414,cs),
(296,414,o),
(325,402,o),
(348,383,c),
(285,69,l),
(251,47,o),
(218,34,o),
(176,34,cs)
);
}
);
width = 448;
},
{
anchors = (
{
name = bottom;
pos = (179,0);
},
{
name = center;
pos = (224,224);
},
{
name = top;
pos = (269,448);
}
);
background = {
anchors = (
{
name = bottom;
pos = (179,0);
},
{
name = center;
pos = (224,224);
},
{
name = top;
pos = (269,448);
}
);
shapes = (
{
closed = 1;
nodes = (
(350,-6,o),
(370,-5,o),
(387,-1,c),
(391,60,l),
(384,59,o),
(375,58,o),
(366,58,cs),
(349,58,o),
(345,65,o),
(348,81,cs),
(409,384,l),
(424,448,l),
(362,448,l),
(340,383,l),
(333,367,l),
(277,80,l),
(278,68,l),
(269,24,o),
(287,-6,o),
(338,-6,cs)
);
},
{
angle = 180;
pos = (442,448);
ref = _part.bowl;
}
);
};
layerId = "BA106321-29DE-4FD0-898D-B7B08A4D4215";
shapes = (
{
closed = 1;
nodes = (
(205,-8,o),
(243,3,o),
(278,31,c),
(284,9,o),
(303,-6,o),
(338,-6,cs),
(350,-6,o),
(370,-5,o),
(387,-1,c),
(391,60,l),
(384,59,o),
(375,58,o),
(366,58,cs),
(349,58,o),
(345,65,o),
(348,81,cs),
(409,384,l),
(424,448,l),
(362,448,l),
(351,414,l),
(327,443,o),
(292,456,o),
(251,456,cs),
(144,456,o),
(72,377,o),
(43,235,cs),
(13,84,o),
(65,-8,o),
(168,-8,cs)
);
},
{
closed = 1;
nodes = (
(117,56,o),
(93,100,o),
(116,218,cs),
(142,348,o),
(178,392,o),
(255,392,cs),
(286,392,o),
(315,383,o),
(332,360,c),
(280,97,l),
(252,69,o),
(216,56,o),
(185,56,cs)
);
}
);
width = 448;
},
{
anchors = (
{
name = bottom;
pos = (179,0);
},
{
name = center;
pos = (224,224);
},
{
name = top;
pos = (269,448);
}
);
background = {
anchors = (
{
name = bottom;
pos = (179,0);
},
{
name = center;
pos = (224,224);
},
{
name = top;
pos = (269,448);
}
);
shapes = (
{
closed = 1;
nodes = (
(350,-6,o),
(376,-3,o),
(394,1,c),
(403,77,l),
(397,76,o),
(390,74,o),
(381,74,cs),
(368,74,o),
(365,78,o),
(368,93,cs),
(426,384,l),
(441,448,l),
(352,448,l),
(318,356,l),
(308,356,l),
(253,80,l),
(262,84,l),
(250,25,o),
(274,-6,o),
(331,-6,cs)
);
},
{
angle = 180;
pos = (442,448);
ref = _part.bowl;
}
);
};
layerId = "EBAB10B0-9FDE-44C7-9B16-DD2313400F4E";
shapes = (
{
closed = 1;
nodes = (
(194,-8,o),
(230,4,o),
(262,34,c),
(270,7,o),
(293,-6,o),
(331,-6,cs),
(350,-6,o),
(376,-3,o),
(394,1,c),
(403,77,l),
(397,76,o),
(390,74,o),
(381,74,cs),
(368,74,o),
(365,78,o),
(368,93,cs),
(426,384,l),
(441,448,l),
(352,448,l),
(337,407,l),
(314,440,o),
(278,456,o),
(232,456,cs),
(130,456,o),
(59,377,o),
(30,232,cs),
(-1,78,o),
(48,-8,o),
(153,-8,cs)
);
},
{
closed = 1;
nodes = (
(140,74,o),
(123,112,o),
(144,216,cs),
(167,329,o),
(197,374,o),
(249,374,cs),
(273,374,o),
(292,368,o),
(305,343,c),
(260,116,l),
(236,88,o),
(208,74,o),
(182,74,cs)
);
}
);
width = 448;
}
);
unicode = 945;
}
